{
.appVersion = "1342";
DisplayStrings = (

glyphs = (
{
glyphname = A;
lastChange = "2021-01-12 21:24:44 +0000";
layers = (
{
layerId = "8648B977-9A39-40CA-BC6D-5EEF213E062F";
paths = (
{
closed = 1;
nodes = (
"178 262 OFFCURVE",
"179 264 OFFCURVE",
"180 265 CURVE SMOOTH",
"181 266 OFFCURVE",
"182 266 OFFCURVE",
"183 266 CURVE SMOOTH",
"373 266 LINE",
"374 266 OFFCURVE",
"375 266 OFFCURVE",
"376 265 CURVE SMOOTH",
"377 264 OFFCURVE",
"377 263 OFFCURVE",
"378 260 CURVE SMOOTH",
"391 207 OFFCURVE",
"405 146 OFFCURVE",
"405 102 CURVE SMOOTH",
"405 60 OFFCURVE",
"384 29 OFFCURVE",
"384 18 CURVE SMOOTH",
"384 5 OFFCURVE",
"388 0 OFFCURVE",
"400 0 CURVE SMOOTH",
"552 0 LINE SMOOTH",
"559 0 OFFCURVE",
"564 5 OFFCURVE",
"564 11 CURVE SMOOTH",
"564 27 OFFCURVE",
"540 47 OFFCURVE",
"515 147 CURVE SMOOTH",
"493 237 OFFCURVE",
"355 742 OFFCURVE",
"278 742 CURVE SMOOTH",
"215 742 OFFCURVE",
"87 237 OFFCURVE",
"65 147 CURVE SMOOTH",
"40 47 OFFCURVE",
"16 27 OFFCURVE",
"16 11 CURVE SMOOTH",
"16 5 OFFCURVE",
"21 0 OFFCURVE",
"28 0 CURVE SMOOTH",
"160 0 LINE SMOOTH",
"172 0 OFFCURVE",
"176 5 OFFCURVE",
"176 18 CURVE SMOOTH",
"176 29 OFFCURVE",
"155 60 OFFCURVE",
"155 102 CURVE SMOOTH",
"155 145 OFFCURVE",
"167 207 OFFCURVE",
"178 260 CURVE SMOOTH"
);
},
{
closed = 1;
nodes = (
"366 348 OFFCURVE",
"366 346 OFFCURVE",
"361 346 CURVE",
"198 346 LINE",
"193 346 OFFCURVE",
"193 348 OFFCURVE",
"194 352 CURVE",
"221 462 OFFCURVE",
"253 587 OFFCURVE",
"278 587 CURVE SMOOTH",
"304 587 OFFCURVE",
"337 461 OFFCURVE",
"365 352 CURVE"
);
}
);
width = 580;
},
{
associatedMasterId = "8648B977-9A39-40CA-BC6D-5EEF213E062F";
layerId = "72716207-3282-4831-8A2F-01FB03DF80BA";
name = bubble;
paths = (
{
closed = 1;
nodes = (
"576 74 OFFCURVE",
"570 101 OFFCURVE",
"564 159 CURVE SMOOTH",
"497 432 OFFCURVE",
"386 792 OFFCURVE",
"278 792 CURVE SMOOTH",
"176 792 OFFCURVE",
"83 431 OFFCURVE",
"16 159 CURVE SMOOTH",
"10 101 OFFCURVE",
"4 74 OFFCURVE",
"0 56 CURVE SMOOTH",
"0 40 OFFCURVE",
"0 25 OFFCURVE",
"0 11 CURVE SMOOTH",
"0 -23 OFFCURVE",
"12 -50 OFFCURVE",
"28 -50 CURVE SMOOTH",
"160 -50 LINE SMOOTH",
"200 -50 OFFCURVE",
"226 -22 OFFCURVE",
"226 18 CURVE SMOOTH",
"226 28 OFFCURVE",
"222 42 OFFCURVE",
"217 54 CURVE SMOOTH",
"208 76 OFFCURVE",
"205 88 OFFCURVE",
"205 102 CURVE SMOOTH",
"205 132 OFFCURVE",
"212 174 OFFCURVE",
"220 216 CURVE",
"337 216 LINE",
"347 174 OFFCURVE",
"355 133 OFFCURVE",
"355 102 CURVE SMOOTH",
"355 88 OFFCURVE",
"352 76 OFFCURVE",
"343 54 CURVE SMOOTH",
"338 42 OFFCURVE",
"334 28 OFFCURVE",
"334 18 CURVE SMOOTH",
"334 -22 OFFCURVE",
"360 -50 OFFCURVE",
"400 -50 CURVE SMOOTH",
"552 -50 LINE SMOOTH",
"568 -50 OFFCURVE",
"580 -23 OFFCURVE",
"580 11 CURVE SMOOTH",
"580 25 OFFCURVE",
"580 40 OFFCURVE",
"580 56 CURVE SMOOTH"
);
}
);
width = 580;
}
);
unicode = 0041;
},
{
glyphname = B;
lastChange = "2021-01-12 21:24:44 +0000";
layers = (
{
guideLines = (
{
position = "{330, 422}";
},
{
position = "{330, 395}";
}
);
layerId = "8648B977-9A39-40CA-BC6D-5EEF213E062F";
paths = (
{
closed = 1;
nodes = (
"208 80 OFFCURVE",
"198 93 OFFCURVE",
"198 195 CURVE SMOOTH",
"198 315 OFFCURVE",
"198 350 OFFCURVE",
"213 350 CURVE SMOOTH",
"333 350 OFFCURVE",
"414 350 OFFCURVE",
"414 195 CURVE SMOOTH",
"414 80 OFFCURVE",
"344 80 OFFCURVE",
"225 80 CURVE SMOOTH"
);
},
{
closed = 1;
nodes = (
"343 0 LINE",
"442 0 OFFCURVE",
"524 86 OFFCURVE",
"524 195 CURVE SMOOTH",
"524 377 OFFCURVE",
"349 390 OFFCURVE",
"349 397 CURVE SMOOTH",
"349 412 OFFCURVE",
"506 412 OFFCURVE",
"506 566 CURVE SMOOTH",
"506 668 OFFCURVE",
"418 742 OFFCURVE",
"279 742 CURVE",
"75 742 LINE SMOOTH",
"67 742 OFFCURVE",
"61 737 OFFCURVE",
"61 731 CURVE SMOOTH",
"61 728 OFFCURVE",
"61 722 OFFCURVE",
"69 705 CURVE SMOOTH",
"87 665 OFFCURVE",
"100 633 OFFCURVE",
"100 438 CURVE SMOOTH",
"100 304 LINE SMOOTH",
"100 111 OFFCURVE",
"86 77 OFFCURVE",
"68 37 CURVE SMOOTH",
"60 20 OFFCURVE",
"60 14 OFFCURVE",
"60 11 CURVE SMOOTH",
"60 5 OFFCURVE",
"66 0 OFFCURVE",
"74 0 CURVE SMOOTH"
);
},
{
closed = 1;
nodes = (
"214 458 OFFCURVE",
"199 471 OFFCURVE",
"199 566 CURVE SMOOTH",
"199 656 OFFCURVE",
"199 665 OFFCURVE",
"208 665 CURVE SMOOTH",
"303 665 OFFCURVE",
"396 665 OFFCURVE",
"396 566 CURVE SMOOTH",
"396 458 OFFCURVE",
"329 458 OFFCURVE",
"221 458 CURVE SMOOTH"
);
}
);
width = 570;
},
{
associatedMasterId = "8648B977-9A39-40CA-BC6D-5EEF213E062F";
layerId = "2B6BD01B-4895-46AB-A9D5-370E2CFF67C7";
name = bubble;
paths = (
{
closed = 1;
nodes = (
"515 428 OFFCURVE",
"556 478 OFFCURVE",
"556 566 CURVE SMOOTH",
"556 700 OFFCURVE",
"442 792 OFFCURVE",
"279 792 CURVE SMOOTH",
"75 792 LINE SMOOTH",
"41 792 OFFCURVE",
"11 766 OFFCURVE",
"11 731 CURVE SMOOTH",
"11 717 OFFCURVE",
"16 699 OFFCURVE",
"24 684 CURVE SMOOTH",
"45 637 OFFCURVE",
"50 591 OFFCURVE",
"50 438 CURVE SMOOTH",
"50 304 LINE SMOOTH",
"50 154 OFFCURVE",
"44 106 OFFCURVE",
"23 58 CURVE SMOOTH",
"10 43 OFFCURVE",
"0 25 OFFCURVE",
"0 11 CURVE SMOOTH",
"0 -24 OFFCURVE",
"34 -50 OFFCURVE",
"74 -50 CURVE SMOOTH",
"343 -50 LINE SMOOTH",
"469 -50 OFFCURVE",
"570 60 OFFCURVE",
"570 195 CURVE SMOOTH",
"570 303 OFFCURVE",
"521 364 OFFCURVE",
"472 398 CURVE"
);
}
);
width = 570;
}
);
unicode = 0042;
},
{
glyphname = C;
lastChange = "2021-01-12 21:24:44 +0000";
layers = (
{
layerId = "8648B977-9A39-40CA-BC6D-5EEF213E062F";
paths = (
{
closed = 1;
nodes = (
"439 542 OFFCURVE",
"438 531 OFFCURVE",
"438 521 CURVE SMOOTH",
"438 478 OFFCURVE",
"461 457 OFFCURVE",
"507 457 CURVE SMOOTH",
"546 457 OFFCURVE",
"579 488 OFFCURVE",
"579 524 CURVE SMOOTH",
"579 575 OFFCURVE",
"552 742 OFFCURVE",
"344 742 CURVE SMOOTH",
"135 742 OFFCURVE",
"48 556 OFFCURVE",
"48 356 CURVE SMOOTH",
"48 169 OFFCURVE",
"125 -13 OFFCURVE",
"327 -13 CURVE SMOOTH",
"437 -13 OFFCURVE",
"564 90 OFFCURVE",
"564 169 CURVE SMOOTH",
"564 202 OFFCURVE",
"537 224 OFFCURVE",
"520 224 CURVE SMOOTH",
"497 224 OFFCURVE",
"480 210 OFFCURVE",
"460 184 CURVE SMOOTH",
"427 145 OFFCURVE",
"377 87 OFFCURVE",
"327 87 CURVE SMOOTH",
"225 87 OFFCURVE",
"158 166 OFFCURVE",
"158 358 CURVE SMOOTH",
"158 439 OFFCURVE",
"180 607 OFFCURVE",
"276 649 CURVE SMOOTH",
"296 658 OFFCURVE",
"317 663 OFFCURVE",
"335 663 CURVE SMOOTH",
"382 663 OFFCURVE",
"446 629 OFFCURVE",
"446 573 CURVE SMOOTH",
"446 567 OFFCURVE",
"445 561 OFFCURVE",
"443 554 CURVE SMOOTH"
);
}
);
width = 615;
},
{
associatedMasterId = "8648B977-9A39-40CA-BC6D-5EEF213E062F";
layerId = "1AFDDB0F-008E-4E5A-B7DB-25845D7FA484";
name = bubble;
paths = (
{
closed = 1;
nodes = (
"391 555 OFFCURVE",
"388 535 OFFCURVE",
"388 521 CURVE SMOOTH",
"388 450 OFFCURVE",
"434 407 OFFCURVE",
"507 407 CURVE SMOOTH",
"565 407 OFFCURVE",
"615 460 OFFCURVE",
"615 524 CURVE SMOOTH",
"615 579 OFFCURVE",
"582 792 OFFCURVE",
"344 792 CURVE SMOOTH",
"133 792 OFFCURVE",
"0 620 OFFCURVE",
"0 356 CURVE SMOOTH",
"0 101 OFFCURVE",
"125 -63 OFFCURVE",
"327 -63 CURVE SMOOTH",
"461 -63 OFFCURVE",
"614 58 OFFCURVE",
"614 169 CURVE SMOOTH",
"614 223 OFFCURVE",
"571 274 OFFCURVE",
"520 274 CURVE SMOOTH",
"481 274 OFFCURVE",
"451 253 OFFCURVE",
"421 215 CURVE SMOOTH",
"374 160 OFFCURVE",
"345 137 OFFCURVE",
"327 137 CURVE SMOOTH",
"249 137 OFFCURVE",
"208 206 OFFCURVE",
"208 358 CURVE SMOOTH",
"208 477 OFFCURVE",
"246 581 OFFCURVE",
"296 603 CURVE SMOOTH",
"311 610 OFFCURVE",
"323 613 OFFCURVE",
"335 613 CURVE SMOOTH",
"366 613 OFFCURVE",
"396 591 OFFCURVE",
"396 573 CURVE SMOOTH",
"396 572 OFFCURVE",
"396 571 OFFCURVE",
"395 568 CURVE SMOOTH"
);
}
);
width = 615;
}
);
unicode = 0043;
},
{
glyphname = Ccedilla;
lastChange = "2021-01-12 21:24:44 +0000";
layers = (
{
layerId = "8648B977-9A39-40CA-BC6D-5EEF213E062F";
paths = (
{
closed = 1;
nodes = (
"48 174 OFFCURVE",
"121 -13 OFFCURVE",
"310 -13 CURVE",
"301 -37 OFFCURVE",
"287 -55 OFFCURVE",
"271 -55 CURVE SMOOTH",
"251 -55 OFFCURVE",
"229 -31 OFFCURVE",
"212 -31 CURVE SMOOTH",
"188 -31 OFFCURVE",
"159 -53 OFFCURVE",
"159 -88 CURVE SMOOTH",
"159 -119 OFFCURVE",
"180 -141 OFFCURVE",
"217 -141 CURVE SMOOTH",
"297 -141 OFFCURVE",
"346 -84 OFFCURVE",
"364 -9 CURVE",
"464 10 OFFCURVE",
"564 99 OFFCURVE",
"564 169 CURVE SMOOTH",
"564 202 OFFCURVE",
"537 224 OFFCURVE",
"520 224 CURVE SMOOTH",
"497 224 OFFCURVE",
"481 210 OFFCURVE",
"460 184 CURVE SMOOTH",
"437 155 OFFCURVE",
"387 98 OFFCURVE",
"377 98 CURVE",
"377 144 OFFCURVE",
"360 177 OFFCURVE",
"332 177 CURVE SMOOTH",
"305 177 OFFCURVE",
"302 153 OFFCURVE",
"302 145 CURVE SMOOTH",
"302 134 OFFCURVE",
"310 128 OFFCURVE",
"310 87 CURVE",
"212 90 OFFCURVE",
"158 170 OFFCURVE",
"158 358 CURVE SMOOTH",
"158 439 OFFCURVE",
"180 607 OFFCURVE",
"276 649 CURVE SMOOTH",
"296 658 OFFCURVE",
"317 663 OFFCURVE",
"335 663 CURVE SMOOTH",
"382 663 OFFCURVE",
"446 629 OFFCURVE",
"446 573 CURVE SMOOTH",
"446 567 OFFCURVE",
"445 561 OFFCURVE",
"443 554 CURVE SMOOTH",
"439 542 OFFCURVE",
"438 531 OFFCURVE",
"438 521 CURVE SMOOTH",
"438 478 OFFCURVE",
"461 457 OFFCURVE",
"507 457 CURVE SMOOTH",
"546 457 OFFCURVE",
"579 488 OFFCURVE",
"579 524 CURVE SMOOTH",
"579 575 OFFCURVE",
"552 742 OFFCURVE",
"344 742 CURVE SMOOTH",
"135 742 OFFCURVE",
"48 556 OFFCURVE",
"48 356 CURVE SMOOTH"
);
}
);
width = 615;
},
{
associatedMasterId = "8648B977-9A39-40CA-BC6D-5EEF213E062F";
layerId = "4ABD6FEC-6FE5-4D8B-A7DD-DE97D1AB7CE4";
name = bubble;
paths = (
{
closed = 1;
nodes = (
"481 274 OFFCURVE",
"452 254 OFFCURVE",
"421 215 CURVE SMOOTH",
"414 206 OFFCURVE",
"407 198 OFFCURVE",
"401 192 CURVE",
"385 214 OFFCURVE",
"361 227 OFFCURVE",
"332 227 CURVE SMOOTH",
"291 227 OFFCURVE",
"260 199 OFFCURVE",
"253 161 CURVE",
"223 192 OFFCURVE",
"208 255 OFFCURVE",
"208 358 CURVE SMOOTH",
"208 477 OFFCURVE",
"246 581 OFFCURVE",
"296 603 CURVE SMOOTH",
"311 610 OFFCURVE",
"323 613 OFFCURVE",
"335 613 CURVE SMOOTH",
"366 613 OFFCURVE",
"396 591 OFFCURVE",
"396 573 CURVE SMOOTH",
"396 572 OFFCURVE",
"396 571 OFFCURVE",
"395 568 CURVE SMOOTH",
"391 555 OFFCURVE",
"388 535 OFFCURVE",
"388 521 CURVE SMOOTH",
"388 450 OFFCURVE",
"434 407 OFFCURVE",
"507 407 CURVE SMOOTH",
"565 407 OFFCURVE",
"615 460 OFFCURVE",
"615 524 CURVE SMOOTH",
"615 579 OFFCURVE",
"582 792 OFFCURVE",
"344 792 CURVE SMOOTH",
"133 792 OFFCURVE",
"0 620 OFFCURVE",
"0 356 CURVE SMOOTH",
"0 189 OFFCURVE",
"53 59 OFFCURVE",
"143 -9 CURVE",
"122 -29 OFFCURVE",
"109 -57 OFFCURVE",
"109 -88 CURVE SMOOTH",
"109 -149 OFFCURVE",
"155 -191 OFFCURVE",
"217 -191 CURVE SMOOTH",
"304 -191 OFFCURVE",
"373 -138 OFFCURVE",
"404 -51 CURVE",
"516 -17 OFFCURVE",
"614 81 OFFCURVE",
"614 169 CURVE SMOOTH",
"614 223 OFFCURVE",
"571 274 OFFCURVE",
"520 274 CURVE SMOOTH"
);
}
);
width = 615;
}
);
unicode = 00C7;
},
{
glyphname = D;
lastChange = "2021-01-12 21:33:14 +0000";
layers = (
{
layerId = "8648B977-9A39-40CA-BC6D-5EEF213E062F";
paths = (
{
closed = 1;
nodes = (
"275 0 LINE SMOOTH",
"491 0 OFFCURVE",
"560 165 OFFCURVE",
"560 373 CURVE SMOOTH",
"560 583 OFFCURVE",
"446 742 OFFCURVE",
"275 742 CURVE SMOOTH",
"75 742 LINE SMOOTH",
"67 742 OFFCURVE",
"61 737 OFFCURVE",
"61 731 CURVE SMOOTH",
"61 728 OFFCURVE",
"61 722 OFFCURVE",
"69 705 CURVE SMOOTH",
"87 665 OFFCURVE",
"100 633 OFFCURVE",
"100 438 CURVE SMOOTH",
"100 304 LINE SMOOTH",
"100 111 OFFCURVE",
"86 77 OFFCURVE",
"68 37 CURVE SMOOTH",
"60 20 OFFCURVE",
"60 14 OFFCURVE",
"60 11 CURVE SMOOTH",
"60 5 OFFCURVE",
"66 0 OFFCURVE",
"74 0 CURVE SMOOTH"
);
},
{
closed = 1;
nodes = (
"382 664 OFFCURVE",
"450 516 OFFCURVE",
"450 373 CURVE SMOOTH",
"450 221 OFFCURVE",
"382 78 OFFCURVE",
"313 78 CURVE SMOOTH",
"242 78 LINE SMOOTH",
"196 78 OFFCURVE",
"196 95 OFFCURVE",
"196 310 CURVE SMOOTH",
"196 353 OFFCURVE",
"196 405 OFFCURVE",
"196 467 CURVE SMOOTH",
"196 653 OFFCURVE",
"196 664 OFFCURVE",
"238 664 CURVE SMOOTH",
"299 664 LINE SMOOTH"
);
}
);
width = 608;
},
{
associatedMasterId = "8648B977-9A39-40CA-BC6D-5EEF213E062F";
layerId = "CAEB124E-A4C6-454C-98D7-BB8C9EDF0209";
name = bubble;
paths = (
{
closed = 1;
nodes = (
"41 792 OFFCURVE",
"11 766 OFFCURVE",
"11 731 CURVE SMOOTH",
"11 717 OFFCURVE",
"16 699 OFFCURVE",
"24 684 CURVE SMOOTH",
"45 637 OFFCURVE",
"50 591 OFFCURVE",
"50 438 CURVE SMOOTH",
"50 304 LINE SMOOTH",
"50 154 OFFCURVE",
"44 106 OFFCURVE",
"23 58 CURVE SMOOTH",
"10 43 OFFCURVE",
"0 25 OFFCURVE",
"0 11 CURVE SMOOTH",
"0 -24 OFFCURVE",
"34 -50 OFFCURVE",
"74 -50 CURVE SMOOTH",
"275 -50 LINE SMOOTH",
"492 -50 OFFCURVE",
"608 100 OFFCURVE",
"608 373 CURVE SMOOTH",
"608 616 OFFCURVE",
"470 792 OFFCURVE",
"275 792 CURVE SMOOTH",
"75 792 LINE SMOOTH"
);
}
);
width = 608;
}
);
unicode = 0044;
},
{
glyphname = E;
lastChange = "2021-01-12 21:24:44 +0000";
layers = (
{
layerId = "8648B977-9A39-40CA-BC6D-5EEF213E062F";
paths = (
{
closed = 1;
nodes = (
"67 742 OFFCURVE",
"61 737 OFFCURVE",
"61 731 CURVE SMOOTH",
"61 728 OFFCURVE",
"61 722 OFFCURVE",
"69 705 CURVE SMOOTH",
"87 665 OFFCURVE",
"100 633 OFFCURVE",
"100 438 CURVE SMOOTH",
"100 304 LINE SMOOTH",
"100 111 OFFCURVE",
"86 77 OFFCURVE",
"68 37 CURVE SMOOTH",
"60 20 OFFCURVE",
"60 14 OFFCURVE",
"60 11 CURVE SMOOTH",
"60 5 OFFCURVE",
"66 0 OFFCURVE",
"74 0 CURVE SMOOTH",
"463 0 LINE",
"499 0 OFFCURVE",
"500 32 OFFCURVE",
"500 44 CURVE SMOOTH",
"500 116 LINE",
"500 124 OFFCURVE",
"496 134 OFFCURVE",
"485 134 CURVE SMOOTH",
"473 134 OFFCURVE",
"453 128 OFFCURVE",
"429 104 CURVE SMOOTH",
"415 90 OFFCURVE",
"376 90 OFFCURVE",
"221 90 CURVE SMOOTH",
"211 90 OFFCURVE",
"203 106 OFFCURVE",
"203 116 CURVE",
"203 258 LINE SMOOTH",
"203 377 OFFCURVE",
"204 387 OFFCURVE",
"207 390 CURVE SMOOTH",
"209 392 OFFCURVE",
"210 392 OFFCURVE",
"213 392 CURVE SMOOTH",
"220 392 OFFCURVE",
"326 392 OFFCURVE",
"356 363 CURVE SMOOTH",
"368 351 OFFCURVE",
"382 351 OFFCURVE",
"384 351 CURVE SMOOTH",
"388 351 OFFCURVE",
"391 355 OFFCURVE",
"391 360 CURVE SMOOTH",
"391 493 LINE SMOOTH",
"391 498 OFFCURVE",
"388 501 OFFCURVE",
"384 501 CURVE SMOOTH",
"382 501 OFFCURVE",
"369 500 OFFCURVE",
"356 490 CURVE SMOOTH",
"330 470 OFFCURVE",
"241 470 OFFCURVE",
"213 470 CURVE SMOOTH",
"210 470 OFFCURVE",
"209 470 OFFCURVE",
"207 472 CURVE SMOOTH",
"205 474 OFFCURVE",
"205 486 OFFCURVE",
"205 488 CURVE SMOOTH",
"205 646 LINE",
"205 656 OFFCURVE",
"211 662 OFFCURVE",
"221 662 CURVE SMOOTH",
"361 662 OFFCURVE",
"392 658 OFFCURVE",
"414 638 CURVE SMOOTH",
"439 615 OFFCURVE",
"458 608 OFFCURVE",
"470 608 CURVE SMOOTH",
"481 608 OFFCURVE",
"485 618 OFFCURVE",
"485 626 CURVE",
"485 698 LINE SMOOTH",
"485 710 OFFCURVE",
"484 742 OFFCURVE",
"448 742 CURVE",
"75 742 LINE SMOOTH"
);
}
);
width = 536;
},
{
associatedMasterId = "8648B977-9A39-40CA-BC6D-5EEF213E062F";
layerId = "45ADBC34-8C2F-49CD-B6EA-A46D6F628428";
name = bubble;
paths = (
{
closed = 1;
nodes = (
"454 184 OFFCURVE",
"421 167 OFFCURVE",
"394 139 CURVE SMOOTH",
"394 140 OFFCURVE",
"379 140 OFFCURVE",
"253 140 CURVE",
"253 258 LINE SMOOTH",
"253 285 OFFCURVE",
"260 317 OFFCURVE",
"264 339 CURVE",
"293 336 OFFCURVE",
"317 331 OFFCURVE",
"321 327 CURVE SMOOTH",
"337 311 OFFCURVE",
"361 301 OFFCURVE",
"384 301 CURVE SMOOTH",
"416 301 OFFCURVE",
"441 329 OFFCURVE",
"441 360 CURVE SMOOTH",
"441 493 LINE SMOOTH",
"441 524 OFFCURVE",
"416 551 OFFCURVE",
"384 551 CURVE SMOOTH",
"365 551 OFFCURVE",
"341 542 OFFCURVE",
"326 530 CURVE SMOOTH",
"322 527 OFFCURVE",
"294 523 OFFCURVE",
"255 521 CURVE",
"255 612 LINE",
"353 611 OFFCURVE",
"373 607 OFFCURVE",
"380 601 CURVE SMOOTH",
"409 575 OFFCURVE",
"441 558 OFFCURVE",
"470 558 CURVE SMOOTH",
"508.002 558 OFFCURVE",
"535 589 OFFCURVE",
"535 626 CURVE SMOOTH",
"535 698 LINE SMOOTH",
"535 754 OFFCURVE",
"502 792 OFFCURVE",
"448 792 CURVE SMOOTH",
"75 792 LINE SMOOTH",
"41 792 OFFCURVE",
"11 766 OFFCURVE",
"11 731 CURVE SMOOTH",
"11 717 OFFCURVE",
"16 699 OFFCURVE",
"24 684 CURVE SMOOTH",
"45 637 OFFCURVE",
"50 591 OFFCURVE",
"50 438 CURVE SMOOTH",
"50 304 LINE SMOOTH",
"50 154 OFFCURVE",
"44 106 OFFCURVE",
"23 58 CURVE SMOOTH",
"10 43 OFFCURVE",
"0 25 OFFCURVE",
"0 11 CURVE SMOOTH",
"0 -24 OFFCURVE",
"34 -50 OFFCURVE",
"74 -50 CURVE SMOOTH",
"463 -50 LINE SMOOTH",
"508 -50 OFFCURVE",
"536 -12 OFFCURVE",
"536 44 CURVE SMOOTH",
"536 116 LINE SMOOTH",
"536 153 OFFCURVE",
"515 184 OFFCURVE",
"485 184 CURVE SMOOTH"
);
}
);
width = 536;
}
);
unicode = 0045;
},
{
glyphname = F;
lastChange = "2021-01-12 21:24:44 +0000";
layers = (
{
layerId = "8648B977-9A39-40CA-BC6D-5EEF213E062F";
paths = (
{
closed = 1;
nodes = (
"244 0 OFFCURVE",
"250 5 OFFCURVE",
"250 11 CURVE SMOOTH",
"250 14 OFFCURVE",
"250 20 OFFCURVE",
"242 37 CURVE SMOOTH",
"210 109 OFFCURVE",
"210 204 OFFCURVE",
"210 307 CURVE SMOOTH",
"210 370 OFFCURVE",
"211 378 OFFCURVE",
"213 380 CURVE SMOOTH",
"215 382 OFFCURVE",
"216 382 OFFCURVE",
"219 382 CURVE SMOOTH",
"226 382 OFFCURVE",
"334 382 OFFCURVE",
"364 353 CURVE SMOOTH",
"376 341 OFFCURVE",
"380 341 OFFCURVE",
"382 341 CURVE SMOOTH",
"386 341 OFFCURVE",
"389 345 OFFCURVE",
"389 350 CURVE SMOOTH",
"389 484 LINE SMOOTH",
"389 489 OFFCURVE",
"386 492 OFFCURVE",
"382 492 CURVE SMOOTH",
"380 492 OFFCURVE",
"377 491 OFFCURVE",
"364 481 CURVE SMOOTH",
"338 461 OFFCURVE",
"247 461 OFFCURVE",
"219 461 CURVE SMOOTH",
"216 461 OFFCURVE",
"215 461 OFFCURVE",
"213 463 CURVE SMOOTH",
"211 465 OFFCURVE",
"211 476 OFFCURVE",
"211 478 CURVE SMOOTH",
"211 648 LINE",
"211 658 OFFCURVE",
"217 664 OFFCURVE",
"227 664 CURVE SMOOTH",
"337 664 OFFCURVE",
"395 664 OFFCURVE",
"422 640 CURVE SMOOTH",
"447 618 OFFCURVE",
"456 610 OFFCURVE",
"468 610 CURVE SMOOTH",
"479 610 OFFCURVE",
"483 620 OFFCURVE",
"483 628 CURVE",
"483 692 LINE SMOOTH",
"483 704 OFFCURVE",
"482 742 OFFCURVE",
"446 742 CURVE",
"75 742 LINE SMOOTH",
"67 742 OFFCURVE",
"61 737 OFFCURVE",
"61 731 CURVE SMOOTH",
"61 728 OFFCURVE",
"61 722 OFFCURVE",
"69 705 CURVE SMOOTH",
"87 665 OFFCURVE",
"100 633 OFFCURVE",
"100 438 CURVE SMOOTH",
"100 304 LINE SMOOTH",
"100 111 OFFCURVE",
"86 77 OFFCURVE",
"68 37 CURVE SMOOTH",
"60 20 OFFCURVE",
"60 14 OFFCURVE",
"60 11 CURVE SMOOTH",
"60 5 OFFCURVE",
"66 0 OFFCURVE",
"74 0 CURVE SMOOTH",
"236 0 LINE SMOOTH"
);
}
);
width = 501;
},
{
associatedMasterId = "8648B977-9A39-40CA-BC6D-5EEF213E062F";
layerId = "1D06DFEB-72FD-4AD7-AF63-654C17A8F23B";
name = bubble;
paths = (
{
closed = 1;
nodes = (
"41 792 OFFCURVE",
"11 766 OFFCURVE",
"11 731 CURVE SMOOTH",
"11 717 OFFCURVE",
"16 699 OFFCURVE",
"24 684 CURVE SMOOTH",
"45 637 OFFCURVE",
"50 591 OFFCURVE",
"50 438 CURVE SMOOTH",
"50 304 LINE SMOOTH",
"50 154 OFFCURVE",
"44 106 OFFCURVE",
"23 58 CURVE SMOOTH",
"10 43 OFFCURVE",
"0 25 OFFCURVE",
"0 11 CURVE SMOOTH",
"0 -24 OFFCURVE",
"34 -50 OFFCURVE",
"74 -50 CURVE SMOOTH",
"236 -50 LINE SMOOTH",
"270 -50 OFFCURVE",
"300 -24 OFFCURVE",
"300 11 CURVE SMOOTH",
"300 25 OFFCURVE",
"295 42 OFFCURVE",
"288 58 CURVE SMOOTH",
"260 119.996 OFFCURVE",
"260 204 OFFCURVE",
"260 307 CURVE SMOOTH",
"260 317 OFFCURVE",
"260 324 OFFCURVE",
"259 330 CURVE",
"294 327 OFFCURVE",
"325 322 OFFCURVE",
"329 317 CURVE SMOOTH",
"344 302 OFFCURVE",
"361 291 OFFCURVE",
"382 291 CURVE SMOOTH",
"414 291 OFFCURVE",
"439 319 OFFCURVE",
"439 350 CURVE SMOOTH",
"439 484 LINE SMOOTH",
"439 515 OFFCURVE",
"414 542 OFFCURVE",
"382 542 CURVE SMOOTH",
"364 542 OFFCURVE",
"349 533 OFFCURVE",
"334 521 CURVE SMOOTH",
"330 518 OFFCURVE",
"301 514 OFFCURVE",
"261 512 CURVE",
"261 614 LINE",
"357 613 OFFCURVE",
"381 609 OFFCURVE",
"389 603 CURVE SMOOTH",
"420 575 OFFCURVE",
"438.997 560 OFFCURVE",
"468 560 CURVE SMOOTH",
"487 560 OFFCURVE",
"501 591 OFFCURVE",
"501 628 CURVE SMOOTH",
"501 692 LINE SMOOTH",
"501 750 OFFCURVE",
"481 792 OFFCURVE",
"446 792 CURVE SMOOTH",
"75 792 LINE SMOOTH"
);
}
);
width = 501;
}
);
unicode = 0046;
},
{
glyphname = G;
lastChange = "2021-01-12 21:24:44 +0000";
layers = (
{
layerId = "8648B977-9A39-40CA-BC6D-5EEF213E062F";
paths = (
{
closed = 1;
nodes = (
"483 -10 OFFCURVE",
"598 148 OFFCURVE",
"598 267 CURVE SMOOTH",
"598 279 OFFCURVE",
"628 293 OFFCURVE",
"628 312 CURVE SMOOTH",
"628 323 OFFCURVE",
"619 337 OFFCURVE",
"601 337 CURVE SMOOTH",
"416 337 LINE SMOOTH",
"398 337 OFFCURVE",
"376 326 OFFCURVE",
"376 302 CURVE SMOOTH",
"376 246 OFFCURVE",
"460 273 OFFCURVE",
"460 218 CURVE SMOOTH",
"460 183 OFFCURVE",
"397 77 OFFCURVE",
"327 77 CURVE SMOOTH",
"225 77 OFFCURVE",
"167 166 OFFCURVE",
"167 358 CURVE SMOOTH",
"167 439 OFFCURVE",
"180 605 OFFCURVE",
"276 647 CURVE SMOOTH",
"296 656 OFFCURVE",
"308 661 OFFCURVE",
"345 661 CURVE SMOOTH",
"372 661 OFFCURVE",
"450 624 OFFCURVE",
"450 573 CURVE SMOOTH",
"450 567 OFFCURVE",
"449 561 OFFCURVE",
"447 554 CURVE SMOOTH",
"443 542 OFFCURVE",
"442 531 OFFCURVE",
"442 521 CURVE SMOOTH",
"442 478 OFFCURVE",
"475 457 OFFCURVE",
"517 457 CURVE SMOOTH",
"556 457 OFFCURVE",
"585 488 OFFCURVE",
"585 524 CURVE SMOOTH",
"585 575 OFFCURVE",
"552 742 OFFCURVE",
"334 742 CURVE SMOOTH",
"143 742 OFFCURVE",
"46 556 OFFCURVE",
"46 356 CURVE SMOOTH",
"46 169 OFFCURVE",
"141 -10 OFFCURVE",
"327 -10 CURVE SMOOTH"
);
}
);
width = 655;
},
{
associatedMasterId = "8648B977-9A39-40CA-BC6D-5EEF213E062F";
layerId = "6A5AD7E9-CB91-4FB8-BA4F-F7877B6ADD0A";
name = bubble;
paths = (
{
closed = 1;
nodes = (
"655 354 OFFCURVE",
"631 387 OFFCURVE",
"601 387 CURVE SMOOTH",
"416 387 LINE SMOOTH",
"367 387 OFFCURVE",
"326 351 OFFCURVE",
"326 302 CURVE SMOOTH",
"326 254 OFFCURVE",
"354 229 OFFCURVE",
"402 212 CURVE SMOOTH",
"405 211 OFFCURVE",
"407 211 OFFCURVE",
"409 210 CURVE",
"400 180 OFFCURVE",
"350 127 OFFCURVE",
"327 127 CURVE SMOOTH",
"255 127 OFFCURVE",
"217 199 OFFCURVE",
"217 358 CURVE SMOOTH",
"217 487 OFFCURVE",
"248 580 OFFCURVE",
"296 601 CURVE SMOOTH",
"316 610 OFFCURVE",
"320 611 OFFCURVE",
"345 611 CURVE SMOOTH",
"359 611 OFFCURVE",
"400 583 OFFCURVE",
"400 573 CURVE SMOOTH",
"400 572 OFFCURVE",
"400 571 OFFCURVE",
"399 568 CURVE SMOOTH",
"395 555 OFFCURVE",
"392 535 OFFCURVE",
"392 521 CURVE SMOOTH",
"392 453 OFFCURVE",
"444 407 OFFCURVE",
"517 407 CURVE SMOOTH",
"582 407 OFFCURVE",
"635 459 OFFCURVE",
"635 524 CURVE SMOOTH",
"635 580 OFFCURVE",
"593 792 OFFCURVE",
"334 792 CURVE SMOOTH",
"136 792 OFFCURVE",
"0 611 OFFCURVE",
"0 356 CURVE SMOOTH",
"0 114 OFFCURVE",
"134 -60 OFFCURVE",
"327 -60 CURVE SMOOTH",
"487 -60 OFFCURVE",
"638 90 OFFCURVE",
"648 251 CURVE",
"652 269 OFFCURVE",
"655 287 OFFCURVE",
"655 312 CURVE SMOOTH"
);
}
);
width = 655;
}
);
unicode = 0047;
},
{
glyphname = H;
lastChange = "2021-01-12 21:24:44 +0000";
layers = (
{
guideLines = (
{
position = "{9, 358}";
}
);
layerId = "8648B977-9A39-40CA-BC6D-5EEF213E062F";
paths = (
{
closed = 1;
nodes = (
"215 440 OFFCURVE",
"214 440 OFFCURVE",
"212 442 CURVE SMOOTH",
"210 444 OFFCURVE",
"210 455 OFFCURVE",
"210 457 CURVE SMOOTH",
"210 635 OFFCURVE",
"223 665 OFFCURVE",
"241 705 CURVE SMOOTH",
"249 722 OFFCURVE",
"249 728 OFFCURVE",
"249 731 CURVE SMOOTH",
"249 737 OFFCURVE",
"243 742 OFFCURVE",
"235 742 CURVE SMOOTH",
"75 742 LINE SMOOTH",
"67 742 OFFCURVE",
"61 737 OFFCURVE",
"61 731 CURVE SMOOTH",
"61 728 OFFCURVE",
"61 722 OFFCURVE",
"69 705 CURVE SMOOTH",
"87 665 OFFCURVE",
"100 633 OFFCURVE",
"100 438 CURVE SMOOTH",
"100 304 LINE SMOOTH",
"100 111 OFFCURVE",
"86 77 OFFCURVE",
"68 37 CURVE SMOOTH",
"60 20 OFFCURVE",
"60 14 OFFCURVE",
"60 11 CURVE SMOOTH",
"60 5 OFFCURVE",
"66 0 OFFCURVE",
"74 0 CURVE SMOOTH",
"236 0 LINE SMOOTH",
"244 0 OFFCURVE",
"250 5 OFFCURVE",
"250 11 CURVE SMOOTH",
"250 14 OFFCURVE",
"250 20 OFFCURVE",
"242 37 CURVE SMOOTH",
"224 77 OFFCURVE",
"210 111 OFFCURVE",
"210 304 CURVE SMOOTH",
"210 326 LINE SMOOTH",
"210 335 OFFCURVE",
"211 346 OFFCURVE",
"213 348 CURVE SMOOTH",
"215 350 OFFCURVE",
"216 350 OFFCURVE",
"219 350 CURVE SMOOTH",
"238 350 OFFCURVE",
"386 350 OFFCURVE",
"405 350 CURVE SMOOTH",
"408 350 OFFCURVE",
"409 350 OFFCURVE",
"411 348 CURVE SMOOTH",
"413 346 OFFCURVE",
"414 335 OFFCURVE",
"414 326 CURVE SMOOTH",
"414 304 LINE SMOOTH",
"414 111 OFFCURVE",
"400 77 OFFCURVE",
"382 37 CURVE SMOOTH",
"374 20 OFFCURVE",
"374 14 OFFCURVE",
"374 11 CURVE SMOOTH",
"374 5 OFFCURVE",
"380 0 OFFCURVE",
"388 0 CURVE SMOOTH",
"550 0 LINE SMOOTH",
"558 0 OFFCURVE",
"564 5 OFFCURVE",
"564 11 CURVE SMOOTH",
"564 14 OFFCURVE",
"564 20 OFFCURVE",
"556 37 CURVE SMOOTH",
"538 77 OFFCURVE",
"524 111 OFFCURVE",
"524 304 CURVE SMOOTH",
"524 438 LINE SMOOTH",
"524 633 OFFCURVE",
"537 665 OFFCURVE",
"555 705 CURVE SMOOTH",
"563 722 OFFCURVE",
"563 728 OFFCURVE",
"563 731 CURVE SMOOTH",
"563 737 OFFCURVE",
"557 742 OFFCURVE",
"549 742 CURVE SMOOTH",
"389 742 LINE SMOOTH",
"381 742 OFFCURVE",
"375 737 OFFCURVE",
"375 731 CURVE SMOOTH",
"375 728 OFFCURVE",
"375 722 OFFCURVE",
"383 705 CURVE SMOOTH",
"401 665 OFFCURVE",
"414 635 OFFCURVE",
"414 457 CURVE SMOOTH",
"414 455 OFFCURVE",
"414 444 OFFCURVE",
"412 442 CURVE SMOOTH",
"410 440 OFFCURVE",
"409 440 OFFCURVE",
"406 440 CURVE SMOOTH",
"383 440 OFFCURVE",
"241 440 OFFCURVE",
"218 440 CURVE SMOOTH"
);
}
);
width = 624;
},
{
associatedMasterId = "8648B977-9A39-40CA-BC6D-5EEF213E062F";
layerId = "775958A0-47C4-44B5-91E0-3EFA32FB07EC";
name = bubble;
paths = (
{
closed = 1;
nodes = (
"580 106 OFFCURVE",
"574 154 OFFCURVE",
"574 304 CURVE SMOOTH",
"574 438 LINE SMOOTH",
"574 591 OFFCURVE",
"579 637 OFFCURVE",
"600 684 CURVE SMOOTH",
"608 699 OFFCURVE",
"613 717 OFFCURVE",
"613 731 CURVE SMOOTH",
"613 766 OFFCURVE",
"583 792 OFFCURVE",
"549 792 CURVE SMOOTH",
"389 792 LINE SMOOTH",
"355 792 OFFCURVE",
"325 766 OFFCURVE",
"325 731 CURVE SMOOTH",
"325 717 OFFCURVE",
"330 699 OFFCURVE",
"338 684 CURVE SMOOTH",
"357 641 OFFCURVE",
"363 603 OFFCURVE",
"364 490 CURVE",
"260 490 LINE",
"261 603 OFFCURVE",
"267 641 OFFCURVE",
"286 684 CURVE SMOOTH",
"294 699 OFFCURVE",
"299 717 OFFCURVE",
"299 731 CURVE SMOOTH",
"299 766 OFFCURVE",
"269 792 OFFCURVE",
"235 792 CURVE SMOOTH",
"75 792 LINE SMOOTH",
"41 792 OFFCURVE",
"11 766 OFFCURVE",
"11 731 CURVE SMOOTH",
"11 717 OFFCURVE",
"16 699 OFFCURVE",
"24 684 CURVE SMOOTH",
"45 637 OFFCURVE",
"50 591 OFFCURVE",
"50 438 CURVE SMOOTH",
"50 304 LINE SMOOTH",
"50 154 OFFCURVE",
"44 106 OFFCURVE",
"23 58 CURVE SMOOTH",
"10 43 OFFCURVE",
"0 25 OFFCURVE",
"0 11 CURVE SMOOTH",
"0 -24 OFFCURVE",
"34 -50 OFFCURVE",
"74 -50 CURVE SMOOTH",
"236 -50 LINE SMOOTH",
"270 -50 OFFCURVE",
"300 -24 OFFCURVE",
"300 11 CURVE SMOOTH",
"300 25 OFFCURVE",
"295 43 OFFCURVE",
"287 58 CURVE SMOOTH",
"266 106 OFFCURVE",
"260 153 OFFCURVE",
"260.001 300 CURVE",
"363.999 300 LINE",
"364 153 OFFCURVE",
"358 106 OFFCURVE",
"337 58 CURVE SMOOTH",
"329 43 OFFCURVE",
"324 25 OFFCURVE",
"324 11 CURVE SMOOTH",
"324 -24 OFFCURVE",
"354 -50 OFFCURVE",
"388 -50 CURVE SMOOTH",
"550 -50 LINE SMOOTH",
"590 -50 OFFCURVE",
"624 -24 OFFCURVE",
"624 11 CURVE SMOOTH",
"624 25 OFFCURVE",
"614 43 OFFCURVE",
"601 58 CURVE SMOOTH"
);
}
);
width = 624;
}
);
leftKerningGroup = H;
rightKerningGroup = H;
unicode = 0048;
},
{
glyphname = I;
lastChange = "2021-01-12 21:24:44 +0000";
layers = (
{
layerId = "8648B977-9A39-40CA-BC6D-5EEF213E062F";
paths = (
{
closed = 1;
nodes = (
"244 0 OFFCURVE",
"250 5 OFFCURVE",
"250 11 CURVE SMOOTH",
"250 14 OFFCURVE",
"250 20 OFFCURVE",
"242 37 CURVE SMOOTH",
"224 77 OFFCURVE",
"210 111 OFFCURVE",
"210 304 CURVE SMOOTH",
"210 438 LINE SMOOTH",
"210 633 OFFCURVE",
"223 665 OFFCURVE",
"241 705 CURVE SMOOTH",
"249 722 OFFCURVE",
"249 728 OFFCURVE",
"249 731 CURVE SMOOTH",
"249 737 OFFCURVE",
"243 742 OFFCURVE",
"235 742 CURVE SMOOTH",
"75 742 LINE SMOOTH",
"67 742 OFFCURVE",
"61 737 OFFCURVE",
"61 731 CURVE SMOOTH",
"61 728 OFFCURVE",
"61 722 OFFCURVE",
"69 705 CURVE SMOOTH",
"87 665 OFFCURVE",
"100 633 OFFCURVE",
"100 438 CURVE SMOOTH",
"100 304 LINE SMOOTH",
"100 111 OFFCURVE",
"86 77 OFFCURVE",
"68 37 CURVE SMOOTH",
"60 20 OFFCURVE",
"60 14 OFFCURVE",
"60 11 CURVE SMOOTH",
"60 5 OFFCURVE",
"66 0 OFFCURVE",
"74 0 CURVE SMOOTH",
"236 0 LINE SMOOTH"
);
}
);
width = 310;
},
{
associatedMasterId = "8648B977-9A39-40CA-BC6D-5EEF213E062F";
layerId = "829BF7C0-482B-4AB4-97EE-383801687F99";
name = bubble;
paths = (
{
closed = 1;
nodes = (
"276 -50 OFFCURVE",
"310 -24 OFFCURVE",
"310 11 CURVE SMOOTH",
"310 25 OFFCURVE",
"300 43 OFFCURVE",
"287 58 CURVE SMOOTH",
"266 106 OFFCURVE",
"260 154 OFFCURVE",
"260 304 CURVE SMOOTH",
"260 438 LINE SMOOTH",
"260 591 OFFCURVE",
"265 637 OFFCURVE",
"286 684 CURVE SMOOTH",
"294 699 OFFCURVE",
"299 717 OFFCURVE",
"299 731 CURVE SMOOTH",
"299 766 OFFCURVE",
"269 792 OFFCURVE",
"235 792 CURVE SMOOTH",
"75 792 LINE SMOOTH",
"41 792 OFFCURVE",
"11 766 OFFCURVE",
"11 731 CURVE SMOOTH",
"11 717 OFFCURVE",
"16 699 OFFCURVE",
"24 684 CURVE SMOOTH",
"45 637 OFFCURVE",
"50 591 OFFCURVE",
"50 438 CURVE SMOOTH",
"50 304 LINE SMOOTH",
"50 154 OFFCURVE",
"44 106 OFFCURVE",
"23 58 CURVE SMOOTH",
"10 43 OFFCURVE",
"0 25 OFFCURVE",
"0 11 CURVE SMOOTH",
"0 -24 OFFCURVE",
"34 -50 OFFCURVE",
"74 -50 CURVE SMOOTH",
"236 -50 LINE SMOOTH"
);
}
);
width = 310;
}
);
unicode = 0049;
},
{
glyphname = J;
lastChange = "2021-01-12 21:24:44 +0000";
layers = (
{
layerId = "8648B977-9A39-40CA-BC6D-5EEF213E062F";
paths = (
{
closed = 1;
nodes = (
"276 760 OFFCURVE",
"268 753 OFFCURVE",
"268 744 CURVE SMOOTH",
"268 739 OFFCURVE",
"271 729 OFFCURVE",
"276 724 CURVE SMOOTH",
"304 688 OFFCURVE",
"306 556 OFFCURVE",
"306 555 CURVE SMOOTH",
"306 251 LINE",
"306 89 OFFCURVE",
"256 70 OFFCURVE",
"226 70 CURVE SMOOTH",
"200 70 OFFCURVE",
"141 70 OFFCURVE",
"141 143 CURVE SMOOTH",
"141 158 OFFCURVE",
"153 167 OFFCURVE",
"153 195 CURVE SMOOTH",
"153 220 OFFCURVE",
"139 246 OFFCURVE",
"84 246 CURVE SMOOTH",
"52 246 OFFCURVE",
"20 219 OFFCURVE",
"20 179 CURVE SMOOTH",
"20 72 OFFCURVE",
"94 -10 OFFCURVE",
"222 -10 CURVE SMOOTH",
"358 -10 OFFCURVE",
"416 67 OFFCURVE",
"416 195 CURVE",
"416 555 LINE SMOOTH",
"416 556 OFFCURVE",
"418 688 OFFCURVE",
"446 724 CURVE SMOOTH",
"451 729 OFFCURVE",
"454 739 OFFCURVE",
"454 744 CURVE SMOOTH",
"454 753 OFFCURVE",
"446 760 OFFCURVE",
"428 760 CURVE",
"294 760 LINE SMOOTH"
);
}
);
width = 504;
},
{
associatedMasterId = "8648B977-9A39-40CA-BC6D-5EEF213E062F";
layerId = "14F7DB54-AF29-4D10-9705-9B73E6EEA661";
name = bubble;
paths = (
{
closed = 1;
nodes = (
"252.997 810 OFFCURVE",
"218 786 OFFCURVE",
"218 744 CURVE SMOOTH",
"218 726 OFFCURVE",
"225 706 OFFCURVE",
"237 692 CURVE",
"254 668 OFFCURVE",
"256 556 OFFCURVE",
"256 555 CURVE SMOOTH",
"256 251 LINE SMOOTH",
"256 158 OFFCURVE",
"238 120 OFFCURVE",
"226 120 CURVE SMOOTH",
"196.005 120 OFFCURVE",
"191 122 OFFCURVE",
"191 140 CURVE",
"191 140 OFFCURVE",
"192 141 OFFCURVE",
"192 142 CURVE SMOOTH",
"199 159 OFFCURVE",
"203 178 OFFCURVE",
"203 195 CURVE SMOOTH",
"203 259 OFFCURVE",
"154 296 OFFCURVE",
"84 296 CURVE SMOOTH",
"38 296 OFFCURVE",
"0 243 OFFCURVE",
"0 179 CURVE SMOOTH",
"0 38 OFFCURVE",
"91 -60 OFFCURVE",
"222 -60 CURVE SMOOTH",
"379 -60 OFFCURVE",
"466 31 OFFCURVE",
"466 195 CURVE SMOOTH",
"466 555 LINE SMOOTH",
"466 556 OFFCURVE",
"468 668 OFFCURVE",
"485 692 CURVE",
"497 706 OFFCURVE",
"504 726 OFFCURVE",
"504 744 CURVE SMOOTH",
"504 786 OFFCURVE",
"469.003 810 OFFCURVE",
"428 810 CURVE SMOOTH",
"294 810 LINE SMOOTH"
);
}
);
width = 504;
}
);
unicode = 004A;
},
{
glyphname = K;
lastChange = "2021-01-12 21:24:44 +0000";
layers = (
{
layerId = "8648B977-9A39-40CA-BC6D-5EEF213E062F";
paths = (
{
closed = 1;
nodes = (
"210 633 OFFCURVE",
"223 665 OFFCURVE",
"241 705 CURVE SMOOTH",
"249 722 OFFCURVE",
"249 728 OFFCURVE",
"249 731 CURVE SMOOTH",
"249 737 OFFCURVE",
"243 742 OFFCURVE",
"235 742 CURVE SMOOTH",
"75 742 LINE SMOOTH",
"67 742 OFFCURVE",
"61 737 OFFCURVE",
"61 731 CURVE SMOOTH",
"61 728 OFFCURVE",
"61 722 OFFCURVE",
"69 705 CURVE SMOOTH",
"87 665 OFFCURVE",
"100 633 OFFCURVE",
"100 438 CURVE SMOOTH",
"100 304 LINE SMOOTH",
"100 111 OFFCURVE",
"86 77 OFFCURVE",
"68 37 CURVE SMOOTH",
"60 20 OFFCURVE",
"60 14 OFFCURVE",
"60 11 CURVE SMOOTH",
"60 5 OFFCURVE",
"66 0 OFFCURVE",
"74 0 CURVE SMOOTH",
"235 0 LINE SMOOTH",
"243 0 OFFCURVE",
"249 5 OFFCURVE",
"249 11 CURVE SMOOTH",
"249 14 OFFCURVE",
"249 20 OFFCURVE",
"241 37 CURVE SMOOTH",
"223 77 OFFCURVE",
"209 109 OFFCURVE",
"209 293 CURVE SMOOTH",
"209 296 OFFCURVE",
"210 297 OFFCURVE",
"213 297 CURVE SMOOTH",
"247 297 OFFCURVE",
"319 78 OFFCURVE",
"330 42 CURVE SMOOTH",
"342 3 OFFCURVE",
"366 0 OFFCURVE",
"370 0 CURVE SMOOTH",
"496 0 LINE SMOOTH",
"514 0 OFFCURVE",
"515 16 OFFCURVE",
"515 21 CURVE SMOOTH",
"515 27 OFFCURVE",
"514 37 OFFCURVE",
"505 42 CURVE",
"471 56 OFFCURVE",
"458 75 OFFCURVE",
"423 128 CURVE SMOOTH",
"381 191 OFFCURVE",
"316 353 OFFCURVE",
"316 374 CURVE SMOOTH",
"316 399 OFFCURVE",
"499 669 OFFCURVE",
"499 723 CURVE SMOOTH",
"499 730 OFFCURVE",
"494 742 OFFCURVE",
"478 742 CURVE SMOOTH",
"342 742 LINE SMOOTH",
"330 742 OFFCURVE",
"316 742 OFFCURVE",
"316 724 CURVE SMOOTH",
"316 696 OFFCURVE",
"356 702 OFFCURVE",
"356 660 CURVE SMOOTH",
"356 601 OFFCURVE",
"248 402 OFFCURVE",
"214 402 CURVE SMOOTH",
"213 402 OFFCURVE",
"210 403 OFFCURVE",
"210 408 CURVE",
"210 438 LINE SMOOTH"
);
}
);
width = 534;
},
{
associatedMasterId = "8648B977-9A39-40CA-BC6D-5EEF213E062F";
layerId = "DBE84403-3197-45BC-8BC2-0BA7800BB0A2";
name = bubble;
paths = (
{
closed = 1;
nodes = (
"504 97 OFFCURVE",
"498 105 OFFCURVE",
"465 156 CURVE SMOOTH",
"429 209 OFFCURVE",
"377 335 OFFCURVE",
"368 367 CURVE",
"372 376 OFFCURVE",
"386 405 OFFCURVE",
"425 469 CURVE SMOOTH",
"492 598 OFFCURVE",
"534 680 OFFCURVE",
"534 723 CURVE SMOOTH",
"534 762 OFFCURVE",
"509 792 OFFCURVE",
"478 792 CURVE SMOOTH",
"342 792 LINE SMOOTH",
"318 792 OFFCURVE",
"297 785 OFFCURVE",
"284 771 CURVE",
"272 784 OFFCURVE",
"254 792 OFFCURVE",
"235 792 CURVE SMOOTH",
"75 792 LINE SMOOTH",
"41 792 OFFCURVE",
"11 766 OFFCURVE",
"11 731 CURVE SMOOTH",
"11 717 OFFCURVE",
"16 699 OFFCURVE",
"24 684 CURVE SMOOTH",
"45 637 OFFCURVE",
"50 591 OFFCURVE",
"50 438 CURVE SMOOTH",
"50 304 LINE SMOOTH",
"50 154 OFFCURVE",
"44 106 OFFCURVE",
"23 58 CURVE SMOOTH",
"10 43 OFFCURVE",
"0 25 OFFCURVE",
"0 11 CURVE SMOOTH",
"0 -24 OFFCURVE",
"34 -50 OFFCURVE",
"74 -50 CURVE SMOOTH",
"235 -50 LINE SMOOTH",
"264 -50 OFFCURVE",
"290 -32 OFFCURVE",
"297 -5 CURVE",
"314 -31 OFFCURVE",
"339 -50 OFFCURVE",
"370 -50 CURVE SMOOTH",
"496 -50 LINE SMOOTH",
"518 -50 OFFCURVE",
"534 -19 OFFCURVE",
"534 21 CURVE SMOOTH",
"534 50.997 OFFCURVE",
"529 79 OFFCURVE",
"520 90 CURVE SMOOTH"
);
}
);
width = 534;
}
);
unicode = 004B;
},
{
glyphname = L;
lastChange = "2021-01-12 21:24:44 +0000";
layers = (
{
layerId = "8648B977-9A39-40CA-BC6D-5EEF213E062F";
paths = (
{
closed = 1;
nodes = (
"470 0 LINE",
"506 0 OFFCURVE",
"507 32 OFFCURVE",
"507 44 CURVE SMOOTH",
"507 126 LINE",
"507 134 OFFCURVE",
"503 144 OFFCURVE",
"492 144 CURVE SMOOTH",
"480 144 OFFCURVE",
"471 137 OFFCURVE",
"446 114 CURVE SMOOTH",
"420 91 OFFCURVE",
"351 90 OFFCURVE",
"226 90 CURVE SMOOTH",
"223 90 OFFCURVE",
"213 90 OFFCURVE",
"209 94 CURVE SMOOTH",
"206 97 OFFCURVE",
"205 103 OFFCURVE",
"205 109 CURVE",
"205 537 LINE SMOOTH",
"205 646 OFFCURVE",
"205 685 OFFCURVE",
"205 709 CURVE SMOOTH",
"205 737 OFFCURVE",
"174 742 OFFCURVE",
"162 742 CURVE",
"85 742 LINE SMOOTH",
"58 742 OFFCURVE",
"52 737 OFFCURVE",
"69 705 CURVE SMOOTH",
"90 666 OFFCURVE",
"100 633 OFFCURVE",
"100 438 CURVE SMOOTH",
"100 304 LINE SMOOTH",
"100 111 OFFCURVE",
"86 77 OFFCURVE",
"68 37 CURVE SMOOTH",
"60 20 OFFCURVE",
"60 14 OFFCURVE",
"60 11 CURVE SMOOTH",
"60 5 OFFCURVE",
"66 0 OFFCURVE",
"74 0 CURVE SMOOTH"
);
}
);
width = 526;
},
{
associatedMasterId = "8648B977-9A39-40CA-BC6D-5EEF213E062F";
layerId = "23E9C93C-8026-411D-8FF8-D778F2B790BD";
name = bubble;
paths = (
{
closed = 1;
nodes = (
"463 194 OFFCURVE",
"443 179 OFFCURVE",
"413 151 CURVE SMOOTH",
"406 145 OFFCURVE",
"367 141 OFFCURVE",
"255 140 CURVE",
"255 709 LINE SMOOTH",
"255 759 OFFCURVE",
"213 792 OFFCURVE",
"162 792 CURVE SMOOTH",
"85 792 LINE SMOOTH",
"16 792 OFFCURVE",
"-9 744 OFFCURVE",
"25 681 CURVE SMOOTH",
"45 644 OFFCURVE",
"50 602 OFFCURVE",
"50 438 CURVE SMOOTH",
"50 304 LINE SMOOTH",
"50 154 OFFCURVE",
"44 106 OFFCURVE",
"23 58 CURVE SMOOTH",
"10 43 OFFCURVE",
"0 25 OFFCURVE",
"0 11 CURVE SMOOTH",
"0 -24 OFFCURVE",
"34 -50 OFFCURVE",
"74 -50 CURVE SMOOTH",
"470 -50 LINE SMOOTH",
"505 -50 OFFCURVE",
"526 -12 OFFCURVE",
"526 44 CURVE SMOOTH",
"526 126 LINE SMOOTH",
"526 163 OFFCURVE",
"512 194 OFFCURVE",
"492 194 CURVE SMOOTH"
);
}
);
width = 526;
}
);
unicode = 004C;
},
{
glyphname = M;
lastChange = "2021-01-12 21:24:44 +0000";
layers = (
{
layerId = "8648B977-9A39-40CA-BC6D-5EEF213E062F";
paths = (
{
closed = 1;
nodes = (
"673 0 LINE SMOOTH",
"681 0 OFFCURVE",
"687 5 OFFCURVE",
"687 11 CURVE SMOOTH",
"687 14 OFFCURVE",
"687 20 OFFCURVE",
"679 37 CURVE SMOOTH",
"661 77 OFFCURVE",
"647 111 OFFCURVE",
"647 304 CURVE SMOOTH",
"647 438 LINE SMOOTH",
"647 633 OFFCURVE",
"647 665 OFFCURVE",
"665 705 CURVE SMOOTH",
"673 722 OFFCURVE",
"673 728 OFFCURVE",
"673 731 CURVE SMOOTH",
"673 737 OFFCURVE",
"667 742 OFFCURVE",
"659 742 CURVE SMOOTH",
"576 742 LINE SMOOTH",
"545 742 OFFCURVE",
"530 701 OFFCURVE",
"520 673 CURVE SMOOTH",
"477 552 OFFCURVE",
"405 384 OFFCURVE",
"368 384 CURVE SMOOTH",
"340 384 OFFCURVE",
"263 566 OFFCURVE",
"225 673 CURVE SMOOTH",
"215 701 OFFCURVE",
"200 742 OFFCURVE",
"163 742 CURVE SMOOTH",
"86 742 LINE SMOOTH",
"78 742 OFFCURVE",
"72 737 OFFCURVE",
"72 731 CURVE SMOOTH",
"72 728 OFFCURVE",
"72 722 OFFCURVE",
"80 705 CURVE SMOOTH",
"98 665 OFFCURVE",
"98 633 OFFCURVE",
"98 438 CURVE SMOOTH",
"98 304 LINE SMOOTH",
"98 111 OFFCURVE",
"84 77 OFFCURVE",
"66 37 CURVE SMOOTH",
"58 20 OFFCURVE",
"58 14 OFFCURVE",
"58 11 CURVE SMOOTH",
"58 5 OFFCURVE",
"64 0 OFFCURVE",
"72 0 CURVE SMOOTH",
"235 0 LINE SMOOTH",
"243 0 OFFCURVE",
"248 5 OFFCURVE",
"248 11 CURVE SMOOTH",
"248 14 OFFCURVE",
"248 20 OFFCURVE",
"240 37 CURVE SMOOTH",
"222 77 OFFCURVE",
"208 111 OFFCURVE",
"208 304 CURVE SMOOTH",
"208 487 LINE",
"208 488 OFFCURVE",
"208 489 OFFCURVE",
"209 489 CURVE SMOOTH",
"211 489 OFFCURVE",
"211 489 OFFCURVE",
"213 483 CURVE",
"251 372 OFFCURVE",
"303 246 OFFCURVE",
"362 246 CURVE SMOOTH",
"409 246 OFFCURVE",
"477 361 OFFCURVE",
"532 483 CURVE",
"534 489 OFFCURVE",
"534 489 OFFCURVE",
"536 489 CURVE SMOOTH",
"537 489 OFFCURVE",
"537 488 OFFCURVE",
"537 487 CURVE SMOOTH",
"537 304 LINE SMOOTH",
"537 111 OFFCURVE",
"523 77 OFFCURVE",
"505 37 CURVE SMOOTH",
"497 20 OFFCURVE",
"497 14 OFFCURVE",
"497 11 CURVE SMOOTH",
"497 5 OFFCURVE",
"502 0 OFFCURVE",
"510 0 CURVE SMOOTH"
);
}
);
width = 745;
},
{
associatedMasterId = "8648B977-9A39-40CA-BC6D-5EEF213E062F";
layerId = "8BAD0FF9-2D24-49BA-963E-904375032799";
name = bubble;
paths = (
{
closed = 1;
nodes = (
"703 106 OFFCURVE",
"697 154 OFFCURVE",
"697 304 CURVE SMOOTH",
"697 438 LINE SMOOTH",
"697 643 OFFCURVE",
"698 656 OFFCURVE",
"710 684 CURVE SMOOTH",
"718 699 OFFCURVE",
"723 717 OFFCURVE",
"723 731 CURVE SMOOTH",
"723 766 OFFCURVE",
"693 792 OFFCURVE",
"659 792 CURVE SMOOTH",
"576 792 LINE SMOOTH",
"522 792 OFFCURVE",
"494 750 OFFCURVE",
"473 690 CURVE SMOOTH",
"462 658 OFFCURVE",
"400 511 OFFCURVE",
"377 455 CURVE",
"366 492 OFFCURVE",
"313 574 OFFCURVE",
"272 690 CURVE SMOOTH",
"250 752 OFFCURVE",
"219 792 OFFCURVE",
"163 792 CURVE SMOOTH",
"86 792 LINE SMOOTH",
"52 792 OFFCURVE",
"22 766 OFFCURVE",
"22 731 CURVE SMOOTH",
"22 717 OFFCURVE",
"27 699 OFFCURVE",
"35 684 CURVE SMOOTH",
"47 656 OFFCURVE",
"48 643 OFFCURVE",
"48 438 CURVE SMOOTH",
"48 304 LINE SMOOTH",
"48 154 OFFCURVE",
"42 106 OFFCURVE",
"21 58 CURVE SMOOTH",
"9 43 OFFCURVE",
"0 25 OFFCURVE",
"0 11 CURVE SMOOTH",
"0 -24 OFFCURVE",
"33 -50 OFFCURVE",
"72 -50 CURVE SMOOTH",
"235 -50 LINE SMOOTH",
"269 -50 OFFCURVE",
"298 -24 OFFCURVE",
"298 11 CURVE SMOOTH",
"298 25 OFFCURVE",
"293 43 OFFCURVE",
"285 58 CURVE SMOOTH",
"266 101 OFFCURVE",
"259 145 OFFCURVE",
"258 263 CURVE",
"288 220 OFFCURVE",
"322 196 OFFCURVE",
"362 196 CURVE SMOOTH",
"405 196 OFFCURVE",
"447 233 OFFCURVE",
"487 292 CURVE",
"487 152 OFFCURVE",
"481 105 OFFCURVE",
"460 58 CURVE SMOOTH",
"452 43 OFFCURVE",
"447 25 OFFCURVE",
"447 11 CURVE SMOOTH",
"447 -24 OFFCURVE",
"476 -50 OFFCURVE",
"510 -50 CURVE SMOOTH",
"673 -50 LINE SMOOTH",
"712 -50 OFFCURVE",
"745 -24 OFFCURVE",
"745 11 CURVE SMOOTH",
"745 25 OFFCURVE",
"736 43 OFFCURVE",
"724 58 CURVE SMOOTH"
);
}
);
width = 745;
}
);
unicode = 004D;
},
{
glyphname = N;
lastChange = "2021-01-12 21:32:58 +0000";
layers = (
{
layerId = "8648B977-9A39-40CA-BC6D-5EEF213E062F";
paths = (
{
closed = 1;
nodes = (
"440 223 LINE",
"440 222 OFFCURVE",
"440 221 OFFCURVE",
"439 221 CURVE SMOOTH",
"431 221 OFFCURVE",
"329 435 OFFCURVE",
"225 673 CURVE SMOOTH",
"216 694 OFFCURVE",
"195 742 OFFCURVE",
"163 742 CURVE SMOOTH",
"86 742 LINE SMOOTH",
"78 742 OFFCURVE",
"72 737 OFFCURVE",
"72 731 CURVE SMOOTH",
"72 728 OFFCURVE",
"72 722 OFFCURVE",
"80 705 CURVE SMOOTH",
"98 665 OFFCURVE",
"98 633 OFFCURVE",
"98 438 CURVE SMOOTH",
"98 304 LINE SMOOTH",
"98 111 OFFCURVE",
"84 77 OFFCURVE",
"66 37 CURVE SMOOTH",
"58 20 OFFCURVE",
"58 14 OFFCURVE",
"58 11 CURVE SMOOTH",
"58 5 OFFCURVE",
"64 0 OFFCURVE",
"72 0 CURVE SMOOTH",
"235 0 LINE SMOOTH",
"243 0 OFFCURVE",
"248 5 OFFCURVE",
"248 11 CURVE SMOOTH",
"248 14 OFFCURVE",
"248 20 OFFCURVE",
"240 37 CURVE SMOOTH",
"222 77 OFFCURVE",
"208 111 OFFCURVE",
"208 304 CURVE SMOOTH",
"208 487 LINE",
"208 488 OFFCURVE",
"208 489 OFFCURVE",
"209 489 CURVE SMOOTH",
"210 489 OFFCURVE",
"210 489 OFFCURVE",
"213 483 CURVE",
"279 328 OFFCURVE",
"365 131 OFFCURVE",
"429 45 CURVE SMOOTH",
"450 17 OFFCURVE",
"468 0 OFFCURVE",
"483 0 CURVE SMOOTH",
"522 0 LINE SMOOTH",
"543 0 OFFCURVE",
"549 0 OFFCURVE",
"549 21 CURVE SMOOTH",
"549 34 OFFCURVE",
"549 48 OFFCURVE",
"549 304 CURVE SMOOTH",
"549 438 LINE SMOOTH",
"549 632 OFFCURVE",
"549 665 OFFCURVE",
"567 705 CURVE SMOOTH",
"575 722 OFFCURVE",
"575 728 OFFCURVE",
"575 731 CURVE SMOOTH",
"575 737 OFFCURVE",
"569 742 OFFCURVE",
"561 742 CURVE SMOOTH",
"413 742 LINE SMOOTH",
"405 742 OFFCURVE",
"400 737 OFFCURVE",
"400 731 CURVE SMOOTH",
"400 728 OFFCURVE",
"400 722 OFFCURVE",
"408 705 CURVE SMOOTH",
"426 665 OFFCURVE",
"440 633 OFFCURVE",
"440 449 CURVE SMOOTH"
);
}
);
width = 642;
},
{
associatedMasterId = "8648B977-9A39-40CA-BC6D-5EEF213E062F";
layerId = "EA2D6607-0E03-4E5D-B08E-DB2DD47282A3";
name = bubble;
paths = (
{
closed = 1;
nodes = (
"379 792 OFFCURVE",
"350 766 OFFCURVE",
"350 731 CURVE SMOOTH",
"350 717 OFFCURVE",
"355 699 OFFCURVE",
"363 684 CURVE SMOOTH",
"384 636 OFFCURVE",
"390 592 OFFCURVE",
"390 449 CURVE SMOOTH",
"390 449 LINE SMOOTH",
"342 555 OFFCURVE",
"280 673 OFFCURVE",
"271 693 CURVE SMOOTH",
"247 750 OFFCURVE",
"214 792 OFFCURVE",
"163 792 CURVE SMOOTH",
"86 792 LINE SMOOTH",
"52 792 OFFCURVE",
"22 766 OFFCURVE",
"22 731 CURVE SMOOTH",
"22 717 OFFCURVE",
"27 699 OFFCURVE",
"35 684 CURVE SMOOTH",
"47 656 OFFCURVE",
"48 643 OFFCURVE",
"48 438 CURVE SMOOTH",
"48 304 LINE SMOOTH",
"48 154 OFFCURVE",
"42 106 OFFCURVE",
"21 58 CURVE SMOOTH",
"9 43 OFFCURVE",
"0 25 OFFCURVE",
"0 11 CURVE SMOOTH",
"0 -24 OFFCURVE",
"33 -50 OFFCURVE",
"72 -50 CURVE SMOOTH",
"235 -50 LINE SMOOTH",
"269 -50 OFFCURVE",
"298 -24 OFFCURVE",
"298 11 CURVE SMOOTH",
"298 25 OFFCURVE",
"293 43 OFFCURVE",
"285 58 CURVE SMOOTH",
"266 100 OFFCURVE",
"260 143 OFFCURVE",
"258 256 CURVE",
"303 159 OFFCURVE",
"350 68 OFFCURVE",
"389 15 CURVE SMOOTH",
"418 -24 OFFCURVE",
"447 -50 OFFCURVE",
"483 -50 CURVE SMOOTH",
"522 -50 LINE SMOOTH",
"572 -50 OFFCURVE",
"599 -29 OFFCURVE",
"599 21 CURVE SMOOTH",
"599 438 LINE SMOOTH",
"599 642 OFFCURVE",
"600 656 OFFCURVE",
"612 684 CURVE SMOOTH",
"629 699 OFFCURVE",
"642 717 OFFCURVE",
"642 731 CURVE SMOOTH",
"642 766 OFFCURVE",
"604 792 OFFCURVE",
"561 792 CURVE SMOOTH",
"413 792 LINE SMOOTH"
);
}
);
width = 642;
}
);
unicode = 004E;
},
{
glyphname = O;
lastChange = "2021-01-12 21:24:44 +0000";
layers = (
{
layerId = "8648B977-9A39-40CA-BC6D-5EEF213E062F";
paths = (
{
closed = 1;
nodes = (
"522 -9 OFFCURVE",
"643 159 OFFCURVE",
"643 375 CURVE SMOOTH",
"643 594 OFFCURVE",
"522 747 OFFCURVE",
"346 747 CURVE SMOOTH",
"160 747 OFFCURVE",
"46 594 OFFCURVE",
"46 377 CURVE SMOOTH",
"46 159 OFFCURVE",
"160 -9 OFFCURVE",
"346 -9 CURVE SMOOTH"
);
},
{
closed = 1;
nodes = (
"156 555 OFFCURVE",
"244 670 OFFCURVE",
"346 670 CURVE SMOOTH",
"448 670 OFFCURVE",
"533 555 OFFCURVE",
"533 375 CURVE SMOOTH",
"533 189 OFFCURVE",
"448 70 OFFCURVE",
"346 70 CURVE SMOOTH",
"244 70 OFFCURVE",
"156 189 OFFCURVE",
"156 375 CURVE SMOOTH"
);
}
);
width = 688;
},
{
associatedMasterId = "8648B977-9A39-40CA-BC6D-5EEF213E062F";
layerId = "4A300C6E-78DD-4C32-94CD-FEF3F720D2C9";
name = bubble;
paths = (
{
closed = 1;
nodes = (
"138 797 OFFCURVE",
"0 628 OFFCURVE",
"0 377 CURVE SMOOTH",
"0 121 OFFCURVE",
"141 -59 OFFCURVE",
"346 -59 CURVE SMOOTH",
"544 -59 OFFCURVE",
"688 126 OFFCURVE",
"688 375 CURVE SMOOTH",
"688 622.002 OFFCURVE",
"547 797 OFFCURVE",
"346 797 CURVE SMOOTH"
);
}
);
width = 688;
}
);
unicode = 004F;
},
{
glyphname = P;
lastChange = "2021-01-12 21:24:44 +0000";
layers = (
{
layerId = "8648B977-9A39-40CA-BC6D-5EEF213E062F";
paths = (
{
closed = 1;
nodes = (
"196 349 OFFCURVE",
"198 351 OFFCURVE",
"203 351 CURVE SMOOTH",
"212 351 OFFCURVE",
"496 351 OFFCURVE",
"496 558 CURVE SMOOTH",
"496 668 OFFCURVE",
"419 742 OFFCURVE",
"276 742 CURVE",
"75 742 LINE SMOOTH",
"67 742 OFFCURVE",
"61 737 OFFCURVE",
"61 731 CURVE SMOOTH",
"61 728 OFFCURVE",
"61 722 OFFCURVE",
"69 705 CURVE SMOOTH",
"87 665 OFFCURVE",
"100 633 OFFCURVE",
"100 438 CURVE SMOOTH",
"100 304 LINE SMOOTH",
"100 111 OFFCURVE",
"86 77 OFFCURVE",
"68 37 CURVE SMOOTH",
"60 20 OFFCURVE",
"60 14 OFFCURVE",
"60 11 CURVE SMOOTH",
"60 5 OFFCURVE",
"66 0 OFFCURVE",
"74 0 CURVE SMOOTH",
"223 0 LINE SMOOTH",
"231 0 OFFCURVE",
"236 5 OFFCURVE",
"236 11 CURVE SMOOTH",
"236 14 OFFCURVE",
"236 20 OFFCURVE",
"228 37 CURVE SMOOTH",
"201 97 OFFCURVE",
"196 154 OFFCURVE",
"196 339 CURVE SMOOTH"
);
},
{
closed = 1;
nodes = (
"209 412 OFFCURVE",
"204 434 OFFCURVE",
"204 566 CURVE SMOOTH",
"204 665 OFFCURVE",
"204 674 OFFCURVE",
"213 674 CURVE SMOOTH",
"290 674 OFFCURVE",
"386 674 OFFCURVE",
"386 558 CURVE SMOOTH",
"386 422 OFFCURVE",
"307 412 OFFCURVE",
"217 412 CURVE SMOOTH"
);
}
);
width = 521;
},
{
associatedMasterId = "8648B977-9A39-40CA-BC6D-5EEF213E062F";
layerId = "C4BAA98F-F0C7-429F-BC92-96FC0D0EC4BA";
name = bubble;
paths = (
{
closed = 1;
nodes = (
"521 701 OFFCURVE",
"425 792 OFFCURVE",
"276 792 CURVE SMOOTH",
"75 792 LINE SMOOTH",
"41 792 OFFCURVE",
"11 766 OFFCURVE",
"11 731 CURVE SMOOTH",
"11 717 OFFCURVE",
"16 699 OFFCURVE",
"24 684 CURVE SMOOTH",
"45 637 OFFCURVE",
"50 591 OFFCURVE",
"50 438 CURVE SMOOTH",
"50 304 LINE SMOOTH",
"50 154 OFFCURVE",
"44 106 OFFCURVE",
"23 58 CURVE SMOOTH",
"10 43 OFFCURVE",
"0 25 OFFCURVE",
"0 11 CURVE SMOOTH",
"0 -24 OFFCURVE",
"34 -50 OFFCURVE",
"74 -50 CURVE SMOOTH",
"223 -50 LINE SMOOTH",
"257 -50 OFFCURVE",
"286 -24 OFFCURVE",
"286 11 CURVE SMOOTH",
"286 25 OFFCURVE",
"281 43 OFFCURVE",
"273 58 CURVE SMOOTH",
"252 105 OFFCURVE",
"247 148 OFFCURVE",
"246 303 CURVE",
"331 312 OFFCURVE",
"521 355 OFFCURVE",
"521 558 CURVE SMOOTH"
);
}
);
width = 521;
}
);
unicode = 0050;
},
{
glyphname = Q;
lastChange = "2021-01-12 21:24:45 +0000";
layers = (
{
layerId = "8648B977-9A39-40CA-BC6D-5EEF213E062F";
paths = (
{
closed = 1;
nodes = (
"48 169 OFFCURVE",
"137 2 OFFCURVE",
"309 -12 CURVE SMOOTH",
"321 -13 OFFCURVE",
"332 -14 OFFCURVE",
"334 -22 CURVE SMOOTH",
"354 -100 OFFCURVE",
"406 -152 OFFCURVE",
"491 -152 CURVE SMOOTH",
"531 -152 OFFCURVE",
"556 -127 OFFCURVE",
"556 -93 CURVE SMOOTH",
"556 -55 OFFCURVE",
"524 -31 OFFCURVE",
"497 -31 CURVE SMOOTH",
"478 -31 OFFCURVE",
"453 -57 OFFCURVE",
"432 -57 CURVE SMOOTH",
"408 -57 OFFCURVE",
"391 -38 OFFCURVE",
"391 -16 CURVE SMOOTH",
"391 -11 OFFCURVE",
"402 -9 OFFCURVE",
"408 -8 CURVE SMOOTH",
"563 23 OFFCURVE",
"635 181 OFFCURVE",
"635 375 CURVE SMOOTH",
"635 594 OFFCURVE",
"528 747 OFFCURVE",
"343 747 CURVE SMOOTH",
"157 747 OFFCURVE",
"48 594 OFFCURVE",
"48 377 CURVE SMOOTH"
);
},
{
closed = 1;
nodes = (
"158 555 OFFCURVE",
"231 667 OFFCURVE",
"343 667 CURVE SMOOTH",
"455 667 OFFCURVE",
"525 555 OFFCURVE",
"525 375 CURVE SMOOTH",
"525 243 OFFCURVE",
"482 113 OFFCURVE",
"400 79 CURVE SMOOTH",
"394 76 OFFCURVE",
"383 73 OFFCURVE",
"377 73 CURVE SMOOTH",
"373 73 OFFCURVE",
"371 74 OFFCURVE",
"371 76 CURVE",
"374 105 OFFCURVE",
"390 113 OFFCURVE",
"390 130 CURVE SMOOTH",
"390 140 OFFCURVE",
"382 144 OFFCURVE",
"363 144 CURVE SMOOTH",
"332 144 OFFCURVE",
"322 106 OFFCURVE",
"318 77 CURVE",
"318 74 OFFCURVE",
"314 73 OFFCURVE",
"310 73 CURVE SMOOTH",
"303 73 OFFCURVE",
"293 76 OFFCURVE",
"286 79 CURVE SMOOTH",
"207 113 OFFCURVE",
"158 230 OFFCURVE",
"158 375 CURVE SMOOTH"
);
}
);
width = 683;
},
{
associatedMasterId = "8648B977-9A39-40CA-BC6D-5EEF213E062F";
layerId = "93CE03F5-6864-4F37-A12B-9950A5432962";
name = bubble;
paths = (
{
closed = 1;
nodes = (
"635 79 OFFCURVE",
"683 209 OFFCURVE",
"683 375 CURVE SMOOTH",
"683 630 OFFCURVE",
"550 797 OFFCURVE",
"343 797 CURVE SMOOTH",
"136 797 OFFCURVE",
"0 629 OFFCURVE",
"0 377 CURVE SMOOTH",
"0 131 OFFCURVE",
"113 -40 OFFCURVE",
"294 -61 CURVE",
"326 -150 OFFCURVE",
"397 -202 OFFCURVE",
"491 -202 CURVE SMOOTH",
"556 -202 OFFCURVE",
"606 -157 OFFCURVE",
"606 -93 CURVE SMOOTH",
"606 -51 OFFCURVE",
"583 -14 OFFCURVE",
"548 5 CURVE"
);
}
);
width = 683;
}
);
unicode = 0051;
},
{
glyphname = R;
lastChange = "2021-01-12 21:24:45 +0000";
layers = (
{
layerId = "8648B977-9A39-40CA-BC6D-5EEF213E062F";
paths = (
{
closed = 1;
nodes = (
"199 665 OFFCURVE",
"199 674 OFFCURVE",
"208 674 CURVE SMOOTH",
"285 674 OFFCURVE",
"380 674 OFFCURVE",
"380 558 CURVE SMOOTH",
"380 422 OFFCURVE",
"302 412 OFFCURVE",
"212 412 CURVE SMOOTH",
"204 412 OFFCURVE",
"199 434 OFFCURVE",
"199 566 CURVE SMOOTH"
);
},
{
closed = 1;
nodes = (
"226 0 LINE SMOOTH",
"234 0 OFFCURVE",
"239 5 OFFCURVE",
"239 11 CURVE SMOOTH",
"239 14 OFFCURVE",
"239 20 OFFCURVE",
"231 37 CURVE SMOOTH",
"205 95 OFFCURVE",
"205 152 OFFCURVE",
"205 319 CURVE SMOOTH",
"205 329 OFFCURVE",
"207 336 OFFCURVE",
"212 336 CURVE SMOOTH",
"216 336 OFFCURVE",
"243 336 OFFCURVE",
"248 336 CURVE SMOOTH",
"304 336 OFFCURVE",
"332 65 OFFCURVE",
"332 19 CURVE SMOOTH",
"332 0 OFFCURVE",
"346 0 OFFCURVE",
"356 0 CURVE SMOOTH",
"486 0 LINE SMOOTH",
"498 0 OFFCURVE",
"503 7 OFFCURVE",
"503 16 CURVE SMOOTH",
"503 24 OFFCURVE",
"499 32 OFFCURVE",
"491 38 CURVE SMOOTH",
"474 51 OFFCURVE",
"460 73 OFFCURVE",
"441 125 CURVE SMOOTH",
"426 166 OFFCURVE",
"397 312 OFFCURVE",
"366 359 CURVE SMOOTH",
"364 362 OFFCURVE",
"364 363 OFFCURVE",
"366 364 CURVE SMOOTH",
"414 394 OFFCURVE",
"481 455 OFFCURVE",
"481 558 CURVE SMOOTH",
"481 668 OFFCURVE",
"404 742 OFFCURVE",
"261 742 CURVE SMOOTH",
"75 742 LINE SMOOTH",
"67 742 OFFCURVE",
"61 737 OFFCURVE",
"61 731 CURVE SMOOTH",
"61 728 OFFCURVE",
"61 722 OFFCURVE",
"69 705 CURVE SMOOTH",
"87 665 OFFCURVE",
"100 633 OFFCURVE",
"100 438 CURVE SMOOTH",
"100 304 LINE SMOOTH",
"100 111 OFFCURVE",
"86 77 OFFCURVE",
"68 37 CURVE SMOOTH",
"60 20 OFFCURVE",
"60 14 OFFCURVE",
"60 11 CURVE SMOOTH",
"60 5 OFFCURVE",
"66 0 OFFCURVE",
"74 0 CURVE SMOOTH"
);
}
);
width = 534;
},
{
associatedMasterId = "8648B977-9A39-40CA-BC6D-5EEF213E062F";
layerId = "91AF96EB-8D6A-4229-B425-9F1CBF6B4397";
name = bubble;
paths = (
{
closed = 1;
nodes = (
"512 85 OFFCURVE",
"503 101 OFFCURVE",
"488 142 CURVE SMOOTH",
"485 151 OFFCURVE",
"481 165 OFFCURVE",
"471 204 CURVE SMOOTH",
"460 247 OFFCURVE",
"445 304 OFFCURVE",
"428 347 CURVE",
"494 401 OFFCURVE",
"531 475 OFFCURVE",
"531 558 CURVE SMOOTH",
"531 701 OFFCURVE",
"425 792 OFFCURVE",
"261 792 CURVE SMOOTH",
"75 792 LINE SMOOTH",
"41 792 OFFCURVE",
"11 766 OFFCURVE",
"11 731 CURVE SMOOTH",
"11 717 OFFCURVE",
"16 699 OFFCURVE",
"24 684 CURVE SMOOTH",
"45 637 OFFCURVE",
"50 591 OFFCURVE",
"50 438 CURVE SMOOTH",
"50 304 LINE SMOOTH",
"50 154 OFFCURVE",
"44 106 OFFCURVE",
"23 58 CURVE SMOOTH",
"10 43 OFFCURVE",
"0 25 OFFCURVE",
"0 11 CURVE SMOOTH",
"0 -24 OFFCURVE",
"34 -50 OFFCURVE",
"74 -50 CURVE SMOOTH",
"226 -50 LINE SMOOTH",
"254 -50 OFFCURVE",
"278 -33 OFFCURVE",
"286 -7 CURVE",
"296 -35 OFFCURVE",
"322 -50 OFFCURVE",
"356 -50 CURVE SMOOTH",
"486 -50 LINE SMOOTH",
"514 -50 OFFCURVE",
"534 -22 OFFCURVE",
"534 16 CURVE SMOOTH",
"534 41 OFFCURVE",
"529 63 OFFCURVE",
"521 78 CURVE SMOOTH"
);
}
);
width = 534;
}
);
unicode = 0052;
},
{
glyphname = S;
lastChange = "2021-01-12 21:24:45 +0000";
layers = (
{
layerId = "8648B977-9A39-40CA-BC6D-5EEF213E062F";
paths = (
{
closed = 1;
nodes = (
"62 416 OFFCURVE",
"160 374 OFFCURVE",
"265 341 CURVE SMOOTH",
"358 312 OFFCURVE",
"436 269 OFFCURVE",
"436 198 CURVE SMOOTH",
"436 133 OFFCURVE",
"409 73 OFFCURVE",
"307 73 CURVE SMOOTH",
"249 73 OFFCURVE",
"195 89 OFFCURVE",
"195 166 CURVE SMOOTH",
"195 230 OFFCURVE",
"167 264 OFFCURVE",
"118 264 CURVE SMOOTH",
"61 264 OFFCURVE",
"37 231 OFFCURVE",
"37 201 CURVE SMOOTH",
"37 103 OFFCURVE",
"147 -7 OFFCURVE",
"294 -7 CURVE SMOOTH",
"429 -7 OFFCURVE",
"556 57 OFFCURVE",
"556 198 CURVE SMOOTH",
"556 349 OFFCURVE",
"438 395 OFFCURVE",
"328 431 CURVE SMOOTH",
"255 455 OFFCURVE",
"173 493 OFFCURVE",
"173 566 CURVE SMOOTH",
"173 627 OFFCURVE",
"232 669 OFFCURVE",
"315 669 CURVE SMOOTH",
"342 669 OFFCURVE",
"428 660 OFFCURVE",
"428 603 CURVE SMOOTH",
"428 580 OFFCURVE",
"412 581 OFFCURVE",
"412 552 CURVE SMOOTH",
"412 517 OFFCURVE",
"447 489 OFFCURVE",
"484 489 CURVE SMOOTH",
"531 489 OFFCURVE",
"555 517 OFFCURVE",
"555 569 CURVE SMOOTH",
"555 655 OFFCURVE",
"468 749 OFFCURVE",
"307 749 CURVE SMOOTH",
"177 749 OFFCURVE",
"62 674 OFFCURVE",
"62 548 CURVE SMOOTH"
);
}
);
width = 605;
},
{
associatedMasterId = "8648B977-9A39-40CA-BC6D-5EEF213E062F";
layerId = "44D49F09-BB63-4A3D-A6C7-E7C11478F609";
name = bubble;
paths = (
{
closed = 1;
nodes = (
"260 506 OFFCURVE",
"223 535 OFFCURVE",
"223 566 CURVE SMOOTH",
"223 596 OFFCURVE",
"259 619 OFFCURVE",
"315 619 CURVE SMOOTH",
"341 619 OFFCURVE",
"370 610 OFFCURVE",
"377 605 CURVE",
"367 588 OFFCURVE",
"362 571 OFFCURVE",
"362 552 CURVE SMOOTH",
"362 489 OFFCURVE",
"419 439 OFFCURVE",
"484 439 CURVE SMOOTH",
"559 439 OFFCURVE",
"605 490 OFFCURVE",
"605 569 CURVE SMOOTH",
"605 700 OFFCURVE",
"475 799 OFFCURVE",
"307 799 CURVE SMOOTH",
"138 799 OFFCURVE",
"12 693 OFFCURVE",
"12 548 CURVE SMOOTH",
"12 383 OFFCURVE",
"143 327 OFFCURVE",
"250 293 CURVE SMOOTH",
"343 264 OFFCURVE",
"386 231 OFFCURVE",
"386 198 CURVE SMOOTH",
"386 144 OFFCURVE",
"365 123 OFFCURVE",
"307 123 CURVE SMOOTH",
"257 123 OFFCURVE",
"245 133 OFFCURVE",
"245 166 CURVE SMOOTH",
"245 255 OFFCURVE",
"197 314 OFFCURVE",
"118 314 CURVE SMOOTH",
"52 314 OFFCURVE",
"0 269 OFFCURVE",
"0 201 CURVE SMOOTH",
"0 65 OFFCURVE",
"139 -57 OFFCURVE",
"294 -57 CURVE SMOOTH",
"479 -57 OFFCURVE",
"605 45 OFFCURVE",
"605 198 CURVE SMOOTH",
"605 383 OFFCURVE",
"454 442 OFFCURVE",
"344 479 CURVE SMOOTH"
);
}
);
width = 605;
}
);
unicode = 0053;
},
{
glyphname = T;
lastChange = "2021-01-12 21:56:44 +0000";
layers = (
{
guideLines = (
{
angle = 90;
position = "{238, 433}";
},
{
angle = 90;
position = "{348, 433}";
}
);
layerId = "8648B977-9A39-40CA-BC6D-5EEF213E062F";
paths = (
{
closed = 1;
nodes = (
"238 304 LINE SMOOTH",
"238 111 OFFCURVE",
"224 77 OFFCURVE",
"206 37 CURVE SMOOTH",
"198 20 OFFCURVE",
"198 14 OFFCURVE",
"198 11 CURVE SMOOTH",
"198 5 OFFCURVE",
"204 0 OFFCURVE",
"212 0 CURVE SMOOTH",
"374 0 LINE SMOOTH",
"382 0 OFFCURVE",
"388 5 OFFCURVE",
"388 11 CURVE SMOOTH",
"388 14 OFFCURVE",
"388 20 OFFCURVE",
"380 37 CURVE SMOOTH",
"362 77 OFFCURVE",
"348 111 OFFCURVE",
"348 304 CURVE SMOOTH",
"348 646 LINE SMOOTH",
"348 656 OFFCURVE",
"354 662 OFFCURVE",
"364 662 CURVE SMOOTH",
"444 661 OFFCURVE",
"484 658 OFFCURVE",
"533 636 CURVE SMOOTH",
"550 628 OFFCURVE",
"556 628 OFFCURVE",
"559 628 CURVE SMOOTH",
"565 628 OFFCURVE",
"570 633 OFFCURVE",
"570 641 CURVE SMOOTH",
"570 698 LINE SMOOTH",
"570 710 OFFCURVE",
"569 742 OFFCURVE",
"533 742 CURVE SMOOTH",
"53 742 LINE SMOOTH",
"17 742 OFFCURVE",
"16 710 OFFCURVE",
"16 698 CURVE SMOOTH",
"16 641 LINE SMOOTH",
"16 633 OFFCURVE",
"21 628 OFFCURVE",
"27 628 CURVE SMOOTH",
"30 628 OFFCURVE",
"36 628 OFFCURVE",
"53 636 CURVE SMOOTH",
"102 658 OFFCURVE",
"142 661 OFFCURVE",
"222 662 CURVE SMOOTH",
"232 662 OFFCURVE",
"238 656 OFFCURVE",
"238 646 CURVE SMOOTH"
);
}
);
width = 586;
},
{
associatedMasterId = "8648B977-9A39-40CA-BC6D-5EEF213E062F";
layerId = "5BD0C834-E81F-4BB2-84C5-916B173E12BB";
name = bubble;
paths = (
{
closed = 1;
nodes = (
"20 792 OFFCURVE",
"0 754 OFFCURVE",
"0 698 CURVE SMOOTH",
"0 641 LINE SMOOTH",
"0 607 OFFCURVE",
"11 578 OFFCURVE",
"27 578 CURVE SMOOTH",
"41 578 OFFCURVE",
"59 583 OFFCURVE",
"74 591 CURVE SMOOTH",
"105 605 OFFCURVE",
"129 609 OFFCURVE",
"188 611 CURVE",
"188 304 LINE SMOOTH",
"188 154 OFFCURVE",
"182 106 OFFCURVE",
"161 58 CURVE SMOOTH",
"153 43 OFFCURVE",
"148 25 OFFCURVE",
"148 11 CURVE SMOOTH",
"148 -24 OFFCURVE",
"178 -50 OFFCURVE",
"212 -50 CURVE SMOOTH",
"374 -50 LINE SMOOTH",
"408 -50 OFFCURVE",
"438 -24 OFFCURVE",
"438 11 CURVE SMOOTH",
"438 25 OFFCURVE",
"433 43 OFFCURVE",
"425 58 CURVE SMOOTH",
"404 106 OFFCURVE",
"398 154 OFFCURVE",
"398 304 CURVE SMOOTH",
"398 611 LINE",
"457 609 OFFCURVE",
"481 605 OFFCURVE",
"512 591 CURVE SMOOTH",
"527 583 OFFCURVE",
"545 578 OFFCURVE",
"559 578 CURVE SMOOTH",
"575 578 OFFCURVE",
"586 607 OFFCURVE",
"586 641 CURVE SMOOTH",
"586 698 LINE SMOOTH",
"586 754 OFFCURVE",
"566 792 OFFCURVE",
"533 792 CURVE SMOOTH",
"53 792 LINE SMOOTH"
);
}
);
width = 586;
}
);
unicode = 0054;
},
{
glyphname = Tcedilla;
lastChange = "2021-01-12 21:24:45 +0000";
layers = (
{
components = (
{
name = T;
}
);
layerId = "8648B977-9A39-40CA-BC6D-5EEF213E062F";
paths = (
{
closed = 1;
nodes = (
"275 -15 OFFCURVE",
"259 -70 OFFCURVE",
"234 -70 CURVE SMOOTH",
"219 -70 OFFCURVE",
"202 -52 OFFCURVE",
"189 -52 CURVE SMOOTH",
"171 -52 OFFCURVE",
"149 -69 OFFCURVE",
"149 -95 CURVE SMOOTH",
"149 -119 OFFCURVE",
"165 -135 OFFCURVE",
"193 -135 CURVE SMOOTH",
"273 -135 OFFCURVE",
"311 -60 OFFCURVE",
"311 21 CURVE SMOOTH",
"311 41 OFFCURVE",
"302 67 OFFCURVE",
"280 67 CURVE SMOOTH",
"267 67 OFFCURVE",
"262 64 OFFCURVE",
"262 58 CURVE SMOOTH",
"262 46 OFFCURVE",
"275 41 OFFCURVE",
"275 21 CURVE SMOOTH"
);
}
);
width = 585;
},
{
associatedMasterId = "8648B977-9A39-40CA-BC6D-5EEF213E062F";
layerId = "BC081B76-9CEB-4DB0-BB07-A6C3D232FEAC";
name = bubble;
paths = (
{
closed = 1;
nodes = (
"243 117 OFFCURVE",
"212 97 OFFCURVE",
"212 58 CURVE SMOOTH",
"212 43 OFFCURVE",
"217 30 OFFCURVE",
"225 18 CURVE",
"225 5 OFFCURVE",
"222 -3 OFFCURVE",
"219 -9 CURVE",
"209 -5 OFFCURVE",
"199 -2 OFFCURVE",
"189 -2 CURVE SMOOTH",
"87 -2 OFFCURVE",
"0 -45 OFFCURVE",
"0 -95 CURVE SMOOTH",
"0 -148 OFFCURVE",
"82 -185 OFFCURVE",
"193 -185 CURVE SMOOTH",
"427 -185 OFFCURVE",
"585 -100 OFFCURVE",
"585 21 CURVE SMOOTH",
"585 72 OFFCURVE",
"466 117 OFFCURVE",
"280 117 CURVE SMOOTH"
);
}
);
width = 585;
}
);
unicode = 0162;
},
{
glyphname = U;
lastChange = "2021-01-12 21:24:45 +0000";
layers = (
{
guideLines = (
{
angle = 270;
position = "{311, 0}";
}
);
layerId = "8648B977-9A39-40CA-BC6D-5EEF213E062F";
paths = (
{
closed = 1;
nodes = (
"311 -13 CURVE SMOOTH",
"447 -13 OFFCURVE",
"525 72 OFFCURVE",
"525 179 CURVE",
"525 535 LINE SMOOTH",
"525 536 OFFCURVE",
"527 668 OFFCURVE",
"555 704 CURVE SMOOTH",
"560 709 OFFCURVE",
"563 719 OFFCURVE",
"563 724 CURVE SMOOTH",
"563 733 OFFCURVE",
"555 740 OFFCURVE",
"537 740 CURVE",
"437 740 LINE",
"425 740 OFFCURVE",
"415 725 OFFCURVE",
"415 707 CURVE SMOOTH",
"415 683 OFFCURVE",
"415 644 OFFCURVE",
"415 535 CURVE SMOOTH",
"415 251 LINE",
"415 119 OFFCURVE",
"351 87 OFFCURVE",
"311 87 CURVE SMOOTH",
"264 87 OFFCURVE",
"198 117 OFFCURVE",
"198 251 CURVE",
"198 535 LINE SMOOTH",
"198 644 OFFCURVE",
"198 683 OFFCURVE",
"198 707 CURVE SMOOTH",
"198 725 OFFCURVE",
"188 740 OFFCURVE",
"176 740 CURVE",
"76 740 LINE",
"58 740 OFFCURVE",
"50 733 OFFCURVE",
"50 724 CURVE SMOOTH",
"50 719 OFFCURVE",
"53 709 OFFCURVE",
"58 704 CURVE SMOOTH",
"86 668 OFFCURVE",
"88 536 OFFCURVE",
"88 535 CURVE SMOOTH",
"88 179 LINE",
"88 72 OFFCURVE",
"163 -13 OFFCURVE"
);
}
);
width = 612;
},
{
associatedMasterId = "8648B977-9A39-40CA-BC6D-5EEF213E062F";
layerId = "2447F067-6446-40B9-9858-7479CCDA4CFD";
name = bubble;
paths = (
{
closed = 1;
nodes = (
"38 34 OFFCURVE",
"147 -63 OFFCURVE",
"311 -63 CURVE SMOOTH",
"466 -63 OFFCURVE",
"575 36 OFFCURVE",
"575 179 CURVE SMOOTH",
"575 535 LINE SMOOTH",
"575 536 OFFCURVE",
"577 648 OFFCURVE",
"594 672 CURVE",
"605 686 OFFCURVE",
"612 706 OFFCURVE",
"612 724 CURVE SMOOTH",
"612 766 OFFCURVE",
"577 790 OFFCURVE",
"537 790 CURVE SMOOTH",
"437 790 LINE SMOOTH",
"394 790 OFFCURVE",
"365 750 OFFCURVE",
"365 707 CURVE SMOOTH",
"365 251 LINE SMOOTH",
"365 178 OFFCURVE",
"342 137 OFFCURVE",
"311 137 CURVE SMOOTH",
"271 137 OFFCURVE",
"248 174 OFFCURVE",
"248 251 CURVE SMOOTH",
"248 707 LINE SMOOTH",
"248 750 OFFCURVE",
"219 790 OFFCURVE",
"176 790 CURVE SMOOTH",
"76 790 LINE SMOOTH",
"34.997 790 OFFCURVE",
"0 766 OFFCURVE",
"0 724 CURVE SMOOTH",
"0 706 OFFCURVE",
"7 686 OFFCURVE",
"19 672 CURVE",
"36 648 OFFCURVE",
"38 536 OFFCURVE",
"38 535 CURVE SMOOTH",
"38 179 LINE SMOOTH"
);
}
);
width = 612;
}
);
unicode = 0055;
},
{
glyphname = V;
lastChange = "2021-01-12 21:24:45 +0000";
layers = (
{
layerId = "8648B977-9A39-40CA-BC6D-5EEF213E062F";
paths = (
{
closed = 1;
nodes = (
"479 742 OFFCURVE",
"465 742 OFFCURVE",
"465 727 CURVE SMOOTH",
"465 709 OFFCURVE",
"506 682 OFFCURVE",
"506 640 CURVE SMOOTH",
"506 531 OFFCURVE",
"411 190 OFFCURVE",
"337 190 CURVE SMOOTH",
"291 190 OFFCURVE",
"192 473 OFFCURVE",
"192 640 CURVE SMOOTH",
"192 682 OFFCURVE",
"213 713 OFFCURVE",
"213 724 CURVE SMOOTH",
"213 737 OFFCURVE",
"209 742 OFFCURVE",
"197 742 CURVE SMOOTH",
"146 742 OFFCURVE",
"69 742 OFFCURVE",
"25 742 CURVE SMOOTH",
"18 742 OFFCURVE",
"13 737 OFFCURVE",
"13 731 CURVE SMOOTH",
"13 715 OFFCURVE",
"48 695 OFFCURVE",
"72 595 CURVE SMOOTH",
"93 505 OFFCURVE",
"214 -13 OFFCURVE",
"304 -13 CURVE SMOOTH",
"409 -13 OFFCURVE",
"616 521 OFFCURVE",
"616 715 CURVE SMOOTH",
"616 730 OFFCURVE",
"611 742 OFFCURVE",
"595 742 CURVE",
"491 742 LINE SMOOTH"
);
}
);
width = 645;
},
{
associatedMasterId = "8648B977-9A39-40CA-BC6D-5EEF213E062F";
layerId = "8ABE5CA8-D305-46B2-96EC-EDA26B1A7978";
name = bubble;
paths = (
{
closed = 1;
nodes = (
"447 792 OFFCURVE",
"415 770 OFFCURVE",
"415 727 CURVE SMOOTH",
"415 706 OFFCURVE",
"425 690 OFFCURVE",
"439 671 CURVE SMOOTH",
"453 652 OFFCURVE",
"456 647 OFFCURVE",
"456 640 CURVE SMOOTH",
"456 541 OFFCURVE",
"358 240 OFFCURVE",
"337 240 CURVE SMOOTH",
"327 240 OFFCURVE",
"242 556 OFFCURVE",
"242 640 CURVE SMOOTH",
"242 654 OFFCURVE",
"245 666 OFFCURVE",
"254 688 CURVE SMOOTH",
"259 700 OFFCURVE",
"263 714 OFFCURVE",
"263 724 CURVE SMOOTH",
"263 764 OFFCURVE",
"237 792 OFFCURVE",
"197 792 CURVE SMOOTH",
"25 792 LINE SMOOTH",
"11 792 OFFCURVE",
"0 765 OFFCURVE",
"0 731 CURVE SMOOTH",
"0 714 OFFCURVE",
"0 699 OFFCURVE",
"0 683 CURVE SMOOTH",
"7 665 OFFCURVE",
"16 641 OFFCURVE",
"23 583 CURVE SMOOTH",
"97 269 OFFCURVE",
"186.003 -63 OFFCURVE",
"304 -63 CURVE SMOOTH",
"428 -63 OFFCURVE",
"645 451 OFFCURVE",
"645 715 CURVE SMOOTH",
"645 759 OFFCURVE",
"626 792 OFFCURVE",
"595 792 CURVE SMOOTH",
"491 792 LINE SMOOTH"
);
}
);
width = 645;
}
);
unicode = 0056;
},
{
glyphname = W;
lastChange = "2021-01-12 21:24:45 +0000";
layers = (
{
layerId = "8648B977-9A39-40CA-BC6D-5EEF213E062F";
paths = (
{
closed = 1;
nodes = (
"775 -13 OFFCURVE",
"886 476 OFFCURVE",
"908 595 CURVE SMOOTH",
"931 713 OFFCURVE",
"961 716 OFFCURVE",
"961 731 CURVE SMOOTH",
"961 737 OFFCURVE",
"956 742 OFFCURVE",
"949 742 CURVE SMOOTH",
"791 742 LINE SMOOTH",
"779 742 OFFCURVE",
"775 742 OFFCURVE",
"775 734 CURVE SMOOTH",
"775 727 OFFCURVE",
"778 721 OFFCURVE",
"787 713 CURVE SMOOTH",
"797 706 OFFCURVE",
"803 674 OFFCURVE",
"803 649 CURVE SMOOTH",
"803 560 OFFCURVE",
"730 190 OFFCURVE",
"689 190 CURVE SMOOTH",
"639 190 OFFCURVE",
"570 664 OFFCURVE",
"567 688 CURVE SMOOTH",
"563 718 OFFCURVE",
"548 742 OFFCURVE",
"528 742 CURVE SMOOTH",
"418 742 LINE SMOOTH",
"411 742 OFFCURVE",
"406 737 OFFCURVE",
"406 731 CURVE SMOOTH",
"406 716 OFFCURVE",
"450 697 OFFCURVE",
"450 640 CURVE SMOOTH",
"450 632 OFFCURVE",
"450 581 OFFCURVE",
"448 574 CURVE SMOOTH",
"426 436 OFFCURVE",
"379 190 OFFCURVE",
"333 190 CURVE SMOOTH",
"278 190 OFFCURVE",
"200 664 OFFCURVE",
"200 688 CURVE SMOOTH",
"200 707 OFFCURVE",
"212 715 OFFCURVE",
"212 725 CURVE SMOOTH",
"212 736 OFFCURVE",
"208 742 OFFCURVE",
"196 742 CURVE SMOOTH",
"22 742 LINE SMOOTH",
"15 742 OFFCURVE",
"10 737 OFFCURVE",
"10 731 CURVE SMOOTH",
"10 716 OFFCURVE",
"54 715 OFFCURVE",
"78 595 CURVE SMOOTH",
"96 505 OFFCURVE",
"201 -13 OFFCURVE",
"303 -13 CURVE SMOOTH",
"390 -13 OFFCURVE",
"478 385 OFFCURVE",
"508 385 CURVE SMOOTH",
"531 385 OFFCURVE",
"586 -13 OFFCURVE",
"679 -13 CURVE SMOOTH"
);
}
);
width = 976;
},
{
associatedMasterId = "8648B977-9A39-40CA-BC6D-5EEF213E062F";
layerId = "7E01DB7D-CC89-4AAC-B15B-4151EB9DC822";
name = bubble;
paths = (
{
closed = 1;
nodes = (
"753 792 OFFCURVE",
"725 773 OFFCURVE",
"725 734 CURVE SMOOTH",
"725 710 OFFCURVE",
"737 689 OFFCURVE",
"756 674 CURVE",
"735 689 OFFCURVE",
"753 683 OFFCURVE",
"753 649 CURVE SMOOTH",
"753 633 OFFCURVE",
"690 248 OFFCURVE",
"689 240 CURVE",
"688 248 OFFCURVE",
"620 671 OFFCURVE",
"617 694 CURVE SMOOTH",
"609 749 OFFCURVE",
"576 792 OFFCURVE",
"528 792 CURVE SMOOTH",
"418 792 LINE SMOOTH",
"384 792 OFFCURVE",
"356 765 OFFCURVE",
"356 731 CURVE SMOOTH",
"356 709 OFFCURVE",
"366 695 OFFCURVE",
"381 679 CURVE SMOOTH",
"396 662 OFFCURVE",
"400 655 OFFCURVE",
"400 640 CURVE SMOOTH",
"400 639 OFFCURVE",
"400 587 OFFCURVE",
"400 588 CURVE SMOOTH",
"399 582 LINE SMOOTH",
"392 540 OFFCURVE",
"334 246 OFFCURVE",
"333 240 CURVE",
"332 247 OFFCURVE",
"254 656 OFFCURVE",
"250 686 CURVE",
"250 687 OFFCURVE",
"251 688 OFFCURVE",
"251 688 CURVE SMOOTH",
"257 699 OFFCURVE",
"262 713 OFFCURVE",
"262 725 CURVE SMOOTH",
"262 765 OFFCURVE",
"235 792 OFFCURVE",
"196 792 CURVE SMOOTH",
"22 792 LINE SMOOTH",
"10 792 OFFCURVE",
"0 765 OFFCURVE",
"0 731 CURVE SMOOTH",
"0 710 OFFCURVE",
"0 695 OFFCURVE",
"0 682 CURVE SMOOTH",
"14 662 OFFCURVE",
"22 636 OFFCURVE",
"29 585 CURVE SMOOTH",
"108 192 OFFCURVE",
"191 -63 OFFCURVE",
"303 -63 CURVE SMOOTH",
"388 -63 OFFCURVE",
"437 63 OFFCURVE",
"500 243 CURVE",
"547 63 OFFCURVE",
"590 -63 OFFCURVE",
"679 -63 CURVE SMOOTH",
"801 -63 OFFCURVE",
"902 285 OFFCURVE",
"957 586 CURVE SMOOTH",
"962 637 OFFCURVE",
"968 666 OFFCURVE",
"976 687 CURVE SMOOTH",
"976 701 OFFCURVE",
"976 714 OFFCURVE",
"976 731 CURVE SMOOTH",
"976 765 OFFCURVE",
"964 792 OFFCURVE",
"949 792 CURVE SMOOTH",
"791 792 LINE SMOOTH"
);
}
);
width = 976;
}
);
unicode = 0057;
},
{
glyphname = X;
lastChange = "2021-01-12 21:24:45 +0000";
layers = (
{
layerId = "8648B977-9A39-40CA-BC6D-5EEF213E062F";
paths = (
{
closed = 1;
nodes = (
"22 717 OFFCURVE",
"23 705 OFFCURVE",
"32 700 CURVE SMOOTH",
"68 682 OFFCURVE",
"99 666 OFFCURVE",
"133 615 CURVE SMOOTH",
"176 551 OFFCURVE",
"241 399 OFFCURVE",
"241 378 CURVE SMOOTH",
"241 363 OFFCURVE",
"28 75 OFFCURVE",
"28 27 CURVE SMOOTH",
"28 12 OFFCURVE",
"32 0 OFFCURVE",
"49 0 CURVE SMOOTH",
"235 0 LINE SMOOTH",
"249 0 OFFCURVE",
"262 0 OFFCURVE",
"262 18 CURVE SMOOTH",
"262 39 OFFCURVE",
"198 60 OFFCURVE",
"198 102 CURVE SMOOTH",
"198 167 OFFCURVE",
"276 282 OFFCURVE",
"295 282 CURVE SMOOTH",
"324 282 OFFCURVE",
"398 69 OFFCURVE",
"414 19 CURVE SMOOTH",
"420 3 OFFCURVE",
"443 0 OFFCURVE",
"447 0 CURVE",
"596 0 LINE SMOOTH",
"614 0 OFFCURVE",
"615 16 OFFCURVE",
"615 21 CURVE SMOOTH",
"615 27 OFFCURVE",
"614 37 OFFCURVE",
"605 42 CURVE SMOOTH",
"569 57 OFFCURVE",
"539 75 OFFCURVE",
"504 128 CURVE SMOOTH",
"462 191 OFFCURVE",
"396 359 OFFCURVE",
"396 380 CURVE SMOOTH",
"396 395 OFFCURVE",
"590 669 OFFCURVE",
"590 723 CURVE SMOOTH",
"590 730 OFFCURVE",
"585 742 OFFCURVE",
"569 742 CURVE SMOOTH",
"399 742 LINE SMOOTH",
"387 742 OFFCURVE",
"373 742 OFFCURVE",
"373 724 CURVE SMOOTH",
"373 696 OFFCURVE",
"423 682 OFFCURVE",
"423 640 CURVE SMOOTH",
"423 577 OFFCURVE",
"369 473 OFFCURVE",
"342 473 CURVE SMOOTH",
"313 473 OFFCURVE",
"253 682 OFFCURVE",
"226 723 CURVE SMOOTH",
"215 739 OFFCURVE",
"194 742 OFFCURVE",
"190 742 CURVE",
"41 742 LINE SMOOTH",
"23 742 OFFCURVE",
"22 727 OFFCURVE",
"22 723 CURVE SMOOTH"
);
}
);
width = 632;
},
{
associatedMasterId = "8648B977-9A39-40CA-BC6D-5EEF213E062F";
layerId = "7229218B-BCAD-4FA7-A910-72B73D72F8CF";
name = bubble;
paths = (
{
closed = 1;
nodes = (
"586 105 OFFCURVE",
"569 120 OFFCURVE",
"546 156 CURVE SMOOTH",
"508 213 OFFCURVE",
"449 360 OFFCURVE",
"446 379 CURVE",
"449 369 OFFCURVE",
"487 434 OFFCURVE",
"491 441 CURVE SMOOTH",
"576 581 OFFCURVE",
"632 676 OFFCURVE",
"632 723 CURVE SMOOTH",
"632 762 OFFCURVE",
"604 792 OFFCURVE",
"569 792 CURVE SMOOTH",
"399 792 LINE SMOOTH",
"354 792 OFFCURVE",
"323 768 OFFCURVE",
"323 724 CURVE SMOOTH",
"323 696 OFFCURVE",
"337 677 OFFCURVE",
"359 655 CURVE SMOOTH",
"373 642 OFFCURVE",
"373 641 OFFCURVE",
"373 640 CURVE SMOOTH",
"373 635 OFFCURVE",
"362 594 OFFCURVE",
"353 562 CURVE",
"342 579 OFFCURVE",
"329 603 OFFCURVE",
"315 639 CURVE SMOOTH",
"299 684 OFFCURVE",
"281 730 OFFCURVE",
"267 751 CURVE SMOOTH",
"251 775 OFFCURVE",
"219 792 OFFCURVE",
"190 792 CURVE SMOOTH",
"41 792 LINE SMOOTH",
"17 792 OFFCURVE",
"0 762 OFFCURVE",
"0 723 CURVE SMOOTH",
"0 694 OFFCURVE",
"4 667 OFFCURVE",
"12 654 CURVE SMOOTH",
"46 637 OFFCURVE",
"65 627 OFFCURVE",
"91 587 CURVE SMOOTH",
"118 548 OFFCURVE",
"188 398 OFFCURVE",
"191 379 CURVE",
"188 390 OFFCURVE",
"142 315 OFFCURVE",
"137 308 CURVE SMOOTH",
"56 170 OFFCURVE",
"0 73 OFFCURVE",
"0 27 CURVE SMOOTH",
"0 -18 OFFCURVE",
"19 -50 OFFCURVE",
"49 -50 CURVE SMOOTH",
"235 -50 LINE SMOOTH",
"281 -50 OFFCURVE",
"312 -27 OFFCURVE",
"312 18 CURVE SMOOTH",
"312 47 OFFCURVE",
"294 65 OFFCURVE",
"269 85 CURVE SMOOTH",
"269 85 OFFCURVE",
"248 103 OFFCURVE",
"248 102 CURVE SMOOTH",
"248 136 OFFCURVE",
"273 184 OFFCURVE",
"287 211 CURVE",
"294 165 OFFCURVE",
"349 55 OFFCURVE",
"366 6 CURVE SMOOTH",
"376 -29 OFFCURVE",
"413 -50 OFFCURVE",
"447 -50 CURVE SMOOTH",
"596 -50 LINE SMOOTH",
"617 -50 OFFCURVE",
"632 -19 OFFCURVE",
"632 21 CURVE SMOOTH",
"632 51 OFFCURVE",
"628 79 OFFCURVE",
"619 90 CURVE SMOOTH"
);
}
);
width = 632;
}
);
unicode = 0058;
},
{
glyphname = Y;
lastChange = "2021-01-12 21:24:45 +0000";
layers = (
{
layerId = "8648B977-9A39-40CA-BC6D-5EEF213E062F";
paths = (
{
closed = 1;
nodes = (
"301 287 OFFCURVE",
"304 295 OFFCURVE",
"307 298 CURVE SMOOTH",
"401 382 OFFCURVE",
"470 642 OFFCURVE",
"470 725 CURVE SMOOTH",
"470 734 OFFCURVE",
"467 742 OFFCURVE",
"457 742 CURVE SMOOTH",
"365 742 LINE SMOOTH",
"358 742 OFFCURVE",
"350 742 OFFCURVE",
"350 732 CURVE SMOOTH",
"350 722 OFFCURVE",
"368 705 OFFCURVE",
"368 680 CURVE SMOOTH",
"368 565 OFFCURVE",
"289 387 OFFCURVE",
"261 387 CURVE SMOOTH",
"241 387 OFFCURVE",
"156 579 OFFCURVE",
"156 680 CURVE SMOOTH",
"156 705 OFFCURVE",
"165 724 OFFCURVE",
"165 731 CURVE SMOOTH",
"165 739 OFFCURVE",
"162 742 OFFCURVE",
"155 742 CURVE SMOOTH",
"23 742 LINE SMOOTH",
"18 742 OFFCURVE",
"16 739 OFFCURVE",
"16 735 CURVE SMOOTH",
"16 725 OFFCURVE",
"36 713 OFFCURVE",
"48 652 CURVE SMOOTH",
"56 612 OFFCURVE",
"123 381 OFFCURVE",
"186 297 CURVE SMOOTH",
"189 293 OFFCURVE",
"191 289 OFFCURVE",
"191 280 CURVE SMOOTH",
"191 111 OFFCURVE",
"177 77 OFFCURVE",
"159 37 CURVE SMOOTH",
"151 20 OFFCURVE",
"151 14 OFFCURVE",
"151 11 CURVE SMOOTH",
"151 5 OFFCURVE",
"157 0 OFFCURVE",
"165 0 CURVE SMOOTH",
"327 0 LINE SMOOTH",
"335 0 OFFCURVE",
"341 5 OFFCURVE",
"341 11 CURVE SMOOTH",
"341 14 OFFCURVE",
"341 20 OFFCURVE",
"333 37 CURVE SMOOTH",
"315 77 OFFCURVE",
"301 109 OFFCURVE",
"301 276 CURVE SMOOTH"
);
}
);
width = 495;
},
{
associatedMasterId = "8648B977-9A39-40CA-BC6D-5EEF213E062F";
layerId = "34747D4C-B67D-457B-B4DD-3B6FCA8F59DC";
name = bubble;
paths = (
{
closed = 1;
nodes = (
"436 374 OFFCURVE",
"495 639 OFFCURVE",
"495 725 CURVE SMOOTH",
"495 763 OFFCURVE",
"480 792 OFFCURVE",
"457 792 CURVE SMOOTH",
"365 792 LINE SMOOTH",
"328 792 OFFCURVE",
"300 770 OFFCURVE",
"300 732 CURVE SMOOTH",
"300 719 OFFCURVE",
"306 705 OFFCURVE",
"312 693 CURVE SMOOTH",
"317 684 OFFCURVE",
"318 682 OFFCURVE",
"318 680 CURVE SMOOTH",
"318 589 OFFCURVE",
"271 472 OFFCURVE",
"262 444 CURVE",
"258 474 OFFCURVE",
"206 601 OFFCURVE",
"206 680 CURVE SMOOTH",
"206 687 OFFCURVE",
"207 694 OFFCURVE",
"211 706 CURVE SMOOTH",
"213 713 OFFCURVE",
"215 726 OFFCURVE",
"215 731 CURVE SMOOTH",
"215 766 OFFCURVE",
"190 792 OFFCURVE",
"155 792 CURVE SMOOTH",
"23 792 LINE SMOOTH",
"10 792 OFFCURVE",
"0 768 OFFCURVE",
"0 735 CURVE SMOOTH",
"0 720.991 OFFCURVE",
"0 708 OFFCURVE",
"0 697 CURVE SMOOTH",
"0 681 OFFCURVE",
"0 667 OFFCURVE",
"0 642 CURVE SMOOTH",
"8 601 OFFCURVE",
"75 370 OFFCURVE",
"141 274 CURVE",
"141 148 OFFCURVE",
"135 105 OFFCURVE",
"114 58 CURVE SMOOTH",
"106 43 OFFCURVE",
"101 25 OFFCURVE",
"101 11 CURVE SMOOTH",
"101 -24 OFFCURVE",
"131 -50 OFFCURVE",
"165 -50 CURVE SMOOTH",
"327 -50 LINE SMOOTH",
"361 -50 OFFCURVE",
"391 -24 OFFCURVE",
"391 11 CURVE SMOOTH",
"391 25 OFFCURVE",
"386 43 OFFCURVE",
"378 58 CURVE SMOOTH",
"357 106 OFFCURVE",
"351 146 OFFCURVE",
"351.003 271.006 CURVE"
);
}
);
width = 495;
}
);
unicode = 0059;
},
{
glyphname = Z;
lastChange = "2021-01-12 21:24:45 +0000";
layers = (
{
layerId = "8648B977-9A39-40CA-BC6D-5EEF213E062F";
paths = (
{
closed = 1;
nodes = (
"373 662 OFFCURVE",
"379 656 OFFCURVE",
"379 650 CURVE SMOOTH",
"379 575 OFFCURVE",
"97 153 OFFCURVE",
"68 119 CURVE SMOOTH",
"50 98 OFFCURVE",
"31 69 OFFCURVE",
"31 48 CURVE SMOOTH",
"31 17 OFFCURVE",
"44 0 OFFCURVE",
"79 0 CURVE",
"552 0 LINE",
"588 0 OFFCURVE",
"589 32 OFFCURVE",
"589 44 CURVE SMOOTH",
"589 145 LINE",
"589 153 OFFCURVE",
"585 163 OFFCURVE",
"574 163 CURVE SMOOTH",
"562 163 OFFCURVE",
"553 156 OFFCURVE",
"528 133 CURVE SMOOTH",
"501 109 OFFCURVE",
"463 109 OFFCURVE",
"253 109 CURVE SMOOTH",
"243 109 OFFCURVE",
"238 115 OFFCURVE",
"238 126 CURVE SMOOTH",
"238 166 OFFCURVE",
"533 621 OFFCURVE",
"539 630 CURVE SMOOTH",
"555 651 OFFCURVE",
"572 678 OFFCURVE",
"572 702 CURVE SMOOTH",
"572 721 OFFCURVE",
"557 742 OFFCURVE",
"524 742 CURVE SMOOTH",
"79 742 LINE",
"58 742 OFFCURVE",
"43 729 OFFCURVE",
"43 710 CURVE SMOOTH",
"43 638 LINE SMOOTH",
"43 626 OFFCURVE",
"46 612 OFFCURVE",
"64 612 CURVE SMOOTH",
"93 612 OFFCURVE",
"100 662 OFFCURVE",
"162 662 CURVE SMOOTH",
"364 662 LINE SMOOTH"
);
}
);
width = 623;
},
{
associatedMasterId = "8648B977-9A39-40CA-BC6D-5EEF213E062F";
layerId = "82C9E765-ABA7-4087-ADAA-83312DB27E61";
name = bubble;
paths = (
{
closed = 1;
nodes = (
"545 213 OFFCURVE",
"525 198 OFFCURVE",
"494 170 CURVE SMOOTH",
"486 162 OFFCURVE",
"468 160 OFFCURVE",
"306 159 CURVE",
"357 247 OFFCURVE",
"505 488 OFFCURVE",
"580 601 CURVE",
"606 635 OFFCURVE",
"622 669.993 OFFCURVE",
"622 702 CURVE SMOOTH",
"622 754 OFFCURVE",
"578 792 OFFCURVE",
"524 792 CURVE SMOOTH",
"79 792 LINE SMOOTH",
"35 792 OFFCURVE",
"0 757 OFFCURVE",
"0 710 CURVE SMOOTH",
"0 638 LINE SMOOTH",
"0 594 OFFCURVE",
"25 562 OFFCURVE",
"64 562 CURVE SMOOTH",
"90 562 OFFCURVE",
"109 575 OFFCURVE",
"129 595 CURVE SMOOTH",
"144 610 OFFCURVE",
"148 612 OFFCURVE",
"162 612 CURVE SMOOTH",
"314 612 LINE",
"263 506 OFFCURVE",
"91 223 OFFCURVE",
"30 151 CURVE SMOOTH",
"13 118 OFFCURVE",
"0 80 OFFCURVE",
"0 48 CURVE SMOOTH",
"0 -13 OFFCURVE",
"30 -50 OFFCURVE",
"79 -50 CURVE SMOOTH",
"552 -50 LINE SMOOTH",
"596 -50 OFFCURVE",
"623 -12 OFFCURVE",
"623 44 CURVE SMOOTH",
"623 145 LINE SMOOTH",
"623 182 OFFCURVE",
"603 213 OFFCURVE",
"574 213 CURVE SMOOTH"
);
}
);
width = 623;
}
);
unicode = 005A;
},
{
glyphname = a;
lastChange = "2021-01-12 21:52:56 +0000";
layers = (
{
layerId = "8648B977-9A39-40CA-BC6D-5EEF213E062F";
paths = (
{
closed = 1;
nodes = (
"324 143 OFFCURVE",
"290 65 OFFCURVE",
"225 65 CURVE SMOOTH",
"152 65 OFFCURVE",
"129 163 OFFCURVE",
"129 270 CURVE SMOOTH",
"129 364 OFFCURVE",
"162 444 OFFCURVE",
"222 444 CURVE SMOOTH",
"311 444 OFFCURVE",
"324 364 OFFCURVE",
"324 259 CURVE SMOOTH"
);
},
{
closed = 1;
nodes = (
"457 448 OFFCURVE",
"454 453 OFFCURVE",
"445 455 CURVE SMOOTH",
"421 459 OFFCURVE",
"387 465 OFFCURVE",
"352 486 CURVE SMOOTH",
"349 488 OFFCURVE",
"343 492 OFFCURVE",
"336 492 CURVE SMOOTH",
"324 492 OFFCURVE",
"316 482 OFFCURVE",
"316 468 CURVE SMOOTH",
"316 462 LINE",
"289 495 OFFCURVE",
"247 502 OFFCURVE",
"225 502 CURVE",
"116 502 OFFCURVE",
"28 392 OFFCURVE",
"28 253 CURVE SMOOTH",
"28 112 OFFCURVE",
"102 -4 OFFCURVE",
"217 -4 CURVE SMOOTH",
"274 -4 OFFCURVE",
"313 46 OFFCURVE",
"321 57 CURVE SMOOTH",
"323 60 OFFCURVE",
"324 61 OFFCURVE",
"327 61 CURVE SMOOTH",
"329 61 OFFCURVE",
"329 57 OFFCURVE",
"329 56 CURVE SMOOTH",
"329 54 OFFCURVE",
"329 24 OFFCURVE",
"329 14 CURVE SMOOTH",
"329 8 OFFCURVE",
"330 0 OFFCURVE",
"337 0 CURVE SMOOTH",
"451 0 LINE SMOOTH",
"456 0 OFFCURVE",
"459 3 OFFCURVE",
"459 7 CURVE SMOOTH",
"459 9 OFFCURVE",
"458 12 OFFCURVE",
"448 25 CURVE SMOOTH",
"431 46 OFFCURVE",
"415 67 OFFCURVE",
"415 207 CURVE",
"415 367 LINE",
"415 390 OFFCURVE",
"424 398 OFFCURVE",
"447 410 CURVE SMOOTH",
"452 413 OFFCURVE",
"457 421 OFFCURVE",
"457 439 CURVE SMOOTH"
);
}
);
width = 492;
},
{
associatedMasterId = "8648B977-9A39-40CA-BC6D-5EEF213E062F";
layerId = "28C5C3AB-2A76-4A51-A9B3-46A31E04CE20";
name = bubble;
paths = (
{
closed = 1;
nodes = (
"471 78 OFFCURVE",
"465 109 OFFCURVE",
"465 207 CURVE SMOOTH",
"465 363 LINE",
"467 364 OFFCURVE",
"469 365 OFFCURVE",
"471 366 CURVE SMOOTH",
"486 381 OFFCURVE",
"492 409 OFFCURVE",
"492 439 CURVE SMOOTH",
"492 474 OFFCURVE",
"476 500 OFFCURVE",
"449 505 CURVE SMOOTH",
"417 511 OFFCURVE",
"398 517 OFFCURVE",
"379 528 CURVE SMOOTH",
"366 537 OFFCURVE",
"351 542 OFFCURVE",
"336 542 CURVE SMOOTH",
"323.994 542 OFFCURVE",
"313 539 OFFCURVE",
"303 534 CURVE",
"279 546 OFFCURVE",
"252 552 OFFCURVE",
"225 552 CURVE SMOOTH",
"99.006 552 OFFCURVE",
"0 419 OFFCURVE",
"0 253 CURVE SMOOTH",
"0 77 OFFCURVE",
"91 -54 OFFCURVE",
"217 -54 CURVE SMOOTH",
"244 -54 OFFCURVE",
"271 -46 OFFCURVE",
"295 -32 CURVE",
"305 -43 OFFCURVE",
"320 -50 OFFCURVE",
"337 -50 CURVE SMOOTH",
"451 -50 LINE SMOOTH",
"473 -50 OFFCURVE",
"492 -25 OFFCURVE",
"492 7 CURVE SMOOTH",
"492 27 OFFCURVE",
"489 42 OFFCURVE",
"485 59 CURVE SMOOTH"
);
}
);
width = 492;
}
);
unicode = 0061;
},
{
glyphname = b;
lastChange = "2021-01-12 21:52:56 +0000";
layers = (
{
guideLines = (
{
angle = 270;
position = "{171, 800}";
}
);
layerId = "8648B977-9A39-40CA-BC6D-5EEF213E062F";
paths = (
{
closed = 1;
nodes = (
"171 788 OFFCURVE",
"157 800 OFFCURVE",
"142 800 CURVE SMOOTH",
"136 800 OFFCURVE",
"131 798 OFFCURVE",
"126 794 CURVE SMOOTH",
"91 766 OFFCURVE",
"68 759 OFFCURVE",
"43 753 CURVE SMOOTH",
"34 751 OFFCURVE",
"31 743 OFFCURVE",
"31 737 CURVE SMOOTH",
"31 719 OFFCURVE",
"36 711 OFFCURVE",
"41 708 CURVE SMOOTH",
"64 696 OFFCURVE",
"72 689 OFFCURVE",
"72 666 CURVE SMOOTH",
"72 207 LINE",
"72 67 OFFCURVE",
"56 46 OFFCURVE",
"39 25 CURVE SMOOTH",
"29 12 OFFCURVE",
"28 9 OFFCURVE",
"28 7 CURVE SMOOTH",
"28 3 OFFCURVE",
"31 0 OFFCURVE",
"36 0 CURVE SMOOTH",
"160 0 LINE SMOOTH",
"167 0 OFFCURVE",
"168 8 OFFCURVE",
"168 14 CURVE SMOOTH",
"168 24 OFFCURVE",
"158 44 OFFCURVE",
"158 46 CURVE SMOOTH",
"158 47 OFFCURVE",
"158 51 OFFCURVE",
"160 51 CURVE SMOOTH",
"161 51 OFFCURVE",
"163 50 OFFCURVE",
"166 47 CURVE SMOOTH",
"176 36 OFFCURVE",
"213 -4 OFFCURVE",
"270 -4 CURVE SMOOTH",
"390 -4 OFFCURVE",
"461 116 OFFCURVE",
"461 250 CURVE SMOOTH",
"461 392 OFFCURVE",
"375 500 OFFCURVE",
"281 500 CURVE SMOOTH",
"223 500 OFFCURVE",
"195 473 OFFCURVE",
"181 459 CURVE SMOOTH",
"177 455 OFFCURVE",
"175 454 OFFCURVE",
"174 454 CURVE SMOOTH",
"173 454 OFFCURVE",
"171 455 OFFCURVE",
"171 457 CURVE",
"171 495 OFFCURVE",
"171 456 OFFCURVE",
"171 762 CURVE SMOOTH"
);
},
{
closed = 0;
nodes = (
"42 754 LINE"
);
},
{
closed = 1;
nodes = (
"155 345 OFFCURVE",
"179 431 OFFCURVE",
"260 431 CURVE SMOOTH",
"327 431 OFFCURVE",
"362 345 OFFCURVE",
"362 250 CURVE SMOOTH",
"362 145 OFFCURVE",
"338 61 OFFCURVE",
"257 61 CURVE SMOOTH",
"190 61 OFFCURVE",
"155 146 OFFCURVE",
"155 245 CURVE SMOOTH"
);
}
);
width = 490;
},
{
associatedMasterId = "8648B977-9A39-40CA-BC6D-5EEF213E062F";
layerId = "EEFC4174-13CA-45CA-890C-2EDED7A9E89F";
name = bubble;
paths = (
{
closed = 1;
nodes = (
"259 550 OFFCURVE",
"240 547 OFFCURVE",
"221 541 CURVE",
"221 762 LINE SMOOTH",
"221 810 OFFCURVE",
"190 850 OFFCURVE",
"142 850 CURVE SMOOTH",
"125 850 OFFCURVE",
"108 843 OFFCURVE",
"95 833 CURVE SMOOTH",
"72 815 OFFCURVE",
"59 808 OFFCURVE",
"32 802 CURVE SMOOTH",
"12 795 OFFCURVE",
"0 768 OFFCURVE",
"0 737 CURVE SMOOTH",
"0 707 OFFCURVE",
"5 679 OFFCURVE",
"17 664 CURVE SMOOTH",
"19 663 OFFCURVE",
"21 662 OFFCURVE",
"22 662 CURVE",
"22 207 LINE SMOOTH",
"22 103 OFFCURVE",
"16 75 OFFCURVE",
"0 56 CURVE SMOOTH",
"0 40 OFFCURVE",
"0 26 OFFCURVE",
"0 7 CURVE SMOOTH",
"0 -25 OFFCURVE",
"16 -50 OFFCURVE",
"36 -50 CURVE SMOOTH",
"160 -50 LINE SMOOTH",
"175 -50 OFFCURVE",
"187 -45 OFFCURVE",
"196 -37 CURVE",
"220 -48 OFFCURVE",
"245 -54 OFFCURVE",
"270 -54 CURVE SMOOTH",
"398 -54 OFFCURVE",
"490 76 OFFCURVE",
"490 250 CURVE SMOOTH",
"490 414 OFFCURVE",
"396 550 OFFCURVE",
"281 550 CURVE SMOOTH"
);
}
);
width = 490;
}
);
unicode = 0062;
},
{
glyphname = c;
lastChange = "2021-01-12 21:52:51 +0000";
layers = (
{
layerId = "8648B977-9A39-40CA-BC6D-5EEF213E062F";
paths = (
{
closed = 1;
nodes = (
"305 328 OFFCURVE",
"327 314 OFFCURVE",
"364 314 CURVE SMOOTH",
"390 314 OFFCURVE",
"422 328 OFFCURVE",
"422 352 CURVE SMOOTH",
"422 386 OFFCURVE",
"394 509 OFFCURVE",
"242 509 CURVE SMOOTH",
"103 509 OFFCURVE",
"28 373 OFFCURVE",
"28 240 CURVE SMOOTH",
"28 115 OFFCURVE",
"95 -6 OFFCURVE",
"238 -6 CURVE SMOOTH",
"312 -6 OFFCURVE",
"412 69 OFFCURVE",
"412 122 CURVE SMOOTH",
"412 144 OFFCURVE",
"394 161 OFFCURVE",
"373 161 CURVE SMOOTH",
"366 161 OFFCURVE",
"358 159 OFFCURVE",
"351 154 CURVE SMOOTH",
"346 151 OFFCURVE",
"339 143 OFFCURVE",
"330 132 CURVE SMOOTH",
"308 106 OFFCURVE",
"275 67 OFFCURVE",
"231 67 CURVE SMOOTH",
"163 67 OFFCURVE",
"129 113 OFFCURVE",
"129 241 CURVE SMOOTH",
"129 295 OFFCURVE",
"133 404 OFFCURVE",
"197 432 CURVE SMOOTH",
"210 438 OFFCURVE",
"224 441 OFFCURVE",
"236 441 CURVE SMOOTH",
"266 441 OFFCURVE",
"305 414 OFFCURVE",
"305 358 CURVE SMOOTH"
);
}
);
width = 443;
},
{
associatedMasterId = "8648B977-9A39-40CA-BC6D-5EEF213E062F";
layerId = "033ABBD0-0C8A-4B84-AF15-248FD49485CA";
name = bubble;
paths = (
{
closed = 1;
nodes = (
"255 299 OFFCURVE",
"299 264 OFFCURVE",
"364 264 CURVE SMOOTH",
"405 264 OFFCURVE",
"443 300 OFFCURVE",
"443 352 CURVE SMOOTH",
"443 468 OFFCURVE",
"355 559 OFFCURVE",
"242 559 CURVE SMOOTH",
"102 559 OFFCURVE",
"0 421 OFFCURVE",
"0 240 CURVE SMOOTH",
"0 66 OFFCURVE",
"97 -56 OFFCURVE",
"238 -56 CURVE SMOOTH",
"329 -56 OFFCURVE",
"443 38 OFFCURVE",
"443 122 CURVE SMOOTH",
"443 171 OFFCURVE",
"412 211 OFFCURVE",
"373 211 CURVE SMOOTH",
"354 211 OFFCURVE",
"331 203 OFFCURVE",
"317 191 CURVE SMOOTH",
"309 184 OFFCURVE",
"300 174 OFFCURVE",
"292 164 CURVE SMOOTH",
"261 128 OFFCURVE",
"246 117 OFFCURVE",
"231 117 CURVE SMOOTH",
"195 117 OFFCURVE",
"179 142 OFFCURVE",
"179 241 CURVE SMOOTH",
"179 325 OFFCURVE",
"194 376 OFFCURVE",
"217 386 CURVE SMOOTH",
"225 390 OFFCURVE",
"230 391 OFFCURVE",
"236 391 CURVE SMOOTH",
"245 391 OFFCURVE",
"255 378 OFFCURVE",
"255 358 CURVE SMOOTH"
);
}
);
width = 443;
}
);
unicode = 0063;
},
{
glyphname = d;
lastChange = "2021-01-12 21:52:56 +0000";
layers = (
{
guideLines = (
{
angle = 270;
position = "{319, 800}";
}
);
layerId = "8648B977-9A39-40CA-BC6D-5EEF213E062F";
paths = (
{
closed = 1;
nodes = (
"319 456 OFFCURVE",
"319 494 OFFCURVE",
"319 457 CURVE",
"319 455 OFFCURVE",
"317 454 OFFCURVE",
"316 454 CURVE SMOOTH",
"315 454 OFFCURVE",
"313 455 OFFCURVE",
"309 459 CURVE SMOOTH",
"295 473 OFFCURVE",
"267 500 OFFCURVE",
"209 500 CURVE SMOOTH",
"115 500 OFFCURVE",
"29 392 OFFCURVE",
"29 250 CURVE SMOOTH",
"29 116 OFFCURVE",
"100 -4 OFFCURVE",
"220 -4 CURVE SMOOTH",
"277 -4 OFFCURVE",
"314 36 OFFCURVE",
"324 47 CURVE SMOOTH",
"327 50 OFFCURVE",
"329 51 OFFCURVE",
"330 51 CURVE SMOOTH",
"332 51 OFFCURVE",
"332 47 OFFCURVE",
"332 46 CURVE SMOOTH",
"332 44 OFFCURVE",
"322 24 OFFCURVE",
"322 14 CURVE SMOOTH",
"322 8 OFFCURVE",
"323 0 OFFCURVE",
"330 0 CURVE SMOOTH",
"454 0 LINE SMOOTH",
"459 0 OFFCURVE",
"462 3 OFFCURVE",
"462 7 CURVE SMOOTH",
"462 9 OFFCURVE",
"461 12 OFFCURVE",
"451 25 CURVE SMOOTH",
"434 46 OFFCURVE",
"418 67 OFFCURVE",
"418 207 CURVE",
"418 666 LINE SMOOTH",
"418 689 OFFCURVE",
"426 696 OFFCURVE",
"449 708 CURVE SMOOTH",
"454 711 OFFCURVE",
"459 719 OFFCURVE",
"459 737 CURVE SMOOTH",
"459 743 OFFCURVE",
"456 751 OFFCURVE",
"447 753 CURVE SMOOTH",
"422 759 OFFCURVE",
"399 766 OFFCURVE",
"364 794 CURVE SMOOTH",
"359 798 OFFCURVE",
"354 800 OFFCURVE",
"348 800 CURVE SMOOTH",
"333 800 OFFCURVE",
"319 788 OFFCURVE",
"319 762 CURVE SMOOTH"
);
},
{
closed = 0;
nodes = (
"448 754 LINE"
);
},
{
closed = 1;
nodes = (
"335 150 OFFCURVE",
"300 65 OFFCURVE",
"233 65 CURVE SMOOTH",
"152 65 OFFCURVE",
"128 149 OFFCURVE",
"128 250 CURVE SMOOTH",
"128 349 OFFCURVE",
"163 435 OFFCURVE",
"230 435 CURVE SMOOTH",
"311 435 OFFCURVE",
"335 349 OFFCURVE",
"335 249 CURVE SMOOTH"
);
}
);
width = 490;
},
{
associatedMasterId = "8648B977-9A39-40CA-BC6D-5EEF213E062F";
layerId = "638129A4-74CA-455C-88E3-F9AAF7450CB3";
name = bubble;
paths = (
{
closed = 1;
nodes = (
"474 78 OFFCURVE",
"468 109 OFFCURVE",
"468 207 CURVE SMOOTH",
"468 662 LINE",
"469 662 OFFCURVE",
"471 663 OFFCURVE",
"473 664 CURVE SMOOTH",
"485 679 OFFCURVE",
"490 707 OFFCURVE",
"490 737 CURVE SMOOTH",
"490 768 OFFCURVE",
"478 795 OFFCURVE",
"458 802 CURVE SMOOTH",
"431 808 OFFCURVE",
"418 815 OFFCURVE",
"395 833 CURVE SMOOTH",
"382 843 OFFCURVE",
"365 850 OFFCURVE",
"348 850 CURVE SMOOTH",
"300 850 OFFCURVE",
"269 810 OFFCURVE",
"269 762 CURVE SMOOTH",
"269 541 LINE",
"250 547 OFFCURVE",
"231 550 OFFCURVE",
"209 550 CURVE SMOOTH",
"94 550 OFFCURVE",
"0 414 OFFCURVE",
"0 250 CURVE SMOOTH",
"0 76 OFFCURVE",
"92 -54 OFFCURVE",
"220 -54 CURVE SMOOTH",
"245 -54 OFFCURVE",
"270 -48 OFFCURVE",
"294 -37 CURVE",
"303 -45 OFFCURVE",
"315 -50 OFFCURVE",
"330 -50 CURVE SMOOTH",
"454 -50 LINE SMOOTH",
"474 -50 OFFCURVE",
"490 -25 OFFCURVE",
"490 7 CURVE SMOOTH",
"490 27 OFFCURVE",
"489 42 OFFCURVE",
"488 59 CURVE SMOOTH"
);
}
);
width = 490;
}
);
leftKerningGroup = o;
unicode = 0064;
},
{
glyphname = e;
lastChange = "2021-01-12 21:52:56 +0000";
layers = (
{
layerId = "8648B977-9A39-40CA-BC6D-5EEF213E062F";
paths = (
{
closed = 1;
nodes = (
"128 321 OFFCURVE",
"134 437 OFFCURVE",
"238 437 CURVE SMOOTH",
"280 437 OFFCURVE",
"309 388 OFFCURVE",
"309 335 CURVE SMOOTH",
"309 277 OFFCURVE",
"158 241 OFFCURVE",
"128 235 CURVE"
);
},
{
closed = 1;
nodes = (
"103 505 OFFCURVE",
"28 370 OFFCURVE",
"28 238 CURVE SMOOTH",
"28 114 OFFCURVE",
"95 -6 OFFCURVE",
"237 -6 CURVE SMOOTH",
"308 -6 OFFCURVE",
"409 66 OFFCURVE",
"409 121 CURVE SMOOTH",
"409 143 OFFCURVE",
"391 160 OFFCURVE",
"371 160 CURVE SMOOTH",
"326 160 OFFCURVE",
"319 63 OFFCURVE",
"230 63 CURVE SMOOTH",
"158 63 OFFCURVE",
"136 133 OFFCURVE",
"136 181 CURVE",
"150 184 OFFCURVE",
"424 244 OFFCURVE",
"424 331 CURVE SMOOTH",
"424 365 OFFCURVE",
"401 505 OFFCURVE",
"241 505 CURVE SMOOTH"
);
}
);
width = 447;
},
{
associatedMasterId = "8648B977-9A39-40CA-BC6D-5EEF213E062F";
layerId = "A2C9472D-6005-4096-9921-119CCFD73F6C";
name = bubble;
paths = (
{
closed = 1;
nodes = (
"418 242 OFFCURVE",
"447 282 OFFCURVE",
"447 331 CURVE SMOOTH",
"447 369 OFFCURVE",
"419.995 555 OFFCURVE",
"241 555 CURVE SMOOTH",
"102 555 OFFCURVE",
"0 418 OFFCURVE",
"0 238 CURVE SMOOTH",
"0 65 OFFCURVE",
"97 -56 OFFCURVE",
"237 -56 CURVE SMOOTH",
"330 -56 OFFCURVE",
"447 36.005 OFFCURVE",
"447 121 CURVE SMOOTH",
"447 168 OFFCURVE",
"415 207 OFFCURVE",
"376 210 CURVE"
);
}
);
width = 447;
}
);
leftKerningGroup = o;
unicode = 0065;
},
{
glyphname = f;
lastChange = "2021-01-12 21:52:57 +0000";
layers = (
{
guideLines = (
{
angle = 270;
position = "{189, 493}";
},
{
position = "{254, 714}";
}
);
layerId = "8648B977-9A39-40CA-BC6D-5EEF213E062F";
paths = (
{
closed = 1;
nodes = (
"23 443 OFFCURVE",
"28 431 OFFCURVE",
"40 431 CURVE SMOOTH",
"53 431 OFFCURVE",
"61 431 OFFCURVE",
"74 431 CURVE SMOOTH",
"79 431 OFFCURVE",
"80 359 OFFCURVE",
"80 293 CURVE SMOOTH",
"80 260 OFFCURVE",
"80 228 OFFCURVE",
"80 207 CURVE SMOOTH",
"80 67 OFFCURVE",
"72 46 OFFCURVE",
"51 25 CURVE SMOOTH",
"39 13 OFFCURVE",
"39 9 OFFCURVE",
"39 7 CURVE SMOOTH",
"39 3 OFFCURVE",
"43 0 OFFCURVE",
"48 0 CURVE SMOOTH",
"216 0 LINE SMOOTH",
"221 0 OFFCURVE",
"224 3 OFFCURVE",
"224 7 CURVE SMOOTH",
"224 9 OFFCURVE",
"223 12 OFFCURVE",
"213 25 CURVE SMOOTH",
"196 46 OFFCURVE",
"183 67 OFFCURVE",
"183 207 CURVE SMOOTH",
"183 239 OFFCURVE",
"183 274 OFFCURVE",
"183 307 CURVE SMOOTH",
"183 374 OFFCURVE",
"184 431 OFFCURVE",
"189 431 CURVE SMOOTH",
"212 431 OFFCURVE",
"240 431 OFFCURVE",
"270 431 CURVE SMOOTH",
"287 431 OFFCURVE",
"297 471 OFFCURVE",
"297 480 CURVE SMOOTH",
"297 488 OFFCURVE",
"292 500 OFFCURVE",
"280 500 CURVE SMOOTH",
"247 500 OFFCURVE",
"199 500 OFFCURVE",
"189 500 CURVE SMOOTH",
"181 500 OFFCURVE",
"181 597 OFFCURVE",
"181 614 CURVE SMOOTH",
"181 666 OFFCURVE",
"181 716 OFFCURVE",
"206 716 CURVE SMOOTH",
"223 716 OFFCURVE",
"233 710 OFFCURVE",
"233 694 CURVE SMOOTH",
"233 682 OFFCURVE",
"234 643 OFFCURVE",
"277 643 CURVE SMOOTH",
"312 643 OFFCURVE",
"329 675 OFFCURVE",
"329 700 CURVE SMOOTH",
"329 740 OFFCURVE",
"280 790 OFFCURVE",
"206 790 CURVE SMOOTH",
"92 790 OFFCURVE",
"89 652 OFFCURVE",
"89 563 CURVE SMOOTH",
"89 526 OFFCURVE",
"89 500 OFFCURVE",
"82 500 CURVE SMOOTH",
"74 500 OFFCURVE",
"57 500 OFFCURVE",
"50 500 CURVE SMOOTH",
"33 500 OFFCURVE",
"23 460 OFFCURVE",
"23 451 CURVE SMOOTH"
);
}
);
width = 289;
},
{
associatedMasterId = "8648B977-9A39-40CA-BC6D-5EEF213E062F";
layerId = "2BC0B40D-8EA1-4543-AE2D-C6DDE99F19F3";
name = bubble;
paths = (
{
closed = 1;
nodes = (
"244 597 OFFCURVE",
"259 593 OFFCURVE",
"277 593 CURVE SMOOTH",
"284 593 OFFCURVE",
"289 641 OFFCURVE",
"289 700 CURVE SMOOTH",
"289 777 OFFCURVE",
"250 840 OFFCURVE",
"206 840 CURVE SMOOTH",
"82 840 OFFCURVE",
"39 738 OFFCURVE",
"39 563 CURVE SMOOTH",
"39 558 OFFCURVE",
"40 553 OFFCURVE",
"42 549 CURVE",
"16 543 OFFCURVE",
"0 492 OFFCURVE",
"0 451 CURVE SMOOTH",
"0 414 OFFCURVE",
"17 381 OFFCURVE",
"40 381 CURVE SMOOTH",
"74 381 LINE SMOOTH",
"79 381 OFFCURVE",
"30 359 OFFCURVE",
"30 293 CURVE SMOOTH",
"30 207 LINE SMOOTH",
"30 87 OFFCURVE",
"25 69 OFFCURVE",
"16 60 CURVE SMOOTH",
"7 45 OFFCURVE",
"0 28 OFFCURVE",
"0 7 CURVE SMOOTH",
"0 -25 OFFCURVE",
"23 -50 OFFCURVE",
"48 -50 CURVE SMOOTH",
"216 -50 LINE SMOOTH",
"247 -50 OFFCURVE",
"274 -25 OFFCURVE",
"274 7 CURVE SMOOTH",
"274 26 OFFCURVE",
"264 41 OFFCURVE",
"250 58 CURVE SMOOTH",
"239 74 OFFCURVE",
"233 104 OFFCURVE",
"233 207 CURVE SMOOTH",
"233 307 LINE SMOOTH",
"233 374 OFFCURVE",
"184 381 OFFCURVE",
"189 381 CURVE SMOOTH",
"270 381 LINE SMOOTH",
"282 381 OFFCURVE",
"289 437 OFFCURVE",
"289 480 CURVE SMOOTH",
"289 517 OFFCURVE",
"285 550 OFFCURVE",
"280 550 CURVE SMOOTH",
"189 550 LINE SMOOTH",
"225 550 OFFCURVE",
"230 581 OFFCURVE",
"231 604 CURVE"
);
}
);
width = 289;
}
);
unicode = 0066;
},
{
glyphname = g;
lastChange = "2021-01-12 21:52:54 +0000";
layers = (
{
layerId = "8648B977-9A39-40CA-BC6D-5EEF213E062F";
paths = (
{
closed = 1;
nodes = (
"342 119 OFFCURVE",
"406 202 OFFCURVE",
"406 310 CURVE SMOOTH",
"406 415 OFFCURVE",
"328 496 OFFCURVE",
"219 496 CURVE SMOOTH",
"109 496 OFFCURVE",
"29 414 OFFCURVE",
"29 310 CURVE SMOOTH",
"29 202 OFFCURVE",
"119 119 OFFCURVE",
"219 119 CURVE SMOOTH"
);
},
{
closed = 1;
nodes = (
"129 380 OFFCURVE",
"151 445 OFFCURVE",
"218 445 CURVE SMOOTH",
"272 445 OFFCURVE",
"305 380 OFFCURVE",
"305 308 CURVE SMOOTH",
"305 232 OFFCURVE",
"283 172 OFFCURVE",
"215 172 CURVE SMOOTH",
"161 172 OFFCURVE",
"129 233 OFFCURVE",
"129 307 CURVE SMOOTH"
);
},
{
closed = 1;
nodes = (
"400 514 OFFCURVE",
"400 541 CURVE SMOOTH",
"400 566 OFFCURVE",
"382 584 OFFCURVE",
"353 584 CURVE SMOOTH",
"290 584 OFFCURVE",
"258 546 OFFCURVE",
"245 483 CURVE",
"258 436 LINE",
"268 478 OFFCURVE",
"281 515 OFFCURVE",
"310 515 CURVE SMOOTH",
"325 515 OFFCURVE",
"343 496 OFFCURVE",
"357 496 CURVE SMOOTH",
"377 496 OFFCURVE"
);
},
{
closed = 1;
nodes = (
"353 -200 OFFCURVE",
"447 -142 OFFCURVE",
"447 -45 CURVE SMOOTH",
"447 53 OFFCURVE",
"352 83 OFFCURVE",
"230 83 CURVE SMOOTH",
"186 83 OFFCURVE",
"166 78 OFFCURVE",
"152 78 CURVE SMOOTH",
"143 78 OFFCURVE",
"132 85 OFFCURVE",
"132 97 CURVE SMOOTH",
"132 106 OFFCURVE",
"134 119 OFFCURVE",
"186 146 CURVE",
"127 146 LINE",
"78 129 OFFCURVE",
"64 89 OFFCURVE",
"64 64 CURVE SMOOTH",
"64 22 OFFCURVE",
"105 16 OFFCURVE",
"115 16 CURVE SMOOTH",
"146 16 OFFCURVE",
"188 15 OFFCURVE",
"214 15 CURVE SMOOTH",
"298 15 OFFCURVE",
"348 8 OFFCURVE",
"348 -43 CURVE SMOOTH",
"348 -110 OFFCURVE",
"294 -135 OFFCURVE",
"241 -135 CURVE SMOOTH",
"165 -135 OFFCURVE",
"125 -118 OFFCURVE",
"125 -82 CURVE SMOOTH",
"125 -67 OFFCURVE",
"137 -65 OFFCURVE",
"137 -44 CURVE SMOOTH",
"137 -24 OFFCURVE",
"119 2 OFFCURVE",
"91 2 CURVE SMOOTH",
"45 2 OFFCURVE",
"37 -32 OFFCURVE",
"37 -66 CURVE SMOOTH",
"37 -151 OFFCURVE",
"124 -200 OFFCURVE",
"223 -200 CURVE SMOOTH"
);
}
);
width = 450;
},
{
associatedMasterId = "8648B977-9A39-40CA-BC6D-5EEF213E062F";
layerId = "BD989FCD-D4C5-41C3-895D-C0DAD6950D18";
name = bubble;
paths = (
{
closed = 1;
nodes = (
"420 157 OFFCURVE",
"450 226 OFFCURVE",
"450 310 CURVE SMOOTH",
"450 368 OFFCURVE",
"433 420 OFFCURVE",
"405 460 CURVE",
"432 477 OFFCURVE",
"450 507.006 OFFCURVE",
"450 541 CURVE SMOOTH",
"450 595 OFFCURVE",
"408 634 OFFCURVE",
"353 634 CURVE SMOOTH",
"288 634 OFFCURVE",
"240 603 OFFCURVE",
"213 546 CURVE",
"92 543 OFFCURVE",
"0 441 OFFCURVE",
"0 310 CURVE SMOOTH",
"0 247 OFFCURVE",
"17 190 OFFCURVE",
"43 147 CURVE",
"25 123 OFFCURVE",
"14 95 OFFCURVE",
"14 64 CURVE SMOOTH",
"14 51 OFFCURVE",
"16 39 OFFCURVE",
"21 27 CURVE",
"7 7 OFFCURVE",
"0 -25 OFFCURVE",
"0 -66 CURVE SMOOTH",
"0 -174 OFFCURVE",
"94 -250 OFFCURVE",
"223 -250 CURVE SMOOTH",
"357 -250 OFFCURVE",
"450 -169 OFFCURVE",
"450 -45 CURVE SMOOTH",
"450 35 OFFCURVE",
"422 89 OFFCURVE",
"368 115 CURVE"
);
}
);
width = 450;
}
);
unicode = 0067;
},
{
glyphname = h;
lastChange = "2021-01-12 21:52:56 +0000";
layers = (
{
guideLines = (
{
angle = 90;
position = "{171, 349}";
}
);
layerId = "8648B977-9A39-40CA-BC6D-5EEF213E062F";
paths = (
{
closed = 1;
nodes = (
"72 207 LINE SMOOTH",
"72 67 OFFCURVE",
"62 46 OFFCURVE",
"41 25 CURVE SMOOTH",
"29 13 OFFCURVE",
"29 9 OFFCURVE",
"29 7 CURVE SMOOTH",
"29 3 OFFCURVE",
"33 0 OFFCURVE",
"38 0 CURVE SMOOTH",
"196 0 LINE SMOOTH",
"201 0 OFFCURVE",
"204 3 OFFCURVE",
"204 7 CURVE SMOOTH",
"204 9 OFFCURVE",
"203 12 OFFCURVE",
"193 25 CURVE SMOOTH",
"176 46 OFFCURVE",
"171 67 OFFCURVE",
"171 207 CURVE SMOOTH",
"171 348 LINE SMOOTH",
"171 378 OFFCURVE",
"218 412 OFFCURVE",
"254 412 CURVE SMOOTH",
"306 412 OFFCURVE",
"327 373 OFFCURVE",
"327 302 CURVE SMOOTH",
"327 207 LINE SMOOTH",
"327 67 OFFCURVE",
"317 46 OFFCURVE",
"296 25 CURVE SMOOTH",
"284 13 OFFCURVE",
"284 9 OFFCURVE",
"284 7 CURVE SMOOTH",
"284 3 OFFCURVE",
"288 0 OFFCURVE",
"293 0 CURVE SMOOTH",
"451 0 LINE SMOOTH",
"456 0 OFFCURVE",
"459 3 OFFCURVE",
"459 7 CURVE SMOOTH",
"459 9 OFFCURVE",
"458 12 OFFCURVE",
"448 25 CURVE SMOOTH",
"431 46 OFFCURVE",
"426 67 OFFCURVE",
"426 207 CURVE SMOOTH",
"426 334 LINE SMOOTH",
"426 450 OFFCURVE",
"382 505 OFFCURVE",
"289 505 CURVE SMOOTH",
"228 505 OFFCURVE",
"184 450 OFFCURVE",
"176 450 CURVE SMOOTH",
"172 450 OFFCURVE",
"171 487 OFFCURVE",
"171 563 CURVE SMOOTH",
"171 613 OFFCURVE",
"171 678 OFFCURVE",
"171 762 CURVE SMOOTH",
"171 788 OFFCURVE",
"157 800 OFFCURVE",
"142 800 CURVE SMOOTH",
"136 800 OFFCURVE",
"131 798 OFFCURVE",
"126 794 CURVE SMOOTH",
"91 766 OFFCURVE",
"68 759 OFFCURVE",
"43 753 CURVE SMOOTH",
"34 751 OFFCURVE",
"31 743 OFFCURVE",
"31 737 CURVE SMOOTH",
"31 719 OFFCURVE",
"36 711 OFFCURVE",
"41 708 CURVE SMOOTH",
"64 696 OFFCURVE",
"72 689 OFFCURVE",
"72 666 CURVE SMOOTH"
);
},
{
closed = 0;
nodes = (
"42 754 LINE"
);
}
);
width = 488;
},
{
associatedMasterId = "8648B977-9A39-40CA-BC6D-5EEF213E062F";
layerId = "A39C58EB-C8E3-4151-80F7-F3765A9EDBEE";
name = bubble;
paths = (
{
closed = 1;
nodes = (
"479 67 OFFCURVE",
"476 88 OFFCURVE",
"476 207 CURVE SMOOTH",
"476 334 LINE SMOOTH",
"476 477 OFFCURVE",
"411 555 OFFCURVE",
"289 555 CURVE SMOOTH",
"265 555 OFFCURVE",
"242 550 OFFCURVE",
"219 539 CURVE",
"220 546 OFFCURVE",
"221 554 OFFCURVE",
"221 563 CURVE SMOOTH",
"221 762 LINE SMOOTH",
"221 810 OFFCURVE",
"190 850 OFFCURVE",
"142 850 CURVE SMOOTH",
"125 850 OFFCURVE",
"108 843 OFFCURVE",
"95 833 CURVE SMOOTH",
"72 815 OFFCURVE",
"59 808 OFFCURVE",
"32 802 CURVE SMOOTH",
"12 795 OFFCURVE",
"0 768 OFFCURVE",
"0 737 CURVE SMOOTH",
"0 707 OFFCURVE",
"5 679 OFFCURVE",
"17 664 CURVE SMOOTH",
"19 663 OFFCURVE",
"21 662 OFFCURVE",
"22 662 CURVE",
"22 207 LINE SMOOTH",
"22 90 OFFCURVE",
"16 71 OFFCURVE",
"6 60 CURVE SMOOTH",
"2 45 OFFCURVE",
"0 28 OFFCURVE",
"0 7 CURVE SMOOTH",
"0 -25 OFFCURVE",
"18 -50 OFFCURVE",
"38 -50 CURVE SMOOTH",
"196 -50 LINE SMOOTH",
"216 -50 OFFCURVE",
"234 -40 OFFCURVE",
"244 -25 CURVE",
"255 -40 OFFCURVE",
"273 -50 OFFCURVE",
"293 -50 CURVE SMOOTH",
"451 -50 LINE SMOOTH",
"471 -50 OFFCURVE",
"488 -25 OFFCURVE",
"488 7 CURVE SMOOTH",
"488 26 OFFCURVE",
"487 41 OFFCURVE",
"486 58 CURVE SMOOTH"
);
}
);
width = 488;
}
);
unicode = 0068;
},
{
glyphname = i;
lastChange = "2021-01-12 21:56:17 +0000";
layers = (
{
layerId = "8648B977-9A39-40CA-BC6D-5EEF213E062F";
paths = (
{
closed = 1;
nodes = (
"141 525 OFFCURVE",
"171 551 OFFCURVE",
"171 580 CURVE SMOOTH",
"171 617 OFFCURVE",
"139 627 OFFCURVE",
"100 627 CURVE SMOOTH",
"61 627 OFFCURVE",
"35 607 OFFCURVE",
"35 576 CURVE SMOOTH",
"35 542 OFFCURVE",
"62 525 OFFCURVE",
"99 525 CURVE SMOOTH"
);
},
{
closed = 1;
nodes = (
"77 207 LINE SMOOTH",
"77 67 OFFCURVE",
"67 46 OFFCURVE",
"46 25 CURVE SMOOTH",
"34 13 OFFCURVE",
"34 9 OFFCURVE",
"34 7 CURVE SMOOTH",
"34 3 OFFCURVE",
"38 0 OFFCURVE",
"43 0 CURVE SMOOTH",
"201 0 LINE SMOOTH",
"206 0 OFFCURVE",
"209 3 OFFCURVE",
"209 7 CURVE SMOOTH",
"209 9 OFFCURVE",
"208 12 OFFCURVE",
"198 25 CURVE SMOOTH",
"181 46 OFFCURVE",
"176 67 OFFCURVE",
"176 207 CURVE SMOOTH",
"176 468 LINE SMOOTH",
"176 490 OFFCURVE",
"162 502 OFFCURVE",
"147 502 CURVE SMOOTH",
"141 502 OFFCURVE",
"136 499 OFFCURVE",
"131 496 CURVE SMOOTH",
"96 474 OFFCURVE",
"73 469 OFFCURVE",
"48 465 CURVE SMOOTH",
"39 464 OFFCURVE",
"36 455 OFFCURVE",
"36 449 CURVE SMOOTH",
"36 431 OFFCURVE",
"41 423 OFFCURVE",
"46 420 CURVE SMOOTH",
"69 408 OFFCURVE",
"77 395 OFFCURVE",
"77 372 CURVE SMOOTH"
);
}
);
width = 245;
},
{
associatedMasterId = "8648B977-9A39-40CA-BC6D-5EEF213E062F";
layerId = "67C1CA91-8C13-4C0E-9752-DC6B0A90A446";
name = bubble;
paths = (
{
closed = 1;
nodes = (
"229 67 OFFCURVE",
"226 88 OFFCURVE",
"226 207 CURVE SMOOTH",
"226 468 LINE SMOOTH",
"226 491 OFFCURVE",
"218 511 OFFCURVE",
"204 527 CURVE",
"215 542 OFFCURVE",
"221 560 OFFCURVE",
"221 580 CURVE SMOOTH",
"221 643 OFFCURVE",
"172 677 OFFCURVE",
"100 677 CURVE SMOOTH",
"44 677 OFFCURVE",
"0 637 OFFCURVE",
"0 576 CURVE SMOOTH",
"0 547 OFFCURVE",
"6 522 OFFCURVE",
"15 505 CURVE",
"6 493 OFFCURVE",
"0 472 OFFCURVE",
"0 449 CURVE SMOOTH",
"0 417 OFFCURVE",
"8 387 OFFCURVE",
"27 374 CURVE",
"27 373 OFFCURVE",
"27 373 OFFCURVE",
"27 372 CURVE SMOOTH",
"27 207 LINE SMOOTH",
"27 90 OFFCURVE",
"21 71 OFFCURVE",
"11 60 CURVE SMOOTH",
"4 45 OFFCURVE",
"0 28 OFFCURVE",
"0 7 CURVE SMOOTH",
"0 -25 OFFCURVE",
"20 -50 OFFCURVE",
"43 -50 CURVE SMOOTH",
"201 -50 LINE SMOOTH",
"225 -50 OFFCURVE",
"245 -25 OFFCURVE",
"245 7 CURVE SMOOTH",
"245 26 OFFCURVE",
"241 41 OFFCURVE",
"236 58 CURVE SMOOTH"
);
}
);
width = 245;
}
);
unicode = 0069;
},
{
glyphname = j;
lastChange = "2021-01-12 21:52:56 +0000";
layers = (
{
layerId = "8648B977-9A39-40CA-BC6D-5EEF213E062F";
paths = (
{
closed = 1;
nodes = (
"71 -98 LINE SMOOTH",
"71 -117 OFFCURVE",
"56 -132 OFFCURVE",
"41 -132 CURVE SMOOTH",
"21 -132 OFFCURVE",
"20 -112 OFFCURVE",
"20 -99 CURVE SMOOTH",
"20 -97 OFFCURVE",
"20 -96 OFFCURVE",
"20 -95 CURVE SMOOTH",
"20 -65 OFFCURVE",
"6 -44 OFFCURVE",
"-24 -44 CURVE SMOOTH",
"-59 -44 OFFCURVE",
"-80 -72 OFFCURVE",
"-80 -92 CURVE SMOOTH",
"-80 -146 OFFCURVE",
"-16 -200 OFFCURVE",
"38 -200 CURVE SMOOTH",
"141 -200 OFFCURVE",
"170 -134 OFFCURVE",
"170 -81 CURVE SMOOTH",
"170 454 LINE SMOOTH",
"170 480 OFFCURVE",
"156 492 OFFCURVE",
"141 492 CURVE SMOOTH",
"135 492 OFFCURVE",
"126 489 OFFCURVE",
"121 486 CURVE SMOOTH",
"86 464 OFFCURVE",
"67 460 OFFCURVE",
"42 455 CURVE SMOOTH",
"33 453 OFFCURVE",
"30 445 OFFCURVE",
"30 439 CURVE SMOOTH",
"30 421 OFFCURVE",
"35 413 OFFCURVE",
"40 410 CURVE SMOOTH",
"63 398 OFFCURVE",
"71 390 OFFCURVE",
"71 367 CURVE SMOOTH"
);
},
{
closed = 1;
nodes = (
"135 525 OFFCURVE",
"170 551 OFFCURVE",
"170 580 CURVE SMOOTH",
"170 617 OFFCURVE",
"133 627 OFFCURVE",
"94 627 CURVE SMOOTH",
"55 627 OFFCURVE",
"24 607 OFFCURVE",
"24 576 CURVE SMOOTH",
"24 542 OFFCURVE",
"56 525 OFFCURVE",
"93 525 CURVE SMOOTH"
);
},
{
closed = 0;
nodes = (
"41 456 LINE"
);
}
);
width = 235;
},
{
associatedMasterId = "8648B977-9A39-40CA-BC6D-5EEF213E062F";
layerId = "65386412-A342-4D53-B75A-83115A9D1341";
name = bubble;
paths = (
{
closed = 1;
nodes = (
"235 644 OFFCURVE",
"176 677 OFFCURVE",
"94 677 CURVE SMOOTH",
"42 677 OFFCURVE",
"0 636 OFFCURVE",
"0 576 CURVE SMOOTH",
"0 543 OFFCURVE",
"6 515 OFFCURVE",
"15 498 CURVE",
"6 486 OFFCURVE",
"0 464 OFFCURVE",
"0 439 CURVE SMOOTH",
"0 409 OFFCURVE",
"4 381 OFFCURVE",
"16 366 CURVE SMOOTH",
"18 365 OFFCURVE",
"20 364 OFFCURVE",
"21 364 CURVE",
"21 -4 LINE",
"15 2 OFFCURVE",
"8 6 OFFCURVE",
"0 6 CURVE SMOOTH",
"0 6 OFFCURVE",
"0 -38 OFFCURVE",
"0 -92 CURVE SMOOTH",
"0 -172 OFFCURVE",
"19 -250 OFFCURVE",
"38 -250 CURVE SMOOTH",
"157 -250 OFFCURVE",
"235 -183 OFFCURVE",
"235 -81 CURVE SMOOTH",
"235 454 LINE SMOOTH",
"235 480 OFFCURVE",
"221 503 OFFCURVE",
"196 519 CURVE",
"220 536 OFFCURVE",
"235 557 OFFCURVE",
"235 580 CURVE SMOOTH"
);
}
);
width = 235;
}
);
unicode = 006A;
},
{
glyphname = k;
lastChange = "2021-01-12 21:52:55 +0000";
layers = (
{
guideLines = (
{
angle = 270;
position = "{429, 444}";
}
);
layerId = "8648B977-9A39-40CA-BC6D-5EEF213E062F";
paths = (
{
closed = 1;
nodes = (
"29 3 OFFCURVE",
"33 0 OFFCURVE",
"38 0 CURVE SMOOTH",
"194 0 LINE SMOOTH",
"199 0 OFFCURVE",
"202 3 OFFCURVE",
"202 7 CURVE SMOOTH",
"202 9 OFFCURVE",
"201 12 OFFCURVE",
"191 25 CURVE SMOOTH",
"174 46 OFFCURVE",
"169 97 OFFCURVE",
"169 207 CURVE SMOOTH",
"169 229 OFFCURVE",
"169 252 OFFCURVE",
"169 274 CURVE",
"169 279 OFFCURVE",
"175 287 OFFCURVE",
"179 287 CURVE SMOOTH",
"196 287 OFFCURVE",
"279 0 OFFCURVE",
"323 0 CURVE SMOOTH",
"433 0 LINE SMOOTH",
"442 0 OFFCURVE",
"446 5 OFFCURVE",
"446 12 CURVE SMOOTH",
"446 19 OFFCURVE",
"445 20 OFFCURVE",
"435 24 CURVE SMOOTH",
"388 44 OFFCURVE",
"246 312 OFFCURVE",
"246 350 CURVE SMOOTH",
"246 367 OFFCURVE",
"291 405 OFFCURVE",
"300 405 CURVE SMOOTH",
"311 405 OFFCURVE",
"322 394 OFFCURVE",
"333 383 CURVE SMOOTH",
"344 371 OFFCURVE",
"353 367 OFFCURVE",
"372 367 CURVE SMOOTH",
"407 367 OFFCURVE",
"434 396 OFFCURVE",
"434 429 CURVE SMOOTH",
"434 465 OFFCURVE",
"407 494 OFFCURVE",
"362 494 CURVE SMOOTH",
"265 494 OFFCURVE",
"186 356 OFFCURVE",
"174 356 CURVE SMOOTH",
"170 356 OFFCURVE",
"169 403 OFFCURVE",
"169 468 CURVE SMOOTH",
"169 558 OFFCURVE",
"169 683 OFFCURVE",
"169 762 CURVE SMOOTH",
"169 788 OFFCURVE",
"157 800 OFFCURVE",
"142 800 CURVE SMOOTH",
"136 800 OFFCURVE",
"131 798 OFFCURVE",
"126 794 CURVE SMOOTH",
"91 766 OFFCURVE",
"68 759 OFFCURVE",
"43 753 CURVE SMOOTH",
"34 751 OFFCURVE",
"31 743 OFFCURVE",
"31 737 CURVE SMOOTH",
"31 719 OFFCURVE",
"36 711 OFFCURVE",
"41 708 CURVE SMOOTH",
"64 696 OFFCURVE",
"72 689 OFFCURVE",
"72 666 CURVE SMOOTH",
"72 207 LINE SMOOTH",
"72 97 OFFCURVE",
"62 46 OFFCURVE",
"41 25 CURVE SMOOTH",
"29 13 OFFCURVE",
"29 9 OFFCURVE",
"29 7 CURVE SMOOTH"
);
}
);
width = 452;
},
{
associatedMasterId = "8648B977-9A39-40CA-BC6D-5EEF213E062F";
layerId = "04FCE116-8DE5-4B5F-9477-5B19AE15BC24";
name = bubble;
paths = (
{
closed = 1;
nodes = (
"433 79 OFFCURVE",
"299 320 OFFCURVE",
"296 349 CURVE SMOOTH",
"296 349 LINE SMOOTH",
"296 349 OFFCURVE",
"297 348 OFFCURVE",
"297 348 CURVE",
"318 326 OFFCURVE",
"341 317 OFFCURVE",
"372 317 CURVE SMOOTH",
"416 317 OFFCURVE",
"452 367 OFFCURVE",
"452 429 CURVE SMOOTH",
"452 496 OFFCURVE",
"413 544 OFFCURVE",
"362 544 CURVE SMOOTH",
"312 544 OFFCURVE",
"268 523 OFFCURVE",
"219 478 CURVE",
"219 762 LINE SMOOTH",
"219 811 OFFCURVE",
"190 850 OFFCURVE",
"142 850 CURVE SMOOTH",
"125 850 OFFCURVE",
"108 843 OFFCURVE",
"95 833 CURVE SMOOTH",
"72 815 OFFCURVE",
"59 808 OFFCURVE",
"32 802 CURVE SMOOTH",
"12 795 OFFCURVE",
"0 768 OFFCURVE",
"0 737 CURVE SMOOTH",
"0 707 OFFCURVE",
"5 679 OFFCURVE",
"17 664 CURVE SMOOTH",
"19 663 OFFCURVE",
"21 662 OFFCURVE",
"22 662 CURVE",
"22 207 LINE SMOOTH",
"22 119 OFFCURVE",
"14 69 OFFCURVE",
"6 60 CURVE SMOOTH",
"2 45 OFFCURVE",
"0 28 OFFCURVE",
"0 7 CURVE SMOOTH",
"0 -25 OFFCURVE",
"18 -50 OFFCURVE",
"38 -50 CURVE SMOOTH",
"194 -50 LINE SMOOTH",
"224 -50 OFFCURVE",
"249 -28 OFFCURVE",
"252 1 CURVE",
"272 -30 OFFCURVE",
"295 -50 OFFCURVE",
"323 -50 CURVE SMOOTH",
"433 -50 LINE SMOOTH",
"444 -50 OFFCURVE",
"452 -24 OFFCURVE",
"452 12 CURVE SMOOTH",
"452 42 OFFCURVE",
"452 59 OFFCURVE",
"452 70 CURVE SMOOTH"
);
}
);
width = 452;
}
);
unicode = 006B;
},
{
glyphname = l;
lastChange = "2021-01-12 21:52:54 +0000";
layers = (
{
guideLines = (
{
angle = 270;
position = "{79, 106}";
}
);
layerId = "8648B977-9A39-40CA-BC6D-5EEF213E062F";
paths = (
{
closed = 1;
nodes = (
"171 788 OFFCURVE",
"157 800 OFFCURVE",
"142 800 CURVE SMOOTH",
"136 800 OFFCURVE",
"131 798 OFFCURVE",
"126 794 CURVE SMOOTH",
"91 766 OFFCURVE",
"68 759 OFFCURVE",
"43 753 CURVE SMOOTH",
"34 751 OFFCURVE",
"31 743 OFFCURVE",
"31 737 CURVE SMOOTH",
"31 719 OFFCURVE",
"36 711 OFFCURVE",
"41 708 CURVE SMOOTH",
"64 696 OFFCURVE",
"72 689 OFFCURVE",
"72 666 CURVE SMOOTH",
"72 598 OFFCURVE",
"72 277 OFFCURVE",
"72 207 CURVE SMOOTH",
"72 67 OFFCURVE",
"62 46 OFFCURVE",
"41 25 CURVE SMOOTH",
"29 13 OFFCURVE",
"29 9 OFFCURVE",
"29 7 CURVE SMOOTH",
"29 3 OFFCURVE",
"33 0 OFFCURVE",
"38 0 CURVE SMOOTH",
"196 0 LINE SMOOTH",
"201 0 OFFCURVE",
"204 3 OFFCURVE",
"204 7 CURVE SMOOTH",
"204 9 OFFCURVE",
"203 12 OFFCURVE",
"193 25 CURVE SMOOTH",
"176 46 OFFCURVE",
"171 67 OFFCURVE",
"171 207 CURVE SMOOTH",
"171 762 LINE SMOOTH"
);
},
{
closed = 0;
nodes = (
"42 754 LINE"
);
}
);
width = 241;
},
{
associatedMasterId = "8648B977-9A39-40CA-BC6D-5EEF213E062F";
layerId = "198DB257-1E45-4E26-A064-FE53CDEBBC7A";
name = bubble;
paths = (
{
closed = 1;
nodes = (
"224 67 OFFCURVE",
"221 88 OFFCURVE",
"221 207 CURVE SMOOTH",
"221 762 LINE SMOOTH",
"221 810 OFFCURVE",
"190 850 OFFCURVE",
"142 850 CURVE SMOOTH",
"125 850 OFFCURVE",
"108 843 OFFCURVE",
"95 833 CURVE SMOOTH",
"72 815 OFFCURVE",
"59 808 OFFCURVE",
"32 802 CURVE SMOOTH",
"12 795 OFFCURVE",
"0 768 OFFCURVE",
"0 737 CURVE SMOOTH",
"0 707 OFFCURVE",
"5 679 OFFCURVE",
"17 664 CURVE SMOOTH",
"19 663 OFFCURVE",
"21 662 OFFCURVE",
"22 662 CURVE",
"22 207 LINE SMOOTH",
"22 90 OFFCURVE",
"16 71 OFFCURVE",
"6 60 CURVE SMOOTH",
"2 45 OFFCURVE",
"0 28 OFFCURVE",
"0 7 CURVE SMOOTH",
"0 -25 OFFCURVE",
"18 -50 OFFCURVE",
"38 -50 CURVE SMOOTH",
"196 -50 LINE SMOOTH",
"220 -50 OFFCURVE",
"241 -25 OFFCURVE",
"241 7 CURVE SMOOTH",
"241 26 OFFCURVE",
"237 41 OFFCURVE",
"231 58 CURVE SMOOTH"
);
}
);
width = 241;
}
);
unicode = 006C;
},
{
glyphname = m;
lastChange = "2021-01-12 21:52:57 +0000";
layers = (
{
layerId = "8648B977-9A39-40CA-BC6D-5EEF213E062F";
paths = (
{
closed = 1;
nodes = (
"33 3 OFFCURVE",
"37 0 OFFCURVE",
"42 0 CURVE SMOOTH",
"205 0 LINE SMOOTH",
"210 0 OFFCURVE",
"213 3 OFFCURVE",
"213 7 CURVE SMOOTH",
"213 9 OFFCURVE",
"212 12 OFFCURVE",
"202 25 CURVE SMOOTH",
"185 46 OFFCURVE",
"175 67 OFFCURVE",
"175 207 CURVE SMOOTH",
"175 372 LINE SMOOTH",
"175 395 OFFCURVE",
"217 412 OFFCURVE",
"243 412 CURVE SMOOTH",
"295 412 OFFCURVE",
"305 366 OFFCURVE",
"305 335 CURVE SMOOTH",
"305 207 LINE SMOOTH",
"305 67 OFFCURVE",
"300 46 OFFCURVE",
"279 25 CURVE SMOOTH",
"267 13 OFFCURVE",
"267 9 OFFCURVE",
"267 7 CURVE SMOOTH",
"267 3 OFFCURVE",
"271 0 OFFCURVE",
"276 0 CURVE SMOOTH",
"425 0 LINE SMOOTH",
"430 0 OFFCURVE",
"433 3 OFFCURVE",
"433 7 CURVE SMOOTH",
"433 9 OFFCURVE",
"432 12 OFFCURVE",
"422 25 CURVE SMOOTH",
"405 46 OFFCURVE",
"404 67 OFFCURVE",
"404 207 CURVE SMOOTH",
"404 334 LINE SMOOTH",
"404 347 OFFCURVE",
"404 359 OFFCURVE",
"404 371 CURVE SMOOTH",
"404 394 OFFCURVE",
"446 412 OFFCURVE",
"472 412 CURVE SMOOTH",
"524 412 OFFCURVE",
"534 366 OFFCURVE",
"534 335 CURVE SMOOTH",
"534 207 LINE SMOOTH",
"534 67 OFFCURVE",
"519 46 OFFCURVE",
"498 25 CURVE SMOOTH",
"486 13 OFFCURVE",
"486 9 OFFCURVE",
"486 7 CURVE SMOOTH",
"486 3 OFFCURVE",
"490 0 OFFCURVE",
"495 0 CURVE SMOOTH",
"658 0 LINE SMOOTH",
"663 0 OFFCURVE",
"666 3 OFFCURVE",
"666 7 CURVE SMOOTH",
"666 9 OFFCURVE",
"665 12 OFFCURVE",
"655 25 CURVE SMOOTH",
"638 46 OFFCURVE",
"633 67 OFFCURVE",
"633 207 CURVE SMOOTH",
"633 334 LINE SMOOTH",
"633 450 OFFCURVE",
"595 505 OFFCURVE",
"516 505 CURVE SMOOTH",
"459 505 OFFCURVE",
"423 474 OFFCURVE",
"390 434 CURVE",
"372 482 OFFCURVE",
"338 505 OFFCURVE",
"287 505 CURVE SMOOTH",
"238 505 OFFCURVE",
"204 483 OFFCURVE",
"175 451 CURVE",
"175 463 LINE SMOOTH",
"175 489 OFFCURVE",
"161 501 OFFCURVE",
"146 501 CURVE SMOOTH",
"140 501 OFFCURVE",
"135 499 OFFCURVE",
"130 495 CURVE SMOOTH",
"95 467 OFFCURVE",
"72 460 OFFCURVE",
"47 454 CURVE SMOOTH",
"38 452 OFFCURVE",
"35 444 OFFCURVE",
"35 438 CURVE SMOOTH",
"35 420 OFFCURVE",
"40 412 OFFCURVE",
"45 409 CURVE SMOOTH",
"68 397 OFFCURVE",
"76 390 OFFCURVE",
"76 367 CURVE SMOOTH",
"76 207 LINE SMOOTH",
"76 67 OFFCURVE",
"66 46 OFFCURVE",
"45 25 CURVE SMOOTH",
"33 13 OFFCURVE",
"33 9 OFFCURVE",
"33 7 CURVE SMOOTH"
);
}
);
width = 697;
},
{
associatedMasterId = "8648B977-9A39-40CA-BC6D-5EEF213E062F";
layerId = "A31F46DB-295B-456F-90C5-501E6D3C8070";
name = bubble;
paths = (
{
closed = 1;
nodes = (
"686 67 OFFCURVE",
"683 88 OFFCURVE",
"683 207 CURVE SMOOTH",
"683 334 LINE SMOOTH",
"683 477 OFFCURVE",
"625 555 OFFCURVE",
"516 555 CURVE SMOOTH",
"472 555 OFFCURVE",
"434 542 OFFCURVE",
"398 513 CURVE",
"370 541 OFFCURVE",
"333 555 OFFCURVE",
"287 555 CURVE SMOOTH",
"254 555 OFFCURVE",
"224 547 OFFCURVE",
"197 532 CURVE",
"183 544 OFFCURVE",
"166 551 OFFCURVE",
"146 551 CURVE SMOOTH",
"129 551 OFFCURVE",
"112 544 OFFCURVE",
"99 534 CURVE SMOOTH",
"76 516 OFFCURVE",
"63 509 OFFCURVE",
"36 503 CURVE SMOOTH",
"14 496 OFFCURVE",
"0 469 OFFCURVE",
"0 438 CURVE SMOOTH",
"0 408 OFFCURVE",
"6 380 OFFCURVE",
"21 365 CURVE SMOOTH",
"23 364 OFFCURVE",
"25 363 OFFCURVE",
"26 363 CURVE",
"26 207 LINE SMOOTH",
"26 90 OFFCURVE",
"20 71 OFFCURVE",
"10 60 CURVE SMOOTH",
"4 45 OFFCURVE",
"0 28 OFFCURVE",
"0 7 CURVE SMOOTH",
"0 -25 OFFCURVE",
"20 -50 OFFCURVE",
"42 -50 CURVE SMOOTH",
"205 -50 LINE SMOOTH",
"218 -50 OFFCURVE",
"230 -46 OFFCURVE",
"240 -38 CURVE",
"250 -46 OFFCURVE",
"263 -50 OFFCURVE",
"276 -50 CURVE SMOOTH",
"425 -50 LINE SMOOTH",
"438 -50 OFFCURVE",
"450 -46 OFFCURVE",
"460 -39 CURVE",
"470 -46 OFFCURVE",
"482 -50 OFFCURVE",
"495 -50 CURVE SMOOTH",
"658 -50 LINE SMOOTH",
"679 -50 OFFCURVE",
"697 -25 OFFCURVE",
"697 7 CURVE SMOOTH",
"697 26 OFFCURVE",
"695 41 OFFCURVE",
"693 58 CURVE SMOOTH"
);
}
);
width = 697;
}
);
unicode = 006D;
},
{
glyphname = n;
lastChange = "2021-01-12 21:52:56 +0000";
layers = (
{
layerId = "8648B977-9A39-40CA-BC6D-5EEF213E062F";
paths = (
{
closed = 1;
nodes = (
"33 3 OFFCURVE",
"37 0 OFFCURVE",
"42 0 CURVE SMOOTH",
"200 0 LINE SMOOTH",
"205 0 OFFCURVE",
"208 3 OFFCURVE",
"208 7 CURVE SMOOTH",
"208 9 OFFCURVE",
"207 12 OFFCURVE",
"197 25 CURVE SMOOTH",
"180 46 OFFCURVE",
"175 67 OFFCURVE",
"175 207 CURVE SMOOTH",
"175 358 LINE SMOOTH",
"175 388 OFFCURVE",
"222 412 OFFCURVE",
"258 412 CURVE SMOOTH",
"310 412 OFFCURVE",
"331 373 OFFCURVE",
"331 302 CURVE SMOOTH",
"331 207 LINE SMOOTH",
"331 67 OFFCURVE",
"325 46 OFFCURVE",
"304 25 CURVE SMOOTH",
"292 13 OFFCURVE",
"292 9 OFFCURVE",
"292 7 CURVE SMOOTH",
"292 3 OFFCURVE",
"296 0 OFFCURVE",
"301 0 CURVE SMOOTH",
"455 0 LINE SMOOTH",
"460 0 OFFCURVE",
"463 3 OFFCURVE",
"463 7 CURVE SMOOTH",
"463 9 OFFCURVE",
"462 12 OFFCURVE",
"452 25 CURVE SMOOTH",
"435 46 OFFCURVE",
"430 67 OFFCURVE",
"430 207 CURVE SMOOTH",
"430 334 LINE SMOOTH",
"430 450 OFFCURVE",
"381 505 OFFCURVE",
"302 505 CURVE SMOOTH",
"241 505 OFFCURVE",
"197 440 OFFCURVE",
"180 440 CURVE SMOOTH",
"175 440 OFFCURVE",
"175 453 OFFCURVE",
"175 459 CURVE SMOOTH",
"175 485 OFFCURVE",
"161 497 OFFCURVE",
"146 497 CURVE SMOOTH",
"140 497 OFFCURVE",
"135 495 OFFCURVE",
"130 491 CURVE SMOOTH",
"95 463 OFFCURVE",
"72 456 OFFCURVE",
"47 450 CURVE SMOOTH",
"38 448 OFFCURVE",
"35 440 OFFCURVE",
"35 434 CURVE SMOOTH",
"35 416 OFFCURVE",
"40 408 OFFCURVE",
"45 405 CURVE SMOOTH",
"68 393 OFFCURVE",
"76 386 OFFCURVE",
"76 363 CURVE SMOOTH",
"76 207 LINE SMOOTH",
"76 67 OFFCURVE",
"66 46 OFFCURVE",
"45 25 CURVE SMOOTH",
"33 13 OFFCURVE",
"33 9 OFFCURVE",
"33 7 CURVE SMOOTH"
);
}
);
width = 493;
},
{
associatedMasterId = "8648B977-9A39-40CA-BC6D-5EEF213E062F";
layerId = "27529393-74DC-4445-B70B-E1FD1560B9C2";
name = bubble;
paths = (
{
closed = 1;
nodes = (
"483 67 OFFCURVE",
"480 88 OFFCURVE",
"480 207 CURVE SMOOTH",
"480 334 LINE SMOOTH",
"480 472 OFFCURVE",
"414 555 OFFCURVE",
"302 555 CURVE SMOOTH",
"267 555 OFFCURVE",
"238 543 OFFCURVE",
"205 520 CURVE",
"191 537 OFFCURVE",
"171 547 OFFCURVE",
"146 547 CURVE SMOOTH",
"129 547 OFFCURVE",
"112 540 OFFCURVE",
"99 530 CURVE SMOOTH",
"76 512 OFFCURVE",
"63 505 OFFCURVE",
"36 499 CURVE SMOOTH",
"14 492 OFFCURVE",
"0 465 OFFCURVE",
"0 434 CURVE SMOOTH",
"0 404 OFFCURVE",
"6 376 OFFCURVE",
"21 361 CURVE SMOOTH",
"23 360 OFFCURVE",
"25 359 OFFCURVE",
"26 359 CURVE",
"26 207 LINE SMOOTH",
"26 90 OFFCURVE",
"20 71 OFFCURVE",
"10 60 CURVE SMOOTH",
"4 45 OFFCURVE",
"0 28 OFFCURVE",
"0 7 CURVE SMOOTH",
"0 -25 OFFCURVE",
"20 -50 OFFCURVE",
"42 -50 CURVE SMOOTH",
"200 -50 LINE SMOOTH",
"221 -50 OFFCURVE",
"240 -39 OFFCURVE",
"250 -22 CURVE",
"261 -39 OFFCURVE",
"280 -50 OFFCURVE",
"301 -50 CURVE SMOOTH",
"455 -50 LINE SMOOTH",
"476 -50 OFFCURVE",
"493 -25 OFFCURVE",
"493 7 CURVE SMOOTH",
"493 26 OFFCURVE",
"492 41 OFFCURVE",
"490 58 CURVE SMOOTH"
);
}
);
width = 493;
}
);
unicode = 006E;
},
{
glyphname = o;
lastChange = "2021-01-12 21:52:57 +0000";
layers = (
{
guideLines = (
{
angle = 270;
position = "{238, 510}";
},
{
angle = 270;
position = "{114, 510}";
},
{
angle = 270;
position = "{361, 510}";
},
{
position = "{454, 106}";
},
{
position = "{454, 396}";
},
{
angle = 270;
position = "{306, 511}";
},
{
angle = 270;
position = "{170, 510}";
},
{
position = "{361, 350}";
},
{
position = "{361, 146}";
},
{
angle = 90;
position = "{28, 182}";
},
{
angle = 90;
position = "{445, 182}";
}
);
layerId = "8648B977-9A39-40CA-BC6D-5EEF213E062F";
paths = (
{
closed = 1;
nodes = (
"361 -9 OFFCURVE",
"445 106 OFFCURVE",
"445 250 CURVE SMOOTH",
"445 396 OFFCURVE",
"361 507 OFFCURVE",
"238 507 CURVE SMOOTH",
"114 507 OFFCURVE",
"28 396 OFFCURVE",
"28 251 CURVE SMOOTH",
"28 106 OFFCURVE",
"114 -9 OFFCURVE",
"238 -9 CURVE SMOOTH"
);
},
{
closed = 1;
nodes = (
"127 350 OFFCURVE",
"170 438 OFFCURVE",
"238 438 CURVE SMOOTH",
"306 438 OFFCURVE",
"346 350 OFFCURVE",
"346 250 CURVE SMOOTH",
"346 146 OFFCURVE",
"306 60 OFFCURVE",
"238 60 CURVE SMOOTH",
"170 60 OFFCURVE",
"127 146 OFFCURVE",
"127 250 CURVE SMOOTH"
);
}
);
width = 473;
},
{
associatedMasterId = "8648B977-9A39-40CA-BC6D-5EEF213E062F";
layerId = "633AE231-4F41-4B67-8730-5B1B095C270D";
name = bubble;
paths = (
{
closed = 1;
nodes = (
"100 557 OFFCURVE",
"0 426 OFFCURVE",
"0 251 CURVE SMOOTH",
"0 75 OFFCURVE",
"101 -59 OFFCURVE",
"238 -59 CURVE SMOOTH",
"373 -59 OFFCURVE",
"473 74 OFFCURVE",
"473 250 CURVE SMOOTH",
"473 426 OFFCURVE",
"374 557 OFFCURVE",
"238 557 CURVE SMOOTH"
);
}
);
width = 473;
}
);
unicode = 006F;
},
{
glyphname = p;
lastChange = "2021-01-12 21:52:57 +0000";
layers = (
{
layerId = "8648B977-9A39-40CA-BC6D-5EEF213E062F";
paths = (
{
closed = 1;
nodes = (
"72 7 LINE SMOOTH",
"72 -133 OFFCURVE",
"64 -154 OFFCURVE",
"43 -175 CURVE SMOOTH",
"31 -187 OFFCURVE",
"31 -191 OFFCURVE",
"31 -193 CURVE SMOOTH",
"31 -197 OFFCURVE",
"35 -200 OFFCURVE",
"40 -200 CURVE SMOOTH",
"195 -200 LINE SMOOTH",
"200 -200 OFFCURVE",
"203 -197 OFFCURVE",
"203 -193 CURVE SMOOTH",
"203 -191 OFFCURVE",
"202 -188 OFFCURVE",
"192 -175 CURVE SMOOTH",
"175 -154 OFFCURVE",
"169 -133 OFFCURVE",
"169 7 CURVE SMOOTH",
"169 54 OFFCURVE",
"169 12 OFFCURVE",
"169 52 CURVE",
"169 54 OFFCURVE",
"171 55 OFFCURVE",
"172 55 CURVE SMOOTH",
"173 55 OFFCURVE",
"175 54 OFFCURVE",
"179 50 CURVE SMOOTH",
"193 36 OFFCURVE",
"220 9 OFFCURVE",
"278 9 CURVE SMOOTH",
"402 9 OFFCURVE",
"465 137 OFFCURVE",
"465 257 CURVE SMOOTH",
"465 388 OFFCURVE",
"401 500 OFFCURVE",
"278 500 CURVE SMOOTH",
"221 500 OFFCURVE",
"198 481 OFFCURVE",
"186 471 CURVE SMOOTH",
"182 467 OFFCURVE",
"179 465 OFFCURVE",
"176 465 CURVE SMOOTH",
"166 465 OFFCURVE",
"165 475 OFFCURVE",
"165 479 CURVE SMOOTH",
"165 505 OFFCURVE",
"151 517 OFFCURVE",
"142 517 CURVE SMOOTH",
"136 517 OFFCURVE",
"131 515 OFFCURVE",
"126 511 CURVE SMOOTH",
"91 483 OFFCURVE",
"68 476 OFFCURVE",
"43 470 CURVE SMOOTH",
"34 468 OFFCURVE",
"31 460 OFFCURVE",
"31 454 CURVE SMOOTH",
"31 436 OFFCURVE",
"36 428 OFFCURVE",
"41 425 CURVE SMOOTH",
"64 413 OFFCURVE",
"72 406 OFFCURVE",
"72 383 CURVE SMOOTH"
);
},
{
closed = 0;
nodes = (
"59 462 LINE"
);
},
{
closed = 1;
nodes = (
"159 345 OFFCURVE",
"183 431 OFFCURVE",
"264 431 CURVE SMOOTH",
"331 431 OFFCURVE",
"366 345 OFFCURVE",
"366 257 CURVE SMOOTH",
"366 155 OFFCURVE",
"342 71 OFFCURVE",
"261 71 CURVE SMOOTH",
"194 71 OFFCURVE",
"159 156 OFFCURVE",
"159 255 CURVE SMOOTH"
);
}
);
width = 493;
},
{
associatedMasterId = "8648B977-9A39-40CA-BC6D-5EEF213E062F";
layerId = "A964CDD9-E9C2-4085-B530-7A23C34B7192";
name = bubble;
paths = (
{
closed = 1;
nodes = (
"247 550 OFFCURVE",
"221 546 OFFCURVE",
"198 536 CURVE",
"185 555 OFFCURVE",
"166 567 OFFCURVE",
"142 567 CURVE SMOOTH",
"125 567 OFFCURVE",
"108 560 OFFCURVE",
"95 550 CURVE SMOOTH",
"72 532 OFFCURVE",
"59 525 OFFCURVE",
"32 519 CURVE SMOOTH",
"12 512 OFFCURVE",
"0 485 OFFCURVE",
"0 454 CURVE SMOOTH",
"0 424 OFFCURVE",
"5 396 OFFCURVE",
"17 381 CURVE SMOOTH",
"19 380 OFFCURVE",
"21 379 OFFCURVE",
"22 379 CURVE",
"22 7 LINE SMOOTH",
"22 -113 OFFCURVE",
"17 -131 OFFCURVE",
"8 -140 CURVE SMOOTH",
"3 -155 OFFCURVE",
"0 -172 OFFCURVE",
"0 -193 CURVE SMOOTH",
"0 -225 OFFCURVE",
"19 -250 OFFCURVE",
"40 -250 CURVE SMOOTH",
"195 -250 LINE SMOOTH",
"226 -250 OFFCURVE",
"253 -225 OFFCURVE",
"253 -193 CURVE SMOOTH",
"253 -174 OFFCURVE",
"243 -159 OFFCURVE",
"230 -142 CURVE SMOOTH",
"224 -134 OFFCURVE",
"220 -115 OFFCURVE",
"219 -33 CURVE",
"237 -38 OFFCURVE",
"257 -41 OFFCURVE",
"278 -41 CURVE SMOOTH",
"403 -41 OFFCURVE",
"493 87 OFFCURVE",
"493 257 CURVE SMOOTH",
"493 430 OFFCURVE",
"406 550 OFFCURVE",
"278 550 CURVE SMOOTH"
);
}
);
width = 493;
}
);
unicode = 0070;
},
{
glyphname = q;
lastChange = "2021-01-12 21:52:56 +0000";
layers = (
{
layerId = "8648B977-9A39-40CA-BC6D-5EEF213E062F";
paths = (
{
closed = 1;
nodes = (
"421 406 OFFCURVE",
"429 413 OFFCURVE",
"452 425 CURVE SMOOTH",
"457 428 OFFCURVE",
"462 436 OFFCURVE",
"462 454 CURVE SMOOTH",
"462 460 OFFCURVE",
"459 468 OFFCURVE",
"450 470 CURVE SMOOTH",
"425 476 OFFCURVE",
"402 483 OFFCURVE",
"367 511 CURVE SMOOTH",
"362 515 OFFCURVE",
"357 517 OFFCURVE",
"351 517 CURVE SMOOTH",
"342 517 OFFCURVE",
"328 505 OFFCURVE",
"328 479 CURVE SMOOTH",
"328 475 OFFCURVE",
"327 465 OFFCURVE",
"317 465 CURVE SMOOTH",
"314 465 OFFCURVE",
"311 467 OFFCURVE",
"307 471 CURVE SMOOTH",
"295 481 OFFCURVE",
"272 500 OFFCURVE",
"215 500 CURVE SMOOTH",
"92 500 OFFCURVE",
"28 397 OFFCURVE",
"28 257 CURVE SMOOTH",
"28 146 OFFCURVE",
"91 9 OFFCURVE",
"215 9 CURVE SMOOTH",
"273 9 OFFCURVE",
"300 36 OFFCURVE",
"314 50 CURVE SMOOTH",
"318 54 OFFCURVE",
"320 55 OFFCURVE",
"321 55 CURVE SMOOTH",
"322 55 OFFCURVE",
"324 54 OFFCURVE",
"324 52 CURVE",
"324 12 OFFCURVE",
"324 54 OFFCURVE",
"324 7 CURVE SMOOTH",
"324 -133 OFFCURVE",
"312 -154 OFFCURVE",
"295 -175 CURVE SMOOTH",
"285 -188 OFFCURVE",
"284 -191 OFFCURVE",
"284 -193 CURVE SMOOTH",
"284 -197 OFFCURVE",
"287 -200 OFFCURVE",
"292 -200 CURVE SMOOTH",
"448 -200 LINE SMOOTH",
"453 -200 OFFCURVE",
"457 -197 OFFCURVE",
"457 -193 CURVE SMOOTH",
"457 -191 OFFCURVE",
"457 -187 OFFCURVE",
"445 -175 CURVE SMOOTH",
"424 -154 OFFCURVE",
"421 -133 OFFCURVE",
"421 7 CURVE SMOOTH",
"421 383 LINE SMOOTH"
);
},
{
closed = 0;
nodes = (
"434 462 LINE"
);
},
{
closed = 1;
nodes = (
"334 163 OFFCURVE",
"299 78 OFFCURVE",
"232 78 CURVE SMOOTH",
"151 78 OFFCURVE",
"127 162 OFFCURVE",
"127 257 CURVE SMOOTH",
"127 350 OFFCURVE",
"162 436 OFFCURVE",
"229 436 CURVE SMOOTH",
"310 436 OFFCURVE",
"334 350 OFFCURVE",
"334 250 CURVE SMOOTH"
);
}
);
width = 493;
},
{
associatedMasterId = "8648B977-9A39-40CA-BC6D-5EEF213E062F";
layerId = "D6D27E05-4170-4D15-A172-5D8041204146";
name = bubble;
paths = (
{
closed = 1;
nodes = (
"472 379 OFFCURVE",
"474 380 OFFCURVE",
"476 381 CURVE SMOOTH",
"488 396 OFFCURVE",
"493 424 OFFCURVE",
"493 454 CURVE SMOOTH",
"493 485 OFFCURVE",
"481 512 OFFCURVE",
"461 519 CURVE SMOOTH",
"434 525 OFFCURVE",
"421 532 OFFCURVE",
"398 550 CURVE SMOOTH",
"385 560 OFFCURVE",
"368 567 OFFCURVE",
"351 567 CURVE SMOOTH",
"327 567 OFFCURVE",
"308 555 OFFCURVE",
"295 536 CURVE",
"272 546 OFFCURVE",
"246 550 OFFCURVE",
"215 550 CURVE SMOOTH",
"84 550 OFFCURVE",
"0 434 OFFCURVE",
"0 257 CURVE SMOOTH",
"0 91 OFFCURVE",
"93 -41 OFFCURVE",
"215 -41 CURVE SMOOTH",
"236 -41 OFFCURVE",
"256 -38 OFFCURVE",
"274 -33 CURVE",
"272 -110 OFFCURVE",
"266 -131 OFFCURVE",
"256 -144 CURVE SMOOTH",
"243 -160 OFFCURVE",
"234 -174 OFFCURVE",
"234 -193 CURVE SMOOTH",
"234 -225 OFFCURVE",
"261 -250 OFFCURVE",
"292 -250 CURVE SMOOTH",
"448 -250 LINE SMOOTH",
"472 -250 OFFCURVE",
"493 -225 OFFCURVE",
"493 -193 CURVE SMOOTH",
"493 -172 OFFCURVE",
"488 -155 OFFCURVE",
"480 -140 CURVE SMOOTH",
"474 -133 OFFCURVE",
"471 -120 OFFCURVE",
"471 7 CURVE SMOOTH",
"471 379 LINE"
);
}
);
width = 493;
}
);
leftKerningGroup = o;
unicode = 0071;
},
{
glyphname = r;
lastChange = "2021-01-12 21:52:57 +0000";
layers = (
{
layerId = "8648B977-9A39-40CA-BC6D-5EEF213E062F";
paths = (
{
closed = 1;
nodes = (
"34 3 OFFCURVE",
"38 0 OFFCURVE",
"43 0 CURVE SMOOTH",
"211 0 LINE SMOOTH",
"216 0 OFFCURVE",
"219 3 OFFCURVE",
"219 7 CURVE SMOOTH",
"219 9 OFFCURVE",
"218 12 OFFCURVE",
"208 25 CURVE SMOOTH",
"191 46 OFFCURVE",
"176 67 OFFCURVE",
"176 207 CURVE SMOOTH",
"176 359 LINE SMOOTH",
"176 406 OFFCURVE",
"219 423 OFFCURVE",
"240 423 CURVE SMOOTH",
"254 423 OFFCURVE",
"265 412 OFFCURVE",
"276 401 CURVE SMOOTH",
"287 389 OFFCURVE",
"299 377 OFFCURVE",
"318 377 CURVE SMOOTH",
"353 377 OFFCURVE",
"380 406 OFFCURVE",
"380 442 CURVE SMOOTH",
"380 478 OFFCURVE",
"353 507 OFFCURVE",
"293 507 CURVE SMOOTH",
"242 507 OFFCURVE",
"209 491 OFFCURVE",
"176 444 CURVE",
"176 463 LINE SMOOTH",
"176 489 OFFCURVE",
"161 502 OFFCURVE",
"146 502 CURVE SMOOTH",
"140 502 OFFCURVE",
"135 500 OFFCURVE",
"130 496 CURVE SMOOTH",
"95 468 OFFCURVE",
"72 461 OFFCURVE",
"47 455 CURVE SMOOTH",
"38 453 OFFCURVE",
"35 447 OFFCURVE",
"35 439 CURVE SMOOTH",
"35 421 OFFCURVE",
"40 413 OFFCURVE",
"45 410 CURVE SMOOTH",
"68 398 OFFCURVE",
"77 390 OFFCURVE",
"77 367 CURVE SMOOTH",
"77 207 LINE SMOOTH",
"77 67 OFFCURVE",
"67 46 OFFCURVE",
"46 25 CURVE SMOOTH",
"34 13 OFFCURVE",
"34 9 OFFCURVE",
"34 7 CURVE SMOOTH"
);
}
);
width = 376;
},
{
associatedMasterId = "8648B977-9A39-40CA-BC6D-5EEF213E062F";
layerId = "9D9D06E1-1FE8-41FE-838E-67BDC40D390A";
name = bubble;
paths = (
{
closed = 1;
nodes = (
"256 557 OFFCURVE",
"224 549 OFFCURVE",
"197 533 CURVE",
"183 545 OFFCURVE",
"166 552 OFFCURVE",
"146 552 CURVE SMOOTH",
"129 552 OFFCURVE",
"112 545 OFFCURVE",
"99 535 CURVE SMOOTH",
"76 517 OFFCURVE",
"63 510 OFFCURVE",
"36 504 CURVE SMOOTH",
"14 497 OFFCURVE",
"0 471 OFFCURVE",
"0 439 CURVE SMOOTH",
"0 409 OFFCURVE",
"6 381 OFFCURVE",
"21 366 CURVE SMOOTH",
"23 365 OFFCURVE",
"25 364 OFFCURVE",
"27 363 CURVE",
"27 207 LINE SMOOTH",
"27 90 OFFCURVE",
"21 71 OFFCURVE",
"11 60 CURVE SMOOTH",
"4 45 OFFCURVE",
"0 28 OFFCURVE",
"0 7 CURVE SMOOTH",
"0 -25 OFFCURVE",
"20 -50 OFFCURVE",
"43 -50 CURVE SMOOTH",
"211 -50 LINE SMOOTH",
"242 -50 OFFCURVE",
"269 -25 OFFCURVE",
"269 7 CURVE SMOOTH",
"269 27 OFFCURVE",
"258 42 OFFCURVE",
"245 59 CURVE SMOOTH",
"232 77 OFFCURVE",
"226 107 OFFCURVE",
"226 207 CURVE SMOOTH",
"226 359 LINE SMOOTH",
"226 365 OFFCURVE",
"230 369 OFFCURVE",
"234 372 CURVE",
"236 370 OFFCURVE",
"238 369 OFFCURVE",
"240 366 CURVE SMOOTH",
"263 341 OFFCURVE",
"287 327 OFFCURVE",
"318 327 CURVE SMOOTH",
"350 327 OFFCURVE",
"376 378 OFFCURVE",
"376 442 CURVE SMOOTH",
"376 512 OFFCURVE",
"342 557 OFFCURVE",
"293 557 CURVE SMOOTH"
);
}
);
width = 376;
}
);
unicode = 0072;
},
{
glyphname = s;
lastChange = "2021-01-12 21:52:54 +0000";
layers = (
{
layerId = "8648B977-9A39-40CA-BC6D-5EEF213E062F";
paths = (
{
closed = 1;
nodes = (
"35 277 OFFCURVE",
"108 252 OFFCURVE",
"182 227 CURVE SMOOTH",
"237 208 OFFCURVE",
"289 179 OFFCURVE",
"289 132 CURVE SMOOTH",
"289 95 OFFCURVE",
"271 55 OFFCURVE",
"210 55 CURVE SMOOTH",
"171 55 OFFCURVE",
"142 69 OFFCURVE",
"142 114 CURVE SMOOTH",
"142 143 OFFCURVE",
"123 176 OFFCURVE",
"84 176 CURVE SMOOTH",
"46 176 OFFCURVE",
"30 154 OFFCURVE",
"30 134 CURVE SMOOTH",
"30 64 OFFCURVE",
"103 -9 OFFCURVE",
"201 -9 CURVE SMOOTH",
"291 -9 OFFCURVE",
"388 33 OFFCURVE",
"388 132 CURVE SMOOTH",
"388 239 OFFCURVE",
"297 270 OFFCURVE",
"224 294 CURVE SMOOTH",
"175 310 OFFCURVE",
"134 335 OFFCURVE",
"134 377 CURVE SMOOTH",
"134 418 OFFCURVE",
"160 446 OFFCURVE",
"215 446 CURVE SMOOTH",
"233 446 OFFCURVE",
"292 442 OFFCURVE",
"292 404 CURVE SMOOTH",
"292 389 OFFCURVE",
"280 387 OFFCURVE",
"280 368 CURVE SMOOTH",
"280 348 OFFCURVE",
"303 329 OFFCURVE",
"328 329 CURVE SMOOTH",
"359 329 OFFCURVE",
"375 348 OFFCURVE",
"375 379 CURVE SMOOTH",
"375 450 OFFCURVE",
"317 510 OFFCURVE",
"210 510 CURVE SMOOTH",
"123 510 OFFCURVE",
"35 449 OFFCURVE",
"35 365 CURVE SMOOTH"
);
}
);
width = 419;
},
{
associatedMasterId = "8648B977-9A39-40CA-BC6D-5EEF213E062F";
layerId = "65B37B37-1BA5-4915-8E44-AF4AE12795C0";
name = bubble;
paths = (
{
closed = 1;
nodes = (
"397 297 OFFCURVE",
"419 332 OFFCURVE",
"419 379 CURVE SMOOTH",
"419 485 OFFCURVE",
"332 560 OFFCURVE",
"210 560 CURVE SMOOTH",
"97 560 OFFCURVE",
"0 472 OFFCURVE",
"0 365 CURVE SMOOTH",
"0 294 OFFCURVE",
"28 252 OFFCURVE",
"63 224 CURVE",
"27 217 OFFCURVE",
"0 182 OFFCURVE",
"0 134 CURVE SMOOTH",
"0 30 OFFCURVE",
"93 -59 OFFCURVE",
"201 -59 CURVE SMOOTH",
"328 -59 OFFCURVE",
"419 18 OFFCURVE",
"419 132 CURVE SMOOTH",
"419 206 OFFCURVE",
"394 253 OFFCURVE",
"362 284 CURVE"
);
}
);
width = 419;
}
);
unicode = 0073;
},
{
glyphname = t;
lastChange = "2021-01-12 21:52:55 +0000";
layers = (
{
guideLines = (
{
angle = 90;
position = "{347, 116}";
}
);
layerId = "8648B977-9A39-40CA-BC6D-5EEF213E062F";
paths = (
{
closed = 1;
nodes = (
"283 71 OFFCURVE",
"263 78 OFFCURVE",
"232 78 CURVE SMOOTH",
"199 78 OFFCURVE",
"183 94 OFFCURVE",
"183 140 CURVE SMOOTH",
"183 244 OFFCURVE",
"183 352 OFFCURVE",
"183 423 CURVE SMOOTH",
"183 433 OFFCURVE",
"191 433 OFFCURVE",
"324 433 CURVE SMOOTH",
"341 433 OFFCURVE",
"351 472 OFFCURVE",
"351 481 CURVE SMOOTH",
"351 490 OFFCURVE",
"346 502 OFFCURVE",
"334 502 CURVE SMOOTH",
"322 502 OFFCURVE",
"213 502 OFFCURVE",
"198 502 CURVE SMOOTH",
"178 502 OFFCURVE",
"177 595 OFFCURVE",
"177 651 CURVE SMOOTH",
"177 668 OFFCURVE",
"168 676 OFFCURVE",
"148 676 CURVE SMOOTH",
"98 676 OFFCURVE",
"93 527 OFFCURVE",
"63 509 CURVE SMOOTH",
"30 489 OFFCURVE",
"6 500 OFFCURVE",
"-1 484 CURVE SMOOTH",
"-4 477 OFFCURVE",
"-5 468 OFFCURVE",
"-5 458 CURVE SMOOTH",
"-5 445 OFFCURVE",
"-1 433 OFFCURVE",
"10 433 CURVE SMOOTH",
"65 433 OFFCURVE",
"84 433 OFFCURVE",
"84 423 CURVE SMOOTH",
"84 348 OFFCURVE",
"84 200 OFFCURVE",
"84 123 CURVE",
"84 58 OFFCURVE",
"116 0 OFFCURVE",
"193 0 CURVE SMOOTH",
"227 0 OFFCURVE",
"283 9 OFFCURVE",
"283 42 CURVE SMOOTH"
);
}
);
width = 344;
},
{
associatedMasterId = "8648B977-9A39-40CA-BC6D-5EEF213E062F";
layerId = "9B8BCFE9-0B6B-4920-88E6-1C3850915C9E";
name = bubble;
paths = (
{
closed = 1;
nodes = (
"240 357 OFFCURVE",
"261 383 OFFCURVE",
"324 383 CURVE SMOOTH",
"336 383 OFFCURVE",
"344 438 OFFCURVE",
"344 481 CURVE SMOOTH",
"344 520 OFFCURVE",
"340 552 OFFCURVE",
"334 552 CURVE SMOOTH",
"198 552 LINE SMOOTH",
"194 552 OFFCURVE",
"227 618 OFFCURVE",
"227 651 CURVE SMOOTH",
"227 697 OFFCURVE",
"195 726 OFFCURVE",
"148 726 CURVE SMOOTH",
"88 726 OFFCURVE",
"65 670 OFFCURVE",
"44 592 CURVE SMOOTH",
"36 564 OFFCURVE",
"28 551 OFFCURVE",
"27 547 CURVE",
"24 546 OFFCURVE",
"20 545 OFFCURVE",
"13 544 CURVE SMOOTH",
"7 540 OFFCURVE",
"3 530 OFFCURVE",
"0 504 CURVE SMOOTH",
"0 492 OFFCURVE",
"0 473 OFFCURVE",
"0 458 CURVE SMOOTH",
"0 418 OFFCURVE",
"4 383 OFFCURVE",
"10 383 CURVE SMOOTH",
"20 383 OFFCURVE",
"28 385 OFFCURVE",
"34 387 CURVE",
"34 123 LINE SMOOTH",
"34 19 OFFCURVE",
"97 -50 OFFCURVE",
"193 -50 CURVE SMOOTH",
"267 -50 OFFCURVE",
"333 -21 OFFCURVE",
"333 42 CURVE SMOOTH",
"333 98 OFFCURVE",
"294 128 OFFCURVE",
"232 128 CURVE SMOOTH",
"232 128 OFFCURVE",
"232 128 OFFCURVE",
"231 128 CURVE",
"232 130 OFFCURVE",
"233 134 OFFCURVE",
"233 140 CURVE SMOOTH",
"233 352 LINE"
);
}
);
width = 344;
}
);
unicode = 0074;
},
{
glyphname = u;
lastChange = "2021-01-12 21:52:57 +0000";
layers = (
{
layerId = "8648B977-9A39-40CA-BC6D-5EEF213E062F";
paths = (
{
closed = 1;
nodes = (
"302 8 OFFCURVE",
"303 0 OFFCURVE",
"311 0 CURVE SMOOTH",
"343 0 OFFCURVE",
"389 0 OFFCURVE",
"416 0 CURVE SMOOTH",
"421 0 OFFCURVE",
"424 3 OFFCURVE",
"424 7 CURVE SMOOTH",
"424 9 OFFCURVE",
"423 11 OFFCURVE",
"413 25 CURVE SMOOTH",
"397 47 OFFCURVE",
"390 67 OFFCURVE",
"390 207 CURVE SMOOTH",
"390 363 LINE SMOOTH",
"390 436 OFFCURVE",
"390 462 OFFCURVE",
"390 478 CURVE SMOOTH",
"390 490 OFFCURVE",
"390 500 OFFCURVE",
"382 500 CURVE",
"284 500 LINE",
"272 500 OFFCURVE",
"267 495 OFFCURVE",
"267 489 CURVE SMOOTH",
"267 486 OFFCURVE",
"269 479 OFFCURVE",
"272 476 CURVE SMOOTH",
"292 452 OFFCURVE",
"292 364 OFFCURVE",
"292 363 CURVE SMOOTH",
"292 160 LINE SMOOTH",
"292 112 OFFCURVE",
"245 73 OFFCURVE",
"216 73 CURVE SMOOTH",
"162 73 OFFCURVE",
"162 120 OFFCURVE",
"162 174 CURVE",
"162 363 LINE SMOOTH",
"162 436 OFFCURVE",
"162 462 OFFCURVE",
"162 478 CURVE SMOOTH",
"162 490 OFFCURVE",
"162 500 OFFCURVE",
"154 500 CURVE",
"56 500 LINE",
"44 500 OFFCURVE",
"39 495 OFFCURVE",
"39 489 CURVE SMOOTH",
"39 486 OFFCURVE",
"41 479 OFFCURVE",
"44 476 CURVE SMOOTH",
"63 452 OFFCURVE",
"64 364 OFFCURVE",
"64 363 CURVE SMOOTH",
"64 126 LINE",
"64 10 OFFCURVE",
"132 -2 OFFCURVE",
"179 -2 CURVE",
"227 -2 OFFCURVE",
"269 13 OFFCURVE",
"291 45 CURVE SMOOTH",
"293 48 OFFCURVE",
"295 51 OFFCURVE",
"297 51 CURVE SMOOTH",
"300 51 OFFCURVE",
"302 50 OFFCURVE",
"302 42 CURVE SMOOTH",
"302 14 LINE"
);
}
);
width = 460;
},
{
associatedMasterId = "8648B977-9A39-40CA-BC6D-5EEF213E062F";
layerId = "716E1C8F-F2A2-4E8D-9C2A-60813407B20D";
name = bubble;
paths = (
{
closed = 1;
nodes = (
"444 67 OFFCURVE",
"440 89 OFFCURVE",
"440 207 CURVE SMOOTH",
"440 478 LINE SMOOTH",
"440 517 OFFCURVE",
"424 550 OFFCURVE",
"382 550 CURVE SMOOTH",
"284 550 LINE SMOOTH",
"248 550 OFFCURVE",
"217 526 OFFCURVE",
"217 489 CURVE SMOOTH",
"217 474 OFFCURVE",
"223 456 OFFCURVE",
"234 444 CURVE SMOOTH",
"242 433 OFFCURVE",
"242 363.992 OFFCURVE",
"242 363 CURVE SMOOTH",
"242 160 LINE SMOOTH",
"242 147 OFFCURVE",
"223 123 OFFCURVE",
"216 123 CURVE SMOOTH",
"210 123 OFFCURVE",
"212 113 OFFCURVE",
"212 174 CURVE SMOOTH",
"212 478 LINE SMOOTH",
"212 517 OFFCURVE",
"196 550 OFFCURVE",
"154 550 CURVE SMOOTH",
"56 550 LINE SMOOTH",
"26 550 OFFCURVE",
"0 526 OFFCURVE",
"0 489 CURVE SMOOTH",
"0 474 OFFCURVE",
"2 457 OFFCURVE",
"5 445 CURVE SMOOTH",
"13 433 OFFCURVE",
"14 364 OFFCURVE",
"14 363 CURVE SMOOTH",
"14 126 LINE SMOOTH",
"14 12 OFFCURVE",
"72 -52 OFFCURVE",
"179 -52 CURVE SMOOTH",
"213 -52 OFFCURVE",
"244 -46 OFFCURVE",
"270 -34 CURVE",
"281 -44 OFFCURVE",
"294 -50 OFFCURVE",
"311 -50 CURVE SMOOTH",
"416 -50 LINE SMOOTH",
"440 -50 OFFCURVE",
"460 -25 OFFCURVE",
"460 7 CURVE SMOOTH",
"460 24 OFFCURVE",
"457 37 OFFCURVE",
"454 54 CURVE SMOOTH"
);
}
);
width = 460;
}
);
unicode = 0075;
},
{
glyphname = v;
lastChange = "2021-01-12 21:52:54 +0000";
layers = (
{
layerId = "8648B977-9A39-40CA-BC6D-5EEF213E062F";
paths = (
{
closed = 1;
nodes = (
"307 500 OFFCURVE",
"298 500 OFFCURVE",
"298 490 CURVE SMOOTH",
"298 478 OFFCURVE",
"325 460 OFFCURVE",
"325 432 CURVE SMOOTH",
"325 306 OFFCURVE",
"265 132 OFFCURVE",
"229 132 CURVE SMOOTH",
"202 132 OFFCURVE",
"136 321 OFFCURVE",
"136 432 CURVE SMOOTH",
"136 460 OFFCURVE",
"150 481 OFFCURVE",
"150 488 CURVE SMOOTH",
"150 497 OFFCURVE",
"147 500 OFFCURVE",
"139 500 CURVE SMOOTH",
"105 500 OFFCURVE",
"37 500 OFFCURVE",
"8 500 CURVE SMOOTH",
"3 500 OFFCURVE",
"0 497 OFFCURVE",
"0 493 CURVE SMOOTH",
"0 482 OFFCURVE",
"23 469 OFFCURVE",
"39 402 CURVE SMOOTH",
"53 342 OFFCURVE",
"126 -3 OFFCURVE",
"207 -3 CURVE SMOOTH",
"277 -3 OFFCURVE",
"415 353 OFFCURVE",
"415 482 CURVE SMOOTH",
"415 492 OFFCURVE",
"412 500 OFFCURVE",
"401 500 CURVE",
"315 500 LINE SMOOTH"
);
}
);
width = 428;
},
{
associatedMasterId = "8648B977-9A39-40CA-BC6D-5EEF213E062F";
layerId = "2332DD2E-AC35-4412-9929-67E5C6A793DD";
name = bubble;
paths = (
{
closed = 1;
nodes = (
"277 550 OFFCURVE",
"248 529 OFFCURVE",
"248 490 CURVE SMOOTH",
"248 472 OFFCURVE",
"256 457 OFFCURVE",
"267 443 CURVE SMOOTH",
"268 442 OFFCURVE",
"275 431 OFFCURVE",
"275 432 CURVE SMOOTH",
"275 396 OFFCURVE",
"236 214 OFFCURVE",
"230 186 CURVE",
"228 210 OFFCURVE",
"186 339 OFFCURVE",
"186 432 CURVE SMOOTH",
"186 439 OFFCURVE",
"188 445 OFFCURVE",
"193 458 CURVE SMOOTH",
"196 467 OFFCURVE",
"200 479 OFFCURVE",
"200 488 CURVE SMOOTH",
"200 525 OFFCURVE",
"175 550 OFFCURVE",
"139 550 CURVE SMOOTH",
"8 550 LINE SMOOTH",
"4 550 OFFCURVE",
"0 525 OFFCURVE",
"0 493 CURVE SMOOTH",
"0 478 OFFCURVE",
"0 464 OFFCURVE",
"0 452 CURVE SMOOTH",
"0 433 OFFCURVE",
"0 417 OFFCURVE",
"0 391 CURVE SMOOTH",
"51 161 OFFCURVE",
"104 -53 OFFCURVE",
"207 -53 CURVE SMOOTH",
"298 -53 OFFCURVE",
"428 308 OFFCURVE",
"428 482 CURVE SMOOTH",
"428 520 OFFCURVE",
"417 550 OFFCURVE",
"401 550 CURVE SMOOTH",
"315 550 LINE SMOOTH"
);
}
);
width = 428;
}
);
unicode = 0076;
},
{
glyphname = w;
lastChange = "2021-01-12 21:52:55 +0000";
layers = (
{
layerId = "8648B977-9A39-40CA-BC6D-5EEF213E062F";
paths = (
{
closed = 1;
nodes = (
"520 -3 OFFCURVE",
"594 323 OFFCURVE",
"609 402 CURVE SMOOTH",
"624 481 OFFCURVE",
"644 483 OFFCURVE",
"644 493 CURVE SMOOTH",
"644 497 OFFCURVE",
"641 500 OFFCURVE",
"636 500 CURVE SMOOTH",
"531 500 LINE SMOOTH",
"523 500 OFFCURVE",
"520 500 OFFCURVE",
"520 495 CURVE SMOOTH",
"520 490 OFFCURVE",
"522 486 OFFCURVE",
"528 481 CURVE SMOOTH",
"535 476 OFFCURVE",
"539 455 OFFCURVE",
"539 438 CURVE SMOOTH",
"539 379 OFFCURVE",
"490 132 OFFCURVE",
"463 132 CURVE SMOOTH",
"433 132 OFFCURVE",
"387 448 OFFCURVE",
"385 464 CURVE SMOOTH",
"382 484 OFFCURVE",
"372 500 OFFCURVE",
"359 500 CURVE SMOOTH",
"269 500 LINE SMOOTH",
"264 500 OFFCURVE",
"261 497 OFFCURVE",
"261 493 CURVE SMOOTH",
"261 483 OFFCURVE",
"290 470 OFFCURVE",
"290 432 CURVE SMOOTH",
"290 427 OFFCURVE",
"290 393 OFFCURVE",
"289 388 CURVE SMOOTH",
"274 296 OFFCURVE",
"243 132 OFFCURVE",
"212 132 CURVE SMOOTH",
"179 132 OFFCURVE",
"127 448 OFFCURVE",
"127 464 CURVE SMOOTH",
"127 477 OFFCURVE",
"135 482 OFFCURVE",
"135 489 CURVE SMOOTH",
"135 496 OFFCURVE",
"132 500 OFFCURVE",
"124 500 CURVE SMOOTH",
"5 500 LINE SMOOTH",
"0 500 OFFCURVE",
"-3 497 OFFCURVE",
"-3 493 CURVE SMOOTH",
"-3 483 OFFCURVE",
"26 482 OFFCURVE",
"42 402 CURVE SMOOTH",
"54 342 OFFCURVE",
"124 -3 OFFCURVE",
"192 -3 CURVE SMOOTH",
"250 -3 OFFCURVE",
"309 262 OFFCURVE",
"329 262 CURVE SMOOTH",
"344 262 OFFCURVE",
"381 -3 OFFCURVE",
"443 -3 CURVE SMOOTH"
);
}
);
width = 646;
},
{
associatedMasterId = "8648B977-9A39-40CA-BC6D-5EEF213E062F";
layerId = "9B79D4AC-3F3A-47FE-9FCD-0BB3A69AB27A";
name = bubble;
paths = (
{
closed = 1;
nodes = (
"497 550 OFFCURVE",
"470 531 OFFCURVE",
"470 495 CURVE SMOOTH",
"470 477 OFFCURVE",
"477 462 OFFCURVE",
"488 450 CURVE",
"489 447 OFFCURVE",
"489 443 OFFCURVE",
"489 438 CURVE SMOOTH",
"489 401 OFFCURVE",
"471 343 OFFCURVE",
"458 291 CURVE",
"449 369 OFFCURVE",
"436 461 OFFCURVE",
"435 470 CURVE SMOOTH",
"434 471 LINE SMOOTH",
"428 514 OFFCURVE",
"401 550 OFFCURVE",
"359 550 CURVE SMOOTH",
"269 550 LINE SMOOTH",
"238 550 OFFCURVE",
"211 525 OFFCURVE",
"211 493 CURVE SMOOTH",
"211 474 OFFCURVE",
"220 461 OFFCURVE",
"231 448 CURVE SMOOTH",
"240 439 OFFCURVE",
"240 437 OFFCURVE",
"240 432 CURVE SMOOTH",
"240 431 OFFCURVE",
"240 399 OFFCURVE",
"240 398 CURVE",
"232 351 OFFCURVE",
"225 313 OFFCURVE",
"219 283 CURVE",
"205 349 OFFCURVE",
"180 429 OFFCURVE",
"177 459 CURVE",
"182 468 OFFCURVE",
"185 479 OFFCURVE",
"185 489 CURVE SMOOTH",
"185 524 OFFCURVE",
"159 550 OFFCURVE",
"124 550 CURVE SMOOTH",
"5 550 LINE SMOOTH",
"2 550 OFFCURVE",
"0 525 OFFCURVE",
"0 493 CURVE SMOOTH",
"0 474 OFFCURVE",
"0 460 OFFCURVE",
"0 448 CURVE SMOOTH",
"0 437 OFFCURVE",
"0 424 OFFCURVE",
"0 392 CURVE SMOOTH",
"40 183 OFFCURVE",
"95 -53 OFFCURVE",
"192 -53 CURVE SMOOTH",
"252 -53 OFFCURVE",
"286 16 OFFCURVE",
"322 112 CURVE",
"349 16 OFFCURVE",
"381 -53 OFFCURVE",
"443 -53 CURVE SMOOTH",
"541 -53 OFFCURVE",
"608 181 OFFCURVE",
"646 393 CURVE SMOOTH",
"646 426 OFFCURVE",
"646 442 OFFCURVE",
"646 454 CURVE SMOOTH",
"646 465 OFFCURVE",
"646 478 OFFCURVE",
"646 493 CURVE SMOOTH",
"646 525 OFFCURVE",
"641 550 OFFCURVE",
"636 550 CURVE SMOOTH",
"531 550 LINE SMOOTH"
);
}
);
width = 646;
}
);
unicode = 0077;
},
{
glyphname = x;
lastChange = "2021-01-12 21:52:55 +0000";
layers = (
{
layerId = "8648B977-9A39-40CA-BC6D-5EEF213E062F";
paths = (
{
closed = 1;
nodes = (
"6 483 OFFCURVE",
"7 475 OFFCURVE",
"13 472 CURVE SMOOTH",
"37 460 OFFCURVE",
"57 450 OFFCURVE",
"80 415 CURVE SMOOTH",
"109 371 OFFCURVE",
"152 266 OFFCURVE",
"152 252 CURVE SMOOTH",
"152 242 OFFCURVE",
"10 50 OFFCURVE",
"10 18 CURVE SMOOTH",
"10 8 OFFCURVE",
"13 0 OFFCURVE",
"24 0 CURVE SMOOTH",
"155 0 LINE SMOOTH",
"164 0 OFFCURVE",
"173 0 OFFCURVE",
"173 12 CURVE SMOOTH",
"173 26 OFFCURVE",
"130 40 OFFCURVE",
"130 68 CURVE SMOOTH",
"130 111 OFFCURVE",
"182 188 OFFCURVE",
"195 188 CURVE SMOOTH",
"211 188 OFFCURVE",
"260 46 OFFCURVE",
"271 13 CURVE SMOOTH",
"275 2 OFFCURVE",
"290 0 OFFCURVE",
"293 0 CURVE",
"402 0 LINE SMOOTH",
"414 0 OFFCURVE",
"415 11 OFFCURVE",
"415 14 CURVE SMOOTH",
"415 18 OFFCURVE",
"414 25 OFFCURVE",
"408 28 CURVE SMOOTH",
"384 38 OFFCURVE",
"364 50 OFFCURVE",
"341 85 CURVE SMOOTH",
"313 127 OFFCURVE",
"269 239 OFFCURVE",
"269 253 CURVE SMOOTH",
"269 263 OFFCURVE",
"398 451 OFFCURVE",
"398 487 CURVE SMOOTH",
"398 492 OFFCURVE",
"395 500 OFFCURVE",
"384 500 CURVE SMOOTH",
"264 500 LINE SMOOTH",
"256 500 OFFCURVE",
"247 500 OFFCURVE",
"247 488 CURVE SMOOTH",
"247 469 OFFCURVE",
"280 460 OFFCURVE",
"280 432 CURVE SMOOTH",
"280 390 OFFCURVE",
"244 315 OFFCURVE",
"226 315 CURVE SMOOTH",
"210 315 OFFCURVE",
"170 460 OFFCURVE",
"152 487 CURVE SMOOTH",
"145 498 OFFCURVE",
"131 500 OFFCURVE",
"128 500 CURVE",
"19 500 LINE SMOOTH",
"7 500 OFFCURVE",
"6 490 OFFCURVE",
"6 487 CURVE SMOOTH"
);
}
);
width = 417;
},
{
associatedMasterId = "8648B977-9A39-40CA-BC6D-5EEF213E062F";
layerId = "6005CE46-D65D-41A9-A832-62C100B77F16";
name = bubble;
paths = (
{
closed = 1;
nodes = (
"401 84 OFFCURVE",
"394 91 OFFCURVE",
"383 113 CURVE SMOOTH",
"372 129 OFFCURVE",
"339 200 OFFCURVE",
"325 235 CURVE",
"331 245 OFFCURVE",
"340 276 OFFCURVE",
"347 287 CURVE SMOOTH",
"387 380 OFFCURVE",
"417 450 OFFCURVE",
"417 487 CURVE SMOOTH",
"417 523 OFFCURVE",
"402 550 OFFCURVE",
"384 550 CURVE SMOOTH",
"264 550 LINE SMOOTH",
"232 550 OFFCURVE",
"206 534 OFFCURVE",
"199 505 CURVE",
"197 509 OFFCURVE",
"196 512 OFFCURVE",
"194 514 CURVE SMOOTH",
"180 536 OFFCURVE",
"154 550 OFFCURVE",
"128 550 CURVE SMOOTH",
"19 550 LINE SMOOTH",
"8 550 OFFCURVE",
"0 522 OFFCURVE",
"0 487 CURVE SMOOTH",
"0 463 OFFCURVE",
"0 439 OFFCURVE",
"0 427 CURVE SMOOTH",
"22 414 OFFCURVE",
"28 408 OFFCURVE",
"38 388 CURVE SMOOTH",
"49 371 OFFCURVE",
"80 306 OFFCURVE",
"94 272 CURVE",
"87 261 OFFCURVE",
"77 227 OFFCURVE",
"69 215 CURVE SMOOTH",
"31 126 OFFCURVE",
"0 54.998 OFFCURVE",
"0 18 CURVE SMOOTH",
"0 -20 OFFCURVE",
"9 -50 OFFCURVE",
"24 -50 CURVE SMOOTH",
"155 -50 LINE SMOOTH",
"190 -50 OFFCURVE",
"217 -32 OFFCURVE",
"222 1 CURVE",
"223 0 OFFCURVE",
"223 -1 OFFCURVE",
"224 -3 CURVE SMOOTH",
"224 -4 LINE SMOOTH",
"234 -32 OFFCURVE",
"264 -50 OFFCURVE",
"293 -50 CURVE SMOOTH",
"402 -50 LINE SMOOTH",
"411 -50 OFFCURVE",
"417 -20.991 OFFCURVE",
"417 14 CURVE SMOOTH",
"417 40 OFFCURVE",
"417 65 OFFCURVE",
"417 75 CURVE SMOOTH"
);
}
);
width = 417;
}
);
unicode = 0078;
},
{
glyphname = y;
lastChange = "2021-01-12 21:52:57 +0000";
layers = (
{
layerId = "8648B977-9A39-40CA-BC6D-5EEF213E062F";
paths = (
{
closed = 1;
nodes = (
"-6 -165 OFFCURVE",
"24 -200 OFFCURVE",
"75 -200 CURVE SMOOTH",
"126 -200 OFFCURVE",
"211 -115 OFFCURVE",
"291 52 CURVE SMOOTH",
"344 163 OFFCURVE",
"413 389 OFFCURVE",
"413 482 CURVE SMOOTH",
"413 492 OFFCURVE",
"410 500 OFFCURVE",
"399 500 CURVE SMOOTH",
"307 500 LINE",
"297 500 OFFCURVE",
"294 497 OFFCURVE",
"294 490 CURVE SMOOTH",
"294 483 OFFCURVE",
"309 466 OFFCURVE",
"315 454 CURVE SMOOTH",
"318 448 OFFCURVE",
"321 441 OFFCURVE",
"321 433 CURVE SMOOTH",
"321 390 OFFCURVE",
"314 343 OFFCURVE",
"304 299 CURVE SMOOTH",
"284 210 OFFCURVE",
"252 132 OFFCURVE",
"228 132 CURVE SMOOTH",
"201 132 OFFCURVE",
"132 321 OFFCURVE",
"132 432 CURVE SMOOTH",
"132 457 OFFCURVE",
"142 478 OFFCURVE",
"146 486 CURVE SMOOTH",
"147 488 OFFCURVE",
"147 490 OFFCURVE",
"147 492 CURVE SMOOTH",
"147 498 OFFCURVE",
"144 500 OFFCURVE",
"136 500 CURVE SMOOTH",
"4 500 LINE SMOOTH",
"-1 500 OFFCURVE",
"-4 497 OFFCURVE",
"-4 493 CURVE SMOOTH",
"-4 482 OFFCURVE",
"19 469 OFFCURVE",
"35 402 CURVE SMOOTH",
"47 350 OFFCURVE",
"171 28 OFFCURVE",
"171 14 CURVE SMOOTH",
"171 -44 OFFCURVE",
"97 -94 OFFCURVE",
"82 -94 CURVE SMOOTH",
"58 -94 OFFCURVE",
"69 -77 OFFCURVE",
"38 -77 CURVE SMOOTH",
"11 -77 OFFCURVE",
"-6 -103 OFFCURVE",
"-6 -130 CURVE SMOOTH"
);
}
);
width = 429;
},
{
associatedMasterId = "8648B977-9A39-40CA-BC6D-5EEF213E062F";
layerId = "E797F2CE-6F70-48F6-A5D0-D68AE0CAABBC";
name = bubble;
paths = (
{
closed = 1;
nodes = (
"271 550 OFFCURVE",
"244 526 OFFCURVE",
"244 490 CURVE SMOOTH",
"244 472 OFFCURVE",
"253 457 OFFCURVE",
"264 442 CURVE SMOOTH",
"268 435 OFFCURVE",
"270 433 OFFCURVE",
"270 432 CURVE SMOOTH",
"271 430 LINE",
"271 396 OFFCURVE",
"265 355 OFFCURVE",
"255 310 CURVE SMOOTH",
"245 266 OFFCURVE",
"231 236 OFFCURVE",
"222 216 CURVE",
"209 266 OFFCURVE",
"182 360 OFFCURVE",
"182 432 CURVE SMOOTH",
"182 441 OFFCURVE",
"185 452 OFFCURVE",
"191 464 CURVE SMOOTH",
"195 471 OFFCURVE",
"197 484 OFFCURVE",
"197 492 CURVE SMOOTH",
"197 527 OFFCURVE",
"170 550 OFFCURVE",
"136 550 CURVE SMOOTH",
"4 550 LINE SMOOTH",
"2 550 OFFCURVE",
"0 525 OFFCURVE",
"0 493 CURVE SMOOTH",
"0 478 OFFCURVE",
"0 464 OFFCURVE",
"0 452 CURVE SMOOTH",
"0 433 OFFCURVE",
"0 417 OFFCURVE",
"0 391 CURVE SMOOTH",
"6 360 OFFCURVE",
"39 250 OFFCURVE",
"68 156 CURVE SMOOTH",
"105 56 OFFCURVE",
"117 20 OFFCURVE",
"120 10 CURVE",
"116 -3 OFFCURVE",
"96 -31 OFFCURVE",
"86 -41 CURVE",
"73 -31 OFFCURVE",
"57 -27 OFFCURVE",
"38 -27 CURVE SMOOTH",
"16 -27 OFFCURVE",
"0 -74 OFFCURVE",
"0 -130 CURVE SMOOTH",
"0 -199 OFFCURVE",
"34 -250 OFFCURVE",
"75 -250 CURVE SMOOTH",
"157 -250 OFFCURVE",
"253 -142 OFFCURVE",
"336 30 CURVE SMOOTH",
"382 161 OFFCURVE",
"429 390 OFFCURVE",
"429 482 CURVE SMOOTH",
"429 520 OFFCURVE",
"417 550 OFFCURVE",
"399 550 CURVE SMOOTH",
"307 550 LINE SMOOTH"
);
}
);
width = 429;
}
);
unicode = 0079;
},
{
glyphname = z;
lastChange = "2021-01-12 21:52:54 +0000";
layers = (
{
guideLines = (
{
position = "{408, 430}";
}
);
layerId = "8648B977-9A39-40CA-BC6D-5EEF213E062F";
paths = (
{
closed = 1;
nodes = (
"250 435 OFFCURVE",
"253 431 OFFCURVE",
"253 427 CURVE SMOOTH",
"253 377 OFFCURVE",
"58 102 OFFCURVE",
"39 79 CURVE SMOOTH",
"27 65 OFFCURVE",
"14 46 OFFCURVE",
"14 32 CURVE SMOOTH",
"14 11 OFFCURVE",
"23 0 OFFCURVE",
"46 0 CURVE",
"368 0 LINE",
"392 0 OFFCURVE",
"393 21 OFFCURVE",
"393 29 CURVE SMOOTH",
"393 104 LINE",
"393 109 OFFCURVE",
"390 116 OFFCURVE",
"383 116 CURVE SMOOTH",
"375 116 OFFCURVE",
"369 111 OFFCURVE",
"352 96 CURVE SMOOTH",
"334 80 OFFCURVE",
"309 80 OFFCURVE",
"169 80 CURVE SMOOTH",
"162 80 OFFCURVE",
"159 84 OFFCURVE",
"159 91 CURVE SMOOTH",
"159 118 OFFCURVE",
"362 414 OFFCURVE",
"366 420 CURVE SMOOTH",
"377 434 OFFCURVE",
"388 452 OFFCURVE",
"388 468 CURVE SMOOTH",
"388 486 OFFCURVE",
"378 500 OFFCURVE",
"356 500 CURVE SMOOTH",
"53 498 LINE",
"39 498 OFFCURVE",
"29 489 OFFCURVE",
"29 471 CURVE SMOOTH",
"29 419 LINE SMOOTH",
"29 411 OFFCURVE",
"31 402 OFFCURVE",
"43 402 CURVE SMOOTH",
"62 402 OFFCURVE",
"67 435 OFFCURVE",
"108 435 CURVE SMOOTH",
"243 435 LINE SMOOTH"
);
}
);
width = 416;
},
{
associatedMasterId = "8648B977-9A39-40CA-BC6D-5EEF213E062F";
layerId = "ED61A1F8-979C-4B94-BCEA-6D3CB479F788";
name = bubble;
paths = (
{
closed = 1;
nodes = (
"358 166 OFFCURVE",
"342 154 OFFCURVE",
"319 133 CURVE SMOOTH",
"318 132 OFFCURVE",
"299 131 OFFCURVE",
"234 130 CURVE",
"285 208 OFFCURVE",
"395 373 OFFCURVE",
"407 391 CURVE SMOOTH",
"412 415 OFFCURVE",
"416 443 OFFCURVE",
"416 468 CURVE SMOOTH",
"416 515 OFFCURVE",
"391 550 OFFCURVE",
"356 550 CURVE SMOOTH",
"53 548 LINE SMOOTH",
"22 548 OFFCURVE",
"0 515 OFFCURVE",
"0 471 CURVE SMOOTH",
"0 419 LINE SMOOTH",
"0 380 OFFCURVE",
"18 352 OFFCURVE",
"43 352 CURVE SMOOTH",
"65 352 OFFCURVE",
"82 363 OFFCURVE",
"98 379 CURVE SMOOTH",
"107 387 OFFCURVE",
"105 385 OFFCURVE",
"108 385 CURVE SMOOTH",
"182 385 LINE",
"139 311 OFFCURVE",
"42 161 OFFCURVE",
"1 111 CURVE SMOOTH",
"0 87 OFFCURVE",
"0 58 OFFCURVE",
"0 32 CURVE SMOOTH",
"0 -18 OFFCURVE",
"19 -50 OFFCURVE",
"46 -50 CURVE SMOOTH",
"368 -50 LINE SMOOTH",
"397 -50 OFFCURVE",
"416 -17 OFFCURVE",
"416 29 CURVE SMOOTH",
"416 104 LINE SMOOTH",
"416 137 OFFCURVE",
"402 166 OFFCURVE",
"383 166 CURVE SMOOTH"
);
}
);
width = 416;
}
);
unicode = 007A;
},
{
glyphname = a.ss01;
lastChange = "2021-01-12 21:27:47 +0000";
layers = (
{
layerId = "8648B977-9A39-40CA-BC6D-5EEF213E062F";
paths = (
{
closed = 1;
nodes = (
"122 234 OFFCURVE",
"196 263 OFFCURVE",
"296 263 CURVE",
"296 140 LINE SMOOTH",
"296 92 OFFCURVE",
"227 61 OFFCURVE",
"188 61 CURVE SMOOTH",
"145 61 OFFCURVE",
"122 101 OFFCURVE",
"122 146 CURVE SMOOTH"
);
},
{
closed = 1;
nodes = (
"393 483 OFFCURVE",
"289 510 OFFCURVE",
"225 510 CURVE SMOOTH",
"116 510 OFFCURVE",
"50 451 OFFCURVE",
"50 379 CURVE SMOOTH",
"50 359 OFFCURVE",
"66 330 OFFCURVE",
"97 330 CURVE SMOOTH",
"144 330 OFFCURVE",
"157 358 OFFCURVE",
"157 374 CURVE SMOOTH",
"157 388 OFFCURVE",
"151 395 OFFCURVE",
"151 400 CURVE SMOOTH",
"151 427 OFFCURVE",
"186 449 OFFCURVE",
"230 449 CURVE SMOOTH",
"260 449 OFFCURVE",
"294 440 OFFCURVE",
"294 372 CURVE",
"294 307 LINE",
"177 307 OFFCURVE",
"32 286 OFFCURVE",
"32 136 CURVE SMOOTH",
"32 15 OFFCURVE",
"112 -4 OFFCURVE",
"158 -4 CURVE SMOOTH",
"228 -4 OFFCURVE",
"278 26 OFFCURVE",
"293 45 CURVE SMOOTH",
"297 50 OFFCURVE",
"298 51 OFFCURVE",
"300 51 CURVE SMOOTH",
"303 51 OFFCURVE",
"305 47 OFFCURVE",
"305 40 CURVE SMOOTH",
"305 30 OFFCURVE",
"305 25 OFFCURVE",
"305 14 CURVE SMOOTH",
"305 8 OFFCURVE",
"306 0 OFFCURVE",
"314 0 CURVE SMOOTH",
"346 0 OFFCURVE",
"392 0 OFFCURVE",
"419 0 CURVE SMOOTH",
"424 0 OFFCURVE",
"427 3 OFFCURVE",
"427 7 CURVE SMOOTH",
"427 9 OFFCURVE",
"426 11 OFFCURVE",
"416 25 CURVE SMOOTH",
"400 47 OFFCURVE",
"393 67 OFFCURVE",
"393 207 CURVE SMOOTH",
"393 377 LINE"
);
}
);
width = 456;
},
{
associatedMasterId = "8648B977-9A39-40CA-BC6D-5EEF213E062F";
layerId = "5886D338-7C26-45CB-AE20-D21778A83670";
name = bubble;
paths = (
{
closed = 1;
nodes = (
"447 67 OFFCURVE",
"443 89 OFFCURVE",
"443 207 CURVE SMOOTH",
"443 377 LINE SMOOTH",
"443 487 OFFCURVE",
"353 560 OFFCURVE",
"225 560 CURVE SMOOTH",
"95 560 OFFCURVE",
"0 485 OFFCURVE",
"0 379 CURVE SMOOTH",
"0 343 OFFCURVE",
"20 310 OFFCURVE",
"50 293 CURVE",
"17 256 OFFCURVE",
"0 204 OFFCURVE",
"0 136 CURVE SMOOTH",
"0 19 OFFCURVE",
"61 -54 OFFCURVE",
"158 -54 CURVE SMOOTH",
"197 -54 OFFCURVE",
"237 -45 OFFCURVE",
"270 -30 CURVE",
"281 -43 OFFCURVE",
"296 -50 OFFCURVE",
"314 -50 CURVE SMOOTH",
"419 -50 LINE SMOOTH",
"439 -50 OFFCURVE",
"456 -25 OFFCURVE",
"456 7 CURVE SMOOTH",
"456 24 OFFCURVE",
"456 37 OFFCURVE",
"456 54 CURVE SMOOTH"
);
}
);
width = 456;
}
);
},
{
glyphname = g.ss01;
lastChange = "2021-01-12 21:27:48 +0000";
layers = (
{
layerId = "8648B977-9A39-40CA-BC6D-5EEF213E062F";
paths = (
{
closed = 1;
nodes = (
"351 119 OFFCURVE",
"415 202 OFFCURVE",
"415 310 CURVE SMOOTH",
"415 415 OFFCURVE",
"337 496 OFFCURVE",
"228 496 CURVE SMOOTH",
"118 496 OFFCURVE",
"38 414 OFFCURVE",
"38 310 CURVE SMOOTH",
"38 202 OFFCURVE",
"128 119 OFFCURVE",
"228 119 CURVE SMOOTH"
);
},
{
closed = 1;
nodes = (
"138 380 OFFCURVE",
"160 445 OFFCURVE",
"227 445 CURVE SMOOTH",
"281 445 OFFCURVE",
"314 380 OFFCURVE",
"314 308 CURVE SMOOTH",
"314 232 OFFCURVE",
"292 172 OFFCURVE",
"224 172 CURVE SMOOTH",
"170 172 OFFCURVE",
"138 233 OFFCURVE",
"138 307 CURVE SMOOTH"
);
},
{
closed = 1;
nodes = (
"413 472 OFFCURVE",
"433 493 OFFCURVE",
"433 518 CURVE SMOOTH",
"433 543 OFFCURVE",
"413 563 OFFCURVE",
"371 563 CURVE SMOOTH",
"325 563 OFFCURVE",
"299 554 OFFCURVE",
"266 492 CURVE",
"266 433 LINE",
"304 501 OFFCURVE",
"315 505 OFFCURVE",
"334 505 CURVE SMOOTH",
"343 505 OFFCURVE",
"352 496 OFFCURVE",
"359 488 CURVE SMOOTH",
"367 478 OFFCURVE",
"375 472 OFFCURVE",
"389 472 CURVE SMOOTH"
);
},
{
closed = 1;
nodes = (
"362 -200 OFFCURVE",
"440 -142 OFFCURVE",
"440 -45 CURVE SMOOTH",
"440 53 OFFCURVE",
"361 86 OFFCURVE",
"239 86 CURVE SMOOTH",
"211 86 OFFCURVE",
"168 78 OFFCURVE",
"161 78 CURVE SMOOTH",
"152 78 OFFCURVE",
"141 78 OFFCURVE",
"141 92 CURVE SMOOTH",
"141 106 OFFCURVE",
"143 119 OFFCURVE",
"195 146 CURVE",
"136 146 LINE",
"87 129 OFFCURVE",
"73 89 OFFCURVE",
"73 64 CURVE SMOOTH",
"73 24 OFFCURVE",
"105 18 OFFCURVE",
"149 18 CURVE SMOOTH",
"172 18 OFFCURVE",
"197 20 OFFCURVE",
"223 20 CURVE SMOOTH",
"307 20 OFFCURVE",
"353 0 OFFCURVE",
"353 -43 CURVE SMOOTH",
"353 -106 OFFCURVE",
"303 -131 OFFCURVE",
"220 -131 CURVE SMOOTH",
"151 -131 OFFCURVE",
"112 -57 OFFCURVE",
"112 -18 CURVE SMOOTH",
"112 22 OFFCURVE",
"72 32 OFFCURVE",
"52 32 CURVE SMOOTH",
"32 32 OFFCURVE",
"13 21 OFFCURVE",
"13 0 CURVE SMOOTH",
"13 -119 OFFCURVE",
"113 -200 OFFCURVE",
"232 -200 CURVE SMOOTH"
);
}
);
width = 461;
},
{
associatedMasterId = "8648B977-9A39-40CA-BC6D-5EEF213E062F";
layerId = "618025C0-86E7-49D1-869A-94E01D6EDF51";
name = bubble;
paths = (
{
closed = 1;
nodes = (
"430 158 OFFCURVE",
"461 226 OFFCURVE",
"461 310 CURVE SMOOTH",
"461 356 OFFCURVE",
"451 397 OFFCURVE",
"432 433 CURVE",
"449 449 OFFCURVE",
"461 481 OFFCURVE",
"461 518 CURVE SMOOTH",
"461 577 OFFCURVE",
"422 613 OFFCURVE",
"371 613 CURVE SMOOTH",
"310 613 OFFCURVE",
"273 594 OFFCURVE",
"240 546 CURVE",
"236 546 OFFCURVE",
"231.995 546 OFFCURVE",
"228 546 CURVE SMOOTH",
"99 546 OFFCURVE",
"0 443 OFFCURVE",
"0 310 CURVE SMOOTH",
"0 247 OFFCURVE",
"20 190 OFFCURVE",
"52 147 CURVE",
"37 127 OFFCURVE",
"27 103 OFFCURVE",
"24 78 CURVE",
"10 68 OFFCURVE",
"0 38 OFFCURVE",
"0 0 CURVE SMOOTH",
"0 -142 OFFCURVE",
"101 -250 OFFCURVE",
"232 -250 CURVE SMOOTH",
"372 -250 OFFCURVE",
"461 -171 OFFCURVE",
"461 -45 CURVE SMOOTH",
"461 34 OFFCURVE",
"432 88 OFFCURVE",
"377 115 CURVE"
);
}
);
width = 461;
}
);
},
{
glyphname = f_f_i;
lastChange = "2021-01-12 21:31:25 +0000";
layers = (
{
guideLines = (
{
position = "{495, 392}";
}
);
layerId = "8648B977-9A39-40CA-BC6D-5EEF213E062F";
paths = (
{
closed = 1;
nodes = (
"12 443 OFFCURVE",
"17 431 OFFCURVE",
"29 431 CURVE SMOOTH",
"63 431 LINE SMOOTH",
"68 431 OFFCURVE",
"69 359 OFFCURVE",
"69 293 CURVE SMOOTH",
"69 207 LINE SMOOTH",
"69 67 OFFCURVE",
"61 46 OFFCURVE",
"40 25 CURVE SMOOTH",
"28 13 OFFCURVE",
"28 9 OFFCURVE",
"28 7 CURVE SMOOTH",
"28 3 OFFCURVE",
"32 0 OFFCURVE",
"37 0 CURVE SMOOTH",
"205 0 LINE SMOOTH",
"210 0 OFFCURVE",
"213 3 OFFCURVE",
"213 7 CURVE SMOOTH",
"213 9 OFFCURVE",
"212 12 OFFCURVE",
"202 25 CURVE SMOOTH",
"185 46 OFFCURVE",
"172 67 OFFCURVE",
"172 207 CURVE SMOOTH",
"172 307 LINE SMOOTH",
"172 374 OFFCURVE",
"173 431 OFFCURVE",
"194 431 CURVE",
"247 431 LINE",
"271 431 OFFCURVE",
"281 417 OFFCURVE",
"281 392 CURVE SMOOTH",
"281 207 LINE SMOOTH",
"281 67 OFFCURVE",
"281 46 OFFCURVE",
"260 25 CURVE SMOOTH",
"248 13 OFFCURVE",
"248 9 OFFCURVE",
"248 7 CURVE SMOOTH",
"248 3 OFFCURVE",
"252 0 OFFCURVE",
"257 0 CURVE SMOOTH",
"412 0 LINE SMOOTH",
"417 0 OFFCURVE",
"420 3 OFFCURVE",
"420 7 CURVE SMOOTH",
"420 9 OFFCURVE",
"419 12 OFFCURVE",
"409 25 CURVE SMOOTH",
"392 46 OFFCURVE",
"384 67 OFFCURVE",
"384 207 CURVE SMOOTH",
"384 307 LINE SMOOTH",
"384 374 OFFCURVE",
"385 433 OFFCURVE",
"404 433 CURVE SMOOTH",
"464 433 LINE SMOOTH",
"487 433 OFFCURVE",
"495 417 OFFCURVE",
"495 392 CURVE SMOOTH",
"495 207 LINE SMOOTH",
"495 67 OFFCURVE",
"490 46 OFFCURVE",
"469 25 CURVE SMOOTH",
"457 13 OFFCURVE",
"457 9 OFFCURVE",
"457 7 CURVE SMOOTH",
"457 3 OFFCURVE",
"461 0 OFFCURVE",
"466 0 CURVE SMOOTH",
"619 0 LINE SMOOTH",
"624 0 OFFCURVE",
"627 3 OFFCURVE",
"627 7 CURVE SMOOTH",
"627 9 OFFCURVE",
"626 12 OFFCURVE",
"616 25 CURVE SMOOTH",
"599 46 OFFCURVE",
"594 67 OFFCURVE",
"594 207 CURVE SMOOTH",
"594 488 LINE SMOOTH",
"594 510 OFFCURVE",
"580 522 OFFCURVE",
"565 522 CURVE SMOOTH",
"559 522 OFFCURVE",
"549 522 OFFCURVE",
"526 511 CURVE SMOOTH",
"514 505 OFFCURVE",
"491 500 OFFCURVE",
"466 500 CURVE SMOOTH",
"390 500 LINE SMOOTH",
"382 500 OFFCURVE",
"382 597 OFFCURVE",
"382 614 CURVE SMOOTH",
"382 684 OFFCURVE",
"395 712 OFFCURVE",
"419 712 CURVE SMOOTH",
"435 712 OFFCURVE",
"453 700 OFFCURVE",
"453 678 CURVE SMOOTH",
"453 666 OFFCURVE",
"454 627 OFFCURVE",
"497 627 CURVE SMOOTH",
"532 627 OFFCURVE",
"549 659 OFFCURVE",
"549 678 CURVE SMOOTH",
"549 749 OFFCURVE",
"499 790 OFFCURVE",
"417 790 CURVE SMOOTH",
"260 790 OFFCURVE",
"307 500 OFFCURVE",
"283 500 CURVE SMOOTH",
"178 500 LINE SMOOTH",
"170 500 OFFCURVE",
"170 597 OFFCURVE",
"170 614 CURVE SMOOTH",
"170 666 OFFCURVE",
"170 722 OFFCURVE",
"195 722 CURVE SMOOTH",
"214 722 OFFCURVE",
"224 710 OFFCURVE",
"224 694 CURVE SMOOTH",
"224 682 OFFCURVE",
"225 643 OFFCURVE",
"268 643 CURVE SMOOTH",
"303 643 OFFCURVE",
"320 675 OFFCURVE",
"320 694 CURVE SMOOTH",
"320 740 OFFCURVE",
"277 790 OFFCURVE",
"195 790 CURVE SMOOTH",
"38 790 OFFCURVE",
"95 500 OFFCURVE",
"71 500 CURVE SMOOTH",
"39 500 LINE SMOOTH",
"22 500 OFFCURVE",
"12 460 OFFCURVE",
"12 451 CURVE SMOOTH"
);
}
);
width = 644;
},
{
associatedMasterId = "8648B977-9A39-40CA-BC6D-5EEF213E062F";
layerId = "9EFD6644-FC97-4665-9EED-1BBD461E3816";
name = bubble;
paths = (
{
closed = 1;
nodes = (
"644 67 OFFCURVE",
"644 88 OFFCURVE",
"644 207 CURVE SMOOTH",
"644 488 LINE SMOOTH",
"644 535 OFFCURVE",
"610 572 OFFCURVE",
"565 572 CURVE SMOOTH",
"546 572 OFFCURVE",
"525 566 OFFCURVE",
"504 556 CURVE SMOOTH",
"497 552 OFFCURVE",
"482 550 OFFCURVE",
"466 550 CURVE SMOOTH",
"390 550 LINE SMOOTH",
"425 550 OFFCURVE",
"431 579 OFFCURVE",
"432 601 CURVE",
"448 586 OFFCURVE",
"470 577 OFFCURVE",
"497 577 CURVE SMOOTH",
"553 577 OFFCURVE",
"599 624 OFFCURVE",
"599 678 CURVE SMOOTH",
"599 777 OFFCURVE",
"527 840 OFFCURVE",
"417 840 CURVE SMOOTH",
"374 840 OFFCURVE",
"340 827 OFFCURVE",
"315 802 CURVE",
"284 826 OFFCURVE",
"242.003 840 OFFCURVE",
"195 840 CURVE SMOOTH",
"72 840 OFFCURVE",
"31 735 OFFCURVE",
"29 557 CURVE SMOOTH",
"29 554 OFFCURVE",
"29 551 OFFCURVE",
"29 549 CURVE",
"11 542 OFFCURVE",
"0 491 OFFCURVE",
"0 451 CURVE SMOOTH",
"0 414 OFFCURVE",
"12 381 OFFCURVE",
"29 381 CURVE SMOOTH",
"63 381 LINE SMOOTH",
"68 381 OFFCURVE",
"19 359 OFFCURVE",
"19 293 CURVE SMOOTH",
"19 207 LINE SMOOTH",
"19 87 OFFCURVE",
"14 69 OFFCURVE",
"5 60 CURVE SMOOTH",
"2 45 OFFCURVE",
"0 28 OFFCURVE",
"0 7 CURVE SMOOTH",
"0 -25 OFFCURVE",
"17 -50 OFFCURVE",
"37 -50 CURVE SMOOTH",
"205 -50 LINE SMOOTH",
"214 -50 OFFCURVE",
"223 -48 OFFCURVE",
"231 -44 CURVE",
"239 -48 OFFCURVE",
"248 -50 OFFCURVE",
"257 -50 CURVE SMOOTH",
"412 -50 LINE SMOOTH",
"422 -50 OFFCURVE",
"431 -48 OFFCURVE",
"439 -43 CURVE",
"447 -48 OFFCURVE",
"456 -50 OFFCURVE",
"466 -50 CURVE SMOOTH",
"619 -50 LINE SMOOTH",
"633 -50 OFFCURVE",
"644 -25 OFFCURVE",
"644 7 CURVE SMOOTH",
"644 26 OFFCURVE",
"644 41.003 OFFCURVE",
"644 58 CURVE SMOOTH"
);
}
);
width = 644;
}
);
},
{
glyphname = f_u;
lastChange = "2021-01-12 21:31:31 +0000";
layers = (
{
layerId = "8648B977-9A39-40CA-BC6D-5EEF213E062F";
paths = (
{
closed = 1;
nodes = (
"12 443 OFFCURVE",
"17 431 OFFCURVE",
"29 431 CURVE SMOOTH",
"63 431 LINE SMOOTH",
"68 431 OFFCURVE",
"69 359 OFFCURVE",
"69 293 CURVE SMOOTH",
"69 207 LINE SMOOTH",
"69 67 OFFCURVE",
"61 46 OFFCURVE",
"40 25 CURVE SMOOTH",
"28 13 OFFCURVE",
"28 9 OFFCURVE",
"28 7 CURVE SMOOTH",
"28 3 OFFCURVE",
"32 0 OFFCURVE",
"37 0 CURVE SMOOTH",
"205 0 LINE SMOOTH",
"210 0 OFFCURVE",
"213 3 OFFCURVE",
"213 7 CURVE SMOOTH",
"213 9 OFFCURVE",
"212 12 OFFCURVE",
"202 25 CURVE SMOOTH",
"185 46 OFFCURVE",
"172 67 OFFCURVE",
"172 207 CURVE SMOOTH",
"172 307 LINE SMOOTH",
"172 374 OFFCURVE",
"173 431 OFFCURVE",
"178 431 CURVE SMOOTH",
"245 431 LINE",
"250 399 OFFCURVE",
"250 364 OFFCURVE",
"250 363 CURVE SMOOTH",
"250 126 LINE SMOOTH",
"250 10 OFFCURVE",
"318 -2 OFFCURVE",
"365 -2 CURVE SMOOTH",
"413 -2 OFFCURVE",
"455 13 OFFCURVE",
"477 45 CURVE SMOOTH",
"479 48 OFFCURVE",
"481 51 OFFCURVE",
"483 51 CURVE SMOOTH",
"486 51 OFFCURVE",
"488 50 OFFCURVE",
"488 42 CURVE SMOOTH",
"488 14 LINE SMOOTH",
"488 8 OFFCURVE",
"489 0 OFFCURVE",
"497 0 CURVE SMOOTH",
"602 0 LINE SMOOTH",
"607 0 OFFCURVE",
"610 3 OFFCURVE",
"610 7 CURVE SMOOTH",
"610 9 OFFCURVE",
"609 11 OFFCURVE",
"599 25 CURVE SMOOTH",
"583 47 OFFCURVE",
"576 67 OFFCURVE",
"576 207 CURVE SMOOTH",
"576 478 LINE SMOOTH",
"576 490 OFFCURVE",
"576 500 OFFCURVE",
"568 500 CURVE SMOOTH",
"470 500 LINE SMOOTH",
"458 500 OFFCURVE",
"453 495 OFFCURVE",
"453 489 CURVE SMOOTH",
"453 486 OFFCURVE",
"455 479 OFFCURVE",
"458 476 CURVE SMOOTH",
"478 452 OFFCURVE",
"478 364 OFFCURVE",
"478 363 CURVE SMOOTH",
"478 160 LINE SMOOTH",
"478 112 OFFCURVE",
"431 73 OFFCURVE",
"402 73 CURVE SMOOTH",
"348 73 OFFCURVE",
"348 120 OFFCURVE",
"348 174 CURVE SMOOTH",
"348 468 LINE SMOOTH",
"348 491 OFFCURVE",
"328 500 OFFCURVE",
"320 500 CURVE SMOOTH",
"178 500 LINE SMOOTH",
"170 500 OFFCURVE",
"170 597 OFFCURVE",
"170 614 CURVE SMOOTH",
"170 666 OFFCURVE",
"170 722 OFFCURVE",
"195 722 CURVE SMOOTH",
"212 722 OFFCURVE",
"222 710 OFFCURVE",
"222 694 CURVE SMOOTH",
"222 682 OFFCURVE",
"223 643 OFFCURVE",
"266 643 CURVE SMOOTH",
"301 643 OFFCURVE",
"318 675 OFFCURVE",
"318 700 CURVE SMOOTH",
"318 740 OFFCURVE",
"269 790 OFFCURVE",
"195 790 CURVE SMOOTH",
"81 790 OFFCURVE",
"78 652 OFFCURVE",
"78 563 CURVE SMOOTH",
"78 526 OFFCURVE",
"78 500 OFFCURVE",
"71 500 CURVE SMOOTH",
"39 500 LINE SMOOTH",
"22 500 OFFCURVE",
"12 460 OFFCURVE",
"12 451 CURVE SMOOTH"
);
}
);
width = 624;
},
{
associatedMasterId = "8648B977-9A39-40CA-BC6D-5EEF213E062F";
layerId = "17E1A512-73DA-498C-BFFD-FBC283B52D91";
name = bubble;
paths = (
{
closed = 1;
nodes = (
"624 67 OFFCURVE",
"624 89 OFFCURVE",
"624 207 CURVE SMOOTH",
"624 478 LINE SMOOTH",
"624 517 OFFCURVE",
"608 550 OFFCURVE",
"568 550 CURVE SMOOTH",
"470 550 LINE SMOOTH",
"434 550 OFFCURVE",
"403 526 OFFCURVE",
"403 489 CURVE SMOOTH",
"403 474 OFFCURVE",
"409 456 OFFCURVE",
"420 444 CURVE SMOOTH",
"428 433 OFFCURVE",
"428 363.992 OFFCURVE",
"428 363 CURVE SMOOTH",
"428 160 LINE SMOOTH",
"428 147 OFFCURVE",
"409 123 OFFCURVE",
"402 123 CURVE SMOOTH",
"396 123 OFFCURVE",
"398 113 OFFCURVE",
"398 174 CURVE SMOOTH",
"398 468 LINE SMOOTH",
"398 512 OFFCURVE",
"362 550 OFFCURVE",
"320 550 CURVE SMOOTH",
"178 550 LINE SMOOTH",
"214 550 OFFCURVE",
"219 581 OFFCURVE",
"220 604 CURVE",
"233 597 OFFCURVE",
"248 593 OFFCURVE",
"266 593 CURVE SMOOTH",
"324 593 OFFCURVE",
"368 641 OFFCURVE",
"368 700 CURVE SMOOTH",
"368 777 OFFCURVE",
"286 840 OFFCURVE",
"195 840 CURVE SMOOTH",
"71 840 OFFCURVE",
"28 738 OFFCURVE",
"28 563 CURVE SMOOTH",
"28 558 OFFCURVE",
"29 553 OFFCURVE",
"31 549 CURVE",
"12 543 OFFCURVE",
"0 492 OFFCURVE",
"0 451 CURVE SMOOTH",
"0 414 OFFCURVE",
"12 381 OFFCURVE",
"29 381 CURVE SMOOTH",
"63 381 LINE SMOOTH",
"68 381 OFFCURVE",
"19 359 OFFCURVE",
"19 293 CURVE SMOOTH",
"19 207 LINE SMOOTH",
"19 87 OFFCURVE",
"14 69 OFFCURVE",
"5 60 CURVE SMOOTH",
"2 45 OFFCURVE",
"0 28 OFFCURVE",
"0 7 CURVE SMOOTH",
"0 -25 OFFCURVE",
"17 -50 OFFCURVE",
"37 -50 CURVE SMOOTH",
"205 -50 LINE SMOOTH",
"227 -50 OFFCURVE",
"247 -38 OFFCURVE",
"257 -19 CURVE",
"284 -41 OFFCURVE",
"320 -52 OFFCURVE",
"365 -52 CURVE SMOOTH",
"399 -52 OFFCURVE",
"430 -46 OFFCURVE",
"456 -34 CURVE",
"467 -44 OFFCURVE",
"480 -50 OFFCURVE",
"497 -50 CURVE SMOOTH",
"602 -50 LINE SMOOTH",
"614 -50 OFFCURVE",
"624 -25 OFFCURVE",
"624 7 CURVE SMOOTH",
"624 24 OFFCURVE",
"624 37 OFFCURVE",
"624 54 CURVE SMOOTH"
);
}
);
width = 624;
}
);
},
{
glyphname = fi;
lastChange = "2021-01-12 21:31:37 +0000";
layers = (
{
layerId = "8648B977-9A39-40CA-BC6D-5EEF213E062F";
paths = (
{
closed = 1;
nodes = (
"11 445 OFFCURVE",
"16 433 OFFCURVE",
"28 433 CURVE SMOOTH",
"54 433 LINE SMOOTH",
"64 433 OFFCURVE",
"68 359 OFFCURVE",
"68 293 CURVE SMOOTH",
"68 207 LINE SMOOTH",
"68 67 OFFCURVE",
"60 46 OFFCURVE",
"39 25 CURVE SMOOTH",
"27 13 OFFCURVE",
"27 9 OFFCURVE",
"27 7 CURVE SMOOTH",
"27 3 OFFCURVE",
"31 0 OFFCURVE",
"36 0 CURVE SMOOTH",
"199 0 LINE SMOOTH",
"204 0 OFFCURVE",
"207 3 OFFCURVE",
"207 7 CURVE SMOOTH",
"207 9 OFFCURVE",
"206 12 OFFCURVE",
"196 25 CURVE SMOOTH",
"179 46 OFFCURVE",
"171 67 OFFCURVE",
"171 207 CURVE SMOOTH",
"171 307 LINE SMOOTH",
"171 374 OFFCURVE",
"172 433 OFFCURVE",
"191 433 CURVE SMOOTH",
"251 433 LINE SMOOTH",
"274 433 OFFCURVE",
"282 417 OFFCURVE",
"282 392 CURVE SMOOTH",
"282 207 LINE SMOOTH",
"282 67 OFFCURVE",
"277 46 OFFCURVE",
"256 25 CURVE SMOOTH",
"244 13 OFFCURVE",
"244 9 OFFCURVE",
"244 7 CURVE SMOOTH",
"244 3 OFFCURVE",
"248 0 OFFCURVE",
"253 0 CURVE SMOOTH",
"406 0 LINE SMOOTH",
"411 0 OFFCURVE",
"414 3 OFFCURVE",
"414 7 CURVE SMOOTH",
"414 9 OFFCURVE",
"413 12 OFFCURVE",
"403 25 CURVE SMOOTH",
"386 46 OFFCURVE",
"381 67 OFFCURVE",
"381 207 CURVE SMOOTH",
"381 488 LINE SMOOTH",
"381 510 OFFCURVE",
"367 522 OFFCURVE",
"352 522 CURVE SMOOTH",
"346 522 OFFCURVE",
"336 522 OFFCURVE",
"313 511 CURVE SMOOTH",
"301 505 OFFCURVE",
"278 500 OFFCURVE",
"253 500 CURVE SMOOTH",
"177 500 LINE SMOOTH",
"169 500 OFFCURVE",
"169 597 OFFCURVE",
"169 614 CURVE SMOOTH",
"169 684 OFFCURVE",
"182 712 OFFCURVE",
"206 712 CURVE SMOOTH",
"222 712 OFFCURVE",
"240 700 OFFCURVE",
"240 678 CURVE SMOOTH",
"240 666 OFFCURVE",
"241 627 OFFCURVE",
"284 627 CURVE SMOOTH",
"319 627 OFFCURVE",
"336 659 OFFCURVE",
"336 678 CURVE SMOOTH",
"336 749 OFFCURVE",
"286 790 OFFCURVE",
"204 790 CURVE SMOOTH",
"47 790 OFFCURVE",
"94 500 OFFCURVE",
"70 500 CURVE SMOOTH",
"38 500 LINE SMOOTH",
"21 500 OFFCURVE",
"11 462 OFFCURVE",
"11 453 CURVE SMOOTH"
);
}
);
width = 431;
},
{
associatedMasterId = "8648B977-9A39-40CA-BC6D-5EEF213E062F";
layerId = "CF8C0FB6-C1C4-4A7F-80A8-5847672AEE51";
name = bubble;
paths = (
{
closed = 1;
nodes = (
"431 67 OFFCURVE",
"431 88 OFFCURVE",
"431 207 CURVE SMOOTH",
"431 488 LINE SMOOTH",
"431 535 OFFCURVE",
"397 572 OFFCURVE",
"352 572 CURVE SMOOTH",
"333 572 OFFCURVE",
"312 566 OFFCURVE",
"291 556 CURVE SMOOTH",
"284 552 OFFCURVE",
"269 550 OFFCURVE",
"253 550 CURVE SMOOTH",
"177 550 LINE SMOOTH",
"212 550 OFFCURVE",
"218 579 OFFCURVE",
"219 601 CURVE",
"235 586 OFFCURVE",
"257 577 OFFCURVE",
"284 577 CURVE SMOOTH",
"340 577 OFFCURVE",
"386 624 OFFCURVE",
"386 678 CURVE SMOOTH",
"386 777 OFFCURVE",
"314 840 OFFCURVE",
"204 840 CURVE SMOOTH",
"82 840 OFFCURVE",
"38 736 OFFCURVE",
"30 558 CURVE SMOOTH",
"29 555 OFFCURVE",
"30 552 OFFCURVE",
"30 549 CURVE",
"12 544 OFFCURVE",
"0 494 OFFCURVE",
"0 453 CURVE SMOOTH",
"0 416 OFFCURVE",
"12 383 OFFCURVE",
"28 383 CURVE SMOOTH",
"54 383 LINE SMOOTH",
"-76 383 OFFCURVE",
"18 355 OFFCURVE",
"18 293 CURVE SMOOTH",
"18 207 LINE SMOOTH",
"18 87 OFFCURVE",
"13 69 OFFCURVE",
"4 60 CURVE SMOOTH",
"2 45 OFFCURVE",
"0 28 OFFCURVE",
"0 7 CURVE SMOOTH",
"0 -25 OFFCURVE",
"17 -50 OFFCURVE",
"36 -50 CURVE SMOOTH",
"199 -50 LINE SMOOTH",
"209 -50 OFFCURVE",
"218 -48 OFFCURVE",
"226 -43 CURVE",
"234 -48 OFFCURVE",
"243 -50 OFFCURVE",
"253 -50 CURVE SMOOTH",
"406 -50 LINE SMOOTH",
"420 -50 OFFCURVE",
"431 -25 OFFCURVE",
"431 7 CURVE SMOOTH",
"431 26 OFFCURVE",
"431 41.003 OFFCURVE",
"431 58 CURVE SMOOTH"
);
}
);
width = 431;
}
);
unicode = FB01;
},
{
glyphname = fl;
lastChange = "2021-01-12 21:31:41 +0000";
layers = (
{
layerId = "8648B977-9A39-40CA-BC6D-5EEF213E062F";
paths = (
{
closed = 1;
nodes = (
"29 505 OFFCURVE",
"34 493 OFFCURVE",
"46 493 CURVE SMOOTH",
"88 493 LINE",
"88 416 OFFCURVE",
"88 270 OFFCURVE",
"88 207 CURVE SMOOTH",
"88 67 OFFCURVE",
"78 46 OFFCURVE",
"57 25 CURVE SMOOTH",
"45 13 OFFCURVE",
"45 9 OFFCURVE",
"45 7 CURVE SMOOTH",
"45 3 OFFCURVE",
"49 0 OFFCURVE",
"54 0 CURVE SMOOTH",
"220 0 LINE SMOOTH",
"225 0 OFFCURVE",
"228 3 OFFCURVE",
"228 7 CURVE SMOOTH",
"228 9 OFFCURVE",
"227 12 OFFCURVE",
"217 25 CURVE SMOOTH",
"200 46 OFFCURVE",
"187 67 OFFCURVE",
"187 207 CURVE SMOOTH",
"187 493 LINE",
"236 493 LINE SMOOTH",
"253 493 OFFCURVE",
"263 533 OFFCURVE",
"263 542 CURVE SMOOTH",
"263 550 OFFCURVE",
"258 562 OFFCURVE",
"246 562 CURVE SMOOTH",
"187 562 LINE",
"187 614 LINE SMOOTH",
"187 676 OFFCURVE",
"213 707 OFFCURVE",
"256 707 CURVE SMOOTH",
"291 707 OFFCURVE",
"308 694 OFFCURVE",
"308 666 CURVE SMOOTH",
"308 207 LINE SMOOTH",
"308 67 OFFCURVE",
"298 46 OFFCURVE",
"277 25 CURVE SMOOTH",
"265 13 OFFCURVE",
"265 9 OFFCURVE",
"265 7 CURVE SMOOTH",
"265 3 OFFCURVE",
"269 0 OFFCURVE",
"274 0 CURVE SMOOTH",
"432 0 LINE SMOOTH",
"437 0 OFFCURVE",
"440 3 OFFCURVE",
"440 7 CURVE SMOOTH",
"440 9 OFFCURVE",
"439 12 OFFCURVE",
"429 25 CURVE SMOOTH",
"412 46 OFFCURVE",
"407 67 OFFCURVE",
"407 207 CURVE SMOOTH",
"407 762 LINE SMOOTH",
"407 788 OFFCURVE",
"393 800 OFFCURVE",
"378 800 CURVE SMOOTH",
"372 800 OFFCURVE",
"367 799 OFFCURVE",
"360 792 CURVE SMOOTH",
"351 783 OFFCURVE",
"335 769 OFFCURVE",
"324 769 CURVE SMOOTH",
"304 769 OFFCURVE",
"281 780 OFFCURVE",
"252 780 CURVE SMOOTH",
"143 780 OFFCURVE",
"89 751 OFFCURVE",
"89 562 CURVE",
"56 562 LINE SMOOTH",
"39 562 OFFCURVE",
"29 522 OFFCURVE",
"29 513 CURVE SMOOTH"
);
}
);
width = 492;
},
{
associatedMasterId = "8648B977-9A39-40CA-BC6D-5EEF213E062F";
layerId = "FF4249A7-1C05-4F11-A6BD-927E97D5F19B";
name = bubble;
paths = (
{
closed = 1;
nodes = (
"460 67 OFFCURVE",
"457 88 OFFCURVE",
"457 207 CURVE SMOOTH",
"457 762 LINE SMOOTH",
"457 810 OFFCURVE",
"426 850 OFFCURVE",
"378 850 CURVE SMOOTH",
"357 850 OFFCURVE",
"340 842 OFFCURVE",
"325 827 CURVE SMOOTH",
"321 824 OFFCURVE",
"318 822 OFFCURVE",
"316 820 CURVE",
"314 821 OFFCURVE",
"310 821 OFFCURVE",
"306 822 CURVE SMOOTH",
"293 825 OFFCURVE",
"274 830 OFFCURVE",
"252 830 CURVE SMOOTH",
"110 830 OFFCURVE",
"50 770 OFFCURVE",
"40 612 CURVE",
"56 612 LINE SMOOTH",
"22 612 OFFCURVE",
"0 556 OFFCURVE",
"0 513 CURVE SMOOTH",
"0 476 OFFCURVE",
"20 443 OFFCURVE",
"46 443 CURVE SMOOTH",
"38 443 LINE",
"38 207 LINE SMOOTH",
"38 90 OFFCURVE",
"32 71 OFFCURVE",
"22 60 CURVE SMOOTH",
"9 45 OFFCURVE",
"0 28 OFFCURVE",
"0 7 CURVE SMOOTH",
"0 -25 OFFCURVE",
"25 -50 OFFCURVE",
"54 -50 CURVE SMOOTH",
"220 -50 LINE SMOOTH",
"230 -50 OFFCURVE",
"239 -48 OFFCURVE",
"247 -43 CURVE",
"255 -48 OFFCURVE",
"264 -50 OFFCURVE",
"274 -50 CURVE SMOOTH",
"432 -50 LINE SMOOTH",
"465 -50 OFFCURVE",
"492 -25 OFFCURVE",
"492 7 CURVE SMOOTH",
"492 26 OFFCURVE",
"481 41 OFFCURVE",
"467 58 CURVE SMOOTH"
);
}
);
width = 492;
}
);
unicode = FB02;
},
{
glyphname = t_t;
lastChange = "2021-01-12 21:32:02 +0000";
layers = (
{
layerId = "8648B977-9A39-40CA-BC6D-5EEF213E062F";
paths = (
{
closed = 1;
nodes = (
"317 58 OFFCURVE",
"349 0 OFFCURVE",
"426 0 CURVE SMOOTH",
"460 0 OFFCURVE",
"516 9 OFFCURVE",
"516 42 CURVE SMOOTH",
"516 71 OFFCURVE",
"496 78 OFFCURVE",
"465 78 CURVE SMOOTH",
"432 78 OFFCURVE",
"416 94 OFFCURVE",
"416 140 CURVE SMOOTH",
"416 483 LINE SMOOTH",
"416 493 OFFCURVE",
"416 493 OFFCURVE",
"548 493 CURVE SMOOTH",
"565 493 OFFCURVE",
"575 532 OFFCURVE",
"575 541 CURVE SMOOTH",
"575 550 OFFCURVE",
"570 562 OFFCURVE",
"558 562 CURVE SMOOTH",
"437 562 LINE SMOOTH",
"417 562 OFFCURVE",
"416 595 OFFCURVE",
"416 651 CURVE SMOOTH",
"416 668 OFFCURVE",
"402 676 OFFCURVE",
"382 676 CURVE SMOOTH",
"353 676 OFFCURVE",
"334 582 OFFCURVE",
"296 569 CURVE SMOOTH",
"276 562 OFFCURVE",
"268 562 OFFCURVE",
"202 562 CURVE SMOOTH",
"182 562 OFFCURVE",
"181 595 OFFCURVE",
"181 651 CURVE SMOOTH",
"181 668 OFFCURVE",
"167 676 OFFCURVE",
"147 676 CURVE SMOOTH",
"118 676 OFFCURVE",
"97 587 OFFCURVE",
"61 569 CURVE SMOOTH",
"28 553 OFFCURVE",
"3 560 OFFCURVE",
"-3 544 CURVE SMOOTH",
"-5 537 OFFCURVE",
"-7 528 OFFCURVE",
"-7 518 CURVE SMOOTH",
"-7 505 OFFCURVE",
"-3 493 OFFCURVE",
"8 493 CURVE SMOOTH",
"63 493 OFFCURVE",
"82 493 OFFCURVE",
"82 483 CURVE SMOOTH",
"82 123 LINE SMOOTH",
"82 58 OFFCURVE",
"114 0 OFFCURVE",
"191 0 CURVE SMOOTH",
"225 0 OFFCURVE",
"281 9 OFFCURVE",
"281 42 CURVE SMOOTH",
"281 71 OFFCURVE",
"261 78 OFFCURVE",
"230 78 CURVE SMOOTH",
"197 78 OFFCURVE",
"181 94 OFFCURVE",
"181 140 CURVE SMOOTH",
"181 483 LINE SMOOTH",
"181 491 OFFCURVE",
"191 493 OFFCURVE",
"247 493 CURVE SMOOTH",
"304 493 OFFCURVE",
"317 491 OFFCURVE",
"317 483 CURVE SMOOTH",
"317 123 LINE SMOOTH"
);
}
);
width = 568;
},
{
associatedMasterId = "8648B977-9A39-40CA-BC6D-5EEF213E062F";
layerId = "D86CC043-4D4D-4795-83C8-12710AB417B3";
name = bubble;
paths = (
{
closed = 1;
nodes = (
"474 428 OFFCURVE",
"495 443 OFFCURVE",
"548 443 CURVE SMOOTH",
"560 443 OFFCURVE",
"568 498 OFFCURVE",
"568 541 CURVE SMOOTH",
"568 580 OFFCURVE",
"564 612 OFFCURVE",
"558 612 CURVE SMOOTH",
"476 612 LINE",
"472 618 OFFCURVE",
"466 629 OFFCURVE",
"466 651 CURVE SMOOTH",
"466 697 OFFCURVE",
"429 726 OFFCURVE",
"382 726 CURVE SMOOTH",
"341 726 OFFCURVE",
"321 694 OFFCURVE",
"299 652 CURVE SMOOTH",
"298 651 OFFCURVE",
"279 616 OFFCURVE",
"280 616 CURVE SMOOTH",
"271 613 OFFCURVE",
"268 612 OFFCURVE",
"241 612 CURVE",
"237 618 OFFCURVE",
"231 629 OFFCURVE",
"231 651 CURVE SMOOTH",
"231 697 OFFCURVE",
"194 726 OFFCURVE",
"147 726 CURVE SMOOTH",
"106 726 OFFCURVE",
"85 694 OFFCURVE",
"62 651 CURVE SMOOTH",
"48 627 OFFCURVE",
"40 614 OFFCURVE",
"39 614 CURVE SMOOTH",
"32 611 OFFCURVE",
"26 609 OFFCURVE",
"13 606 CURVE SMOOTH",
"6 599 OFFCURVE",
"1 583 OFFCURVE",
"0 528 CURVE SMOOTH",
"0 524 OFFCURVE",
"0 521 OFFCURVE",
"0 518 CURVE SMOOTH",
"0 478 OFFCURVE",
"3 443 OFFCURVE",
"8 443 CURVE SMOOTH",
"18 443 OFFCURVE",
"26 445 OFFCURVE",
"32 447 CURVE",
"32 123 LINE SMOOTH",
"32 19 OFFCURVE",
"95 -50 OFFCURVE",
"191 -50 CURVE SMOOTH",
"242 -50 OFFCURVE",
"290 -36 OFFCURVE",
"314 -6 CURVE",
"342 -34 OFFCURVE",
"380 -50 OFFCURVE",
"426 -50 CURVE SMOOTH",
"500 -50 OFFCURVE",
"566 -21 OFFCURVE",
"566 42 CURVE SMOOTH",
"566 98 OFFCURVE",
"527 128 OFFCURVE",
"465 128 CURVE SMOOTH",
"465 128 OFFCURVE",
"465 128 OFFCURVE",
"464 128 CURVE",
"465 130 OFFCURVE",
"466 134 OFFCURVE",
"466 140 CURVE SMOOTH",
"466 422 LINE"
);
}
);
width = 568;
}
);
},
{
glyphname = zero;
lastChange = "2021-01-12 22:00:36 +0000";
layers = (
{
layerId = "8648B977-9A39-40CA-BC6D-5EEF213E062F";
paths = (
{
closed = 1;
nodes = (
"418 0 OFFCURVE",
"515 155 OFFCURVE",
"515 353 CURVE SMOOTH",
"515 555 OFFCURVE",
"418 703 OFFCURVE",
"278 703 CURVE SMOOTH",
"137 703 OFFCURVE",
"38 555 OFFCURVE",
"38 354 CURVE SMOOTH",
"38 155 OFFCURVE",
"137 0 OFFCURVE",
"278 0 CURVE SMOOTH"
);
},
{
closed = 1;
nodes = (
"148 491 OFFCURVE",
"201 613 OFFCURVE",
"278 613 CURVE SMOOTH",
"355 613 OFFCURVE",
"405 491 OFFCURVE",
"405 353 CURVE SMOOTH",
"405 209 OFFCURVE",
"355 91 OFFCURVE",
"278 91 CURVE SMOOTH",
"201 91 OFFCURVE",
"148 209 OFFCURVE",
"148 353 CURVE SMOOTH"
);
}
);
width = 553;
},
{
associatedMasterId = "8648B977-9A39-40CA-BC6D-5EEF213E062F";
layerId = "3F535982-E4EB-4F9C-88C7-B819862B3DED";
name = bubble;
paths = (
{
closed = 1;
nodes = (
"115 753 OFFCURVE",
"0 585 OFFCURVE",
"0 354 CURVE SMOOTH",
"0 123 OFFCURVE",
"117 -50 OFFCURVE",
"278 -50 CURVE SMOOTH",
"438 -50 OFFCURVE",
"553 122.007 OFFCURVE",
"553 353 CURVE SMOOTH",
"553 585 OFFCURVE",
"439 753 OFFCURVE",
"278 753 CURVE SMOOTH"
);
}
);
width = 553;
}
);
unicode = 0030;
},
{
glyphname = one;
lastChange = "2021-01-12 22:00:36 +0000";
layers = (
{
layerId = "8648B977-9A39-40CA-BC6D-5EEF213E062F";
paths = (
{
closed = 1;
nodes = (
"200 526 OFFCURVE",
"200 557 OFFCURVE",
"200 576 CURVE SMOOTH",
"200 590 OFFCURVE",
"199 642 OFFCURVE",
"199 682 CURVE SMOOTH",
"199 694 OFFCURVE",
"190 700 OFFCURVE",
"177 700 CURVE SMOOTH",
"146 700 OFFCURVE",
"25 605 OFFCURVE",
"25 584 CURVE SMOOTH",
"25 575 OFFCURVE",
"29 566 OFFCURVE",
"40 566 CURVE SMOOTH",
"90 566 OFFCURVE",
"90 566 OFFCURVE",
"90 504 CURVE SMOOTH",
"90 293 LINE SMOOTH",
"90 95 OFFCURVE",
"90 65 OFFCURVE",
"60 36 CURVE SMOOTH",
"43 19 OFFCURVE",
"43 13 OFFCURVE",
"43 10 CURVE SMOOTH",
"43 5 OFFCURVE",
"49 0 OFFCURVE",
"56 0 CURVE SMOOTH",
"225 0 LINE SMOOTH",
"232 0 OFFCURVE",
"236 5 OFFCURVE",
"236 10 CURVE SMOOTH",
"236 13 OFFCURVE",
"234 18 OFFCURVE",
"220 36 CURVE SMOOTH",
"200 62 OFFCURVE",
"200 95 OFFCURVE",
"200 293 CURVE SMOOTH",
"200 519 LINE SMOOTH"
);
}
);
width = 284;
},
{
associatedMasterId = "8648B977-9A39-40CA-BC6D-5EEF213E062F";
layerId = "573F2F88-2227-4A5C-BBF2-F609A39AC7D5";
name = bubble;
paths = (
{
closed = 1;
nodes = (
"252 76 OFFCURVE",
"250 94 OFFCURVE",
"250 293 CURVE SMOOTH",
"250 576 LINE SMOOTH",
"250 582 OFFCURVE",
"250 592 OFFCURVE",
"250 605 CURVE SMOOTH",
"249 628 OFFCURVE",
"249 657 OFFCURVE",
"249 682 CURVE SMOOTH",
"249 722 OFFCURVE",
"217 750 OFFCURVE",
"177 750 CURVE SMOOTH",
"128 750 OFFCURVE",
"0 639 OFFCURVE",
"0 584 CURVE SMOOTH",
"0 546 OFFCURVE",
"17 516 OFFCURVE",
"40 516 CURVE SMOOTH",
"41 516 LINE",
"40 513 OFFCURVE",
"40 509 OFFCURVE",
"40 504 CURVE SMOOTH",
"40 293 LINE SMOOTH",
"40 96 OFFCURVE",
"38 84 OFFCURVE",
"25 72 CURVE SMOOTH",
"10 53 OFFCURVE",
"0 33 OFFCURVE",
"0 10 CURVE SMOOTH",
"0 -24 OFFCURVE",
"26 -50 OFFCURVE",
"56 -50 CURVE SMOOTH",
"225 -50 LINE SMOOTH",
"258 -50 OFFCURVE",
"284 -23 OFFCURVE",
"284 10 CURVE SMOOTH",
"284 29 OFFCURVE",
"274 46 OFFCURVE",
"260 67 CURVE SMOOTH"
);
}
);
width = 284;
}
);
unicode = 0031;
},
{
glyphname = two;
lastChange = "2021-01-12 22:00:36 +0000";
layers = (
{
layerId = "8648B977-9A39-40CA-BC6D-5EEF213E062F";
paths = (
{
closed = 1;
nodes = (
"47 112 CURVE SMOOTH",
"29 90 OFFCURVE",
"20 65 OFFCURVE",
"20 45 CURVE SMOOTH",
"20 16 OFFCURVE",
"24 0 OFFCURVE",
"57 0 CURVE",
"413 0 LINE",
"447 0 OFFCURVE",
"448 30 OFFCURVE",
"448 42 CURVE SMOOTH",
"448 112 LINE",
"448 119 OFFCURVE",
"444 129 OFFCURVE",
"434 129 CURVE SMOOTH",
"423 129 OFFCURVE",
"410 118 OFFCURVE",
"391 100 CURVE SMOOTH",
"369 80 OFFCURVE",
"369 80 OFFCURVE",
"181 80 CURVE SMOOTH",
"172 80 OFFCURVE",
"167 85 OFFCURVE",
"167 96 CURVE SMOOTH",
"167 124 OFFCURVE",
"441 395 OFFCURVE",
"441 557 CURVE SMOOTH",
"441 607 OFFCURVE",
"398 707 OFFCURVE",
"268 707 CURVE SMOOTH",
"119 707 OFFCURVE",
"43 613 OFFCURVE",
"43 533 CURVE SMOOTH",
"43 485 OFFCURVE",
"66 459 OFFCURVE",
"104 459 CURVE SMOOTH",
"138 459 OFFCURVE",
"171 485 OFFCURVE",
"171 517 CURVE SMOOTH",
"171 545 OFFCURVE",
"158 543 OFFCURVE",
"158 565 CURVE SMOOTH",
"158 607 OFFCURVE",
"206 627 OFFCURVE",
"249 627 CURVE SMOOTH",
"293 627 OFFCURVE",
"331 601 OFFCURVE",
"331 546 CURVE SMOOTH",
"331 459 OFFCURVE",
"122 203 OFFCURVE"
);
}
);
width = 483;
},
{
associatedMasterId = "8648B977-9A39-40CA-BC6D-5EEF213E062F";
layerId = "DEB5B4F4-0E16-4C5F-B116-AE6DA6274CE7";
name = bubble;
paths = (
{
closed = 1;
nodes = (
"406 179 OFFCURVE",
"384 162 OFFCURVE",
"357 137 CURVE",
"357 137 OFFCURVE",
"331 133 OFFCURVE",
"253 131 CURVE",
"256 135 OFFCURVE",
"259 139 OFFCURVE",
"263 143 CURVE SMOOTH",
"417 340 OFFCURVE",
"483 458 OFFCURVE",
"483 557 CURVE SMOOTH",
"483 668 OFFCURVE",
"388 757 OFFCURVE",
"268 757 CURVE SMOOTH",
"117 757 OFFCURVE",
"0 659 OFFCURVE",
"0 533 CURVE SMOOTH",
"0 460 OFFCURVE",
"40 409 OFFCURVE",
"104 409 CURVE SMOOTH",
"165 409 OFFCURVE",
"221 457 OFFCURVE",
"221 517 CURVE SMOOTH",
"221 534 OFFCURVE",
"217 551 OFFCURVE",
"209 566 CURVE",
"213 570 OFFCURVE",
"229 577 OFFCURVE",
"249 577 CURVE SMOOTH",
"271 577 OFFCURVE",
"281 568 OFFCURVE",
"281 546 CURVE SMOOTH",
"281 503 OFFCURVE",
"177 349 OFFCURVE",
"8 144 CURVE SMOOTH",
"3 115 OFFCURVE",
"0 78 OFFCURVE",
"0 45 CURVE SMOOTH",
"0 -16 OFFCURVE",
"19 -50 OFFCURVE",
"57 -50 CURVE SMOOTH",
"413 -50 LINE SMOOTH",
"457 -50 OFFCURVE",
"483 -12 OFFCURVE",
"483 42 CURVE SMOOTH",
"483 112 LINE SMOOTH",
"483 148 OFFCURVE",
"462 179 OFFCURVE",
"434 179 CURVE SMOOTH"
);
}
);
width = 483;
}
);
unicode = 0032;
},
{
glyphname = three;
lastChange = "2021-01-12 22:00:36 +0000";
layers = (
{
layerId = "8648B977-9A39-40CA-BC6D-5EEF213E062F";
paths = (
{
closed = 1;
nodes = (
"337 323 OFFCURVE",
"383 243 OFFCURVE",
"383 185 CURVE SMOOTH",
"383 124 OFFCURVE",
"348 68 OFFCURVE",
"257 68 CURVE SMOOTH",
"166 68 OFFCURVE",
"132 124 OFFCURVE",
"132 185 CURVE",
"132 206 OFFCURVE",
"127 226 OFFCURVE",
"79 226 CURVE SMOOTH",
"31 226 OFFCURVE",
"25 206 OFFCURVE",
"25 187 CURVE",
"25 68 OFFCURVE",
"114 -7 OFFCURVE",
"258 -7 CURVE SMOOTH",
"389 -7 OFFCURVE",
"491 62 OFFCURVE",
"491 185 CURVE SMOOTH",
"491 323 OFFCURVE",
"376 348 OFFCURVE",
"376 371 CURVE SMOOTH",
"376 393 OFFCURVE",
"468 414 OFFCURVE",
"468 529 CURVE SMOOTH",
"468 644 OFFCURVE",
"365 710 OFFCURVE",
"247 710 CURVE SMOOTH",
"162 710 OFFCURVE",
"46 644 OFFCURVE",
"46 522 CURVE SMOOTH",
"46 503 OFFCURVE",
"52 473 OFFCURVE",
"100 473 CURVE SMOOTH",
"151 473 OFFCURVE",
"156 503 OFFCURVE",
"156 514 CURVE SMOOTH",
"156 533 OFFCURVE",
"149 542 OFFCURVE",
"149 565 CURVE SMOOTH",
"149 599 OFFCURVE",
"209 625 OFFCURVE",
"246 625 CURVE SMOOTH",
"315 625 OFFCURVE",
"358 592 OFFCURVE",
"358 529 CURVE SMOOTH",
"358 470 OFFCURVE",
"315 413 OFFCURVE",
"249 413 CURVE SMOOTH",
"228 413 OFFCURVE",
"208 409 OFFCURVE",
"208 366 CURVE SMOOTH",
"208 323 OFFCURVE",
"228 323 OFFCURVE",
"247 323 CURVE SMOOTH"
);
}
);
width = 526;
},
{
associatedMasterId = "8648B977-9A39-40CA-BC6D-5EEF213E062F";
layerId = "33DC416B-CC64-4200-99C7-1861D4811472";
name = bubble;
paths = (
{
closed = 1;
nodes = (
"480 400 OFFCURVE",
"518 448 OFFCURVE",
"518 529 CURVE SMOOTH",
"518 664 OFFCURVE",
"403 760 OFFCURVE",
"247 760 CURVE SMOOTH",
"114 760 OFFCURVE",
"0 652 OFFCURVE",
"0 522 CURVE SMOOTH",
"0 461 OFFCURVE",
"40 423 OFFCURVE",
"100 423 CURVE SMOOTH",
"160 423 OFFCURVE",
"206 458 OFFCURVE",
"206 514 CURVE SMOOTH",
"206 522 OFFCURVE",
"204 538 OFFCURVE",
"201 548 CURVE SMOOTH",
"199 557 OFFCURVE",
"199 560 OFFCURVE",
"199 565 CURVE SMOOTH",
"199 564 OFFCURVE",
"245 575 OFFCURVE",
"246 575 CURVE SMOOTH",
"291 575 OFFCURVE",
"308 560 OFFCURVE",
"308 529 CURVE SMOOTH",
"308 492 OFFCURVE",
"282 463 OFFCURVE",
"249 463 CURVE SMOOTH",
"190 463 OFFCURVE",
"158 426 OFFCURVE",
"158 366 CURVE SMOOTH",
"158 307 OFFCURVE",
"187 273 OFFCURVE",
"247 273 CURVE SMOOTH",
"294 273 OFFCURVE",
"333 232 OFFCURVE",
"333 185 CURVE SMOOTH",
"333 140 OFFCURVE",
"309 118 OFFCURVE",
"257 118 CURVE SMOOTH",
"206 118 OFFCURVE",
"182 140 OFFCURVE",
"182 185 CURVE SMOOTH",
"182 244.996 OFFCURVE",
"143 276 OFFCURVE",
"79 276 CURVE SMOOTH",
"31 276 OFFCURVE",
"0 246 OFFCURVE",
"0 187 CURVE SMOOTH",
"0 39 OFFCURVE",
"102 -57 OFFCURVE",
"258 -57 CURVE SMOOTH",
"416 -57 OFFCURVE",
"526 41 OFFCURVE",
"526 185 CURVE SMOOTH",
"526 287 OFFCURVE",
"481 343 OFFCURVE",
"450 373 CURVE"
);
}
);
width = 526;
}
);
unicode = 0033;
},
{
glyphname = four;
lastChange = "2021-01-12 22:00:36 +0000";
layers = (
{
layerId = "8648B977-9A39-40CA-BC6D-5EEF213E062F";
paths = (
{
closed = 1;
nodes = (
"170 292 OFFCURVE",
"153 292 OFFCURVE",
"153 300 CURVE SMOOTH",
"153 309 OFFCURVE",
"212 417 OFFCURVE",
"262 499 CURVE SMOOTH",
"264 502 OFFCURVE",
"268 507 OFFCURVE",
"270 507 CURVE SMOOTH",
"274 507 OFFCURVE",
"274 503 OFFCURVE",
"274 501 CURVE SMOOTH",
"274 437 OFFCURVE",
"274 413 OFFCURVE",
"274 367 CURVE SMOOTH",
"274 309 LINE SMOOTH",
"274 298 OFFCURVE",
"264 292 OFFCURVE",
"254 292 CURVE SMOOTH",
"175 292 LINE SMOOTH"
);
},
{
closed = 1;
nodes = (
"384 694 OFFCURVE",
"373 700 OFFCURVE",
"357 700 CURVE SMOOTH",
"303 700 OFFCURVE",
"118 460 OFFCURVE",
"12 258 CURVE SMOOTH",
"8 250 OFFCURVE",
"5 240 OFFCURVE",
"5 231 CURVE SMOOTH",
"5 211 OFFCURVE",
"27 198 OFFCURVE",
"77 198 CURVE SMOOTH",
"265 198 LINE",
"265 99 OFFCURVE",
"265 72 OFFCURVE",
"239 46 CURVE SMOOTH",
"216 23 OFFCURVE",
"216 17 OFFCURVE",
"216 12 CURVE SMOOTH",
"216 5 OFFCURVE",
"224 0 OFFCURVE",
"234 0 CURVE SMOOTH",
"398 0 LINE SMOOTH",
"406 0 OFFCURVE",
"412 5 OFFCURVE",
"412 12 CURVE SMOOTH",
"412 17 OFFCURVE",
"409 22 OFFCURVE",
"392 46 CURVE SMOOTH",
"375 67 OFFCURVE",
"375 98 OFFCURVE",
"375 198 CURVE",
"452 198 LINE SMOOTH",
"497 198 OFFCURVE",
"498 240 OFFCURVE",
"498 253 CURVE SMOOTH",
"498 259 LINE SMOOTH",
"498 271 OFFCURVE",
"496 288 OFFCURVE",
"453 288 CURVE SMOOTH",
"443 288 OFFCURVE",
"417 288 OFFCURVE",
"403 288 CURVE SMOOTH",
"389 288 OFFCURVE",
"384 296 OFFCURVE",
"384 308 CURVE SMOOTH",
"384 678 LINE SMOOTH"
);
}
);
width = 502;
},
{
associatedMasterId = "8648B977-9A39-40CA-BC6D-5EEF213E062F";
layerId = "1E53511A-D9E4-4EA8-B7D4-6B8560AC1842";
name = bubble;
paths = (
{
closed = 1;
nodes = (
"434 678 LINE SMOOTH",
"434 721 OFFCURVE",
"402 750 OFFCURVE",
"357 750 CURVE SMOOTH",
"276 750 OFFCURVE",
"103 494 OFFCURVE",
"0 281 CURVE SMOOTH",
"0 266 OFFCURVE",
"0 246 OFFCURVE",
"0 231 CURVE SMOOTH",
"0 174 OFFCURVE",
"33 148 OFFCURVE",
"77 148 CURVE SMOOTH",
"215 148 LINE",
"214 95 OFFCURVE",
"212 89 OFFCURVE",
"204 81 CURVE SMOOTH",
"180 58 OFFCURVE",
"166 39 OFFCURVE",
"166 12 CURVE SMOOTH",
"166 -25 OFFCURVE",
"198 -50 OFFCURVE",
"234 -50 CURVE SMOOTH",
"398 -50 LINE SMOOTH",
"433 -50 OFFCURVE",
"462 -23 OFFCURVE",
"462 12 CURVE SMOOTH",
"462 35 OFFCURVE",
"450 51 OFFCURVE",
"430 79 CURVE",
"427 84 OFFCURVE",
"426 98 OFFCURVE",
"425 148 CURVE",
"452 148 LINE SMOOTH",
"483 148 OFFCURVE",
"502 191 OFFCURVE",
"502 253 CURVE SMOOTH",
"502 259 LINE SMOOTH",
"502 312 OFFCURVE",
"482 338 OFFCURVE",
"453 338 CURVE SMOOTH",
"434 338 LINE"
);
}
);
width = 502;
}
);
unicode = 0034;
},
{
glyphname = five;
lastChange = "2021-01-12 22:00:36 +0000";
layers = (
{
guideLines = (
{
angle = 90;
position = "{69, 435}";
}
);
layerId = "8648B977-9A39-40CA-BC6D-5EEF213E062F";
paths = (
{
closed = 1;
nodes = (
"69 430 LINE SMOOTH",
"69 336 OFFCURVE",
"105 324 OFFCURVE",
"145 324 CURVE SMOOTH",
"203 324 OFFCURVE",
"248 355 OFFCURVE",
"279 355 CURVE SMOOTH",
"316 355 OFFCURVE",
"384 353 OFFCURVE",
"384 215 CURVE SMOOTH",
"384 154 OFFCURVE",
"349 88 OFFCURVE",
"278 88 CURVE SMOOTH",
"187 88 OFFCURVE",
"156 154 OFFCURVE",
"156 215 CURVE",
"156 236 OFFCURVE",
"148 256 OFFCURVE",
"100 256 CURVE SMOOTH",
"52 256 OFFCURVE",
"46 236 OFFCURVE",
"46 217 CURVE",
"46 98 OFFCURVE",
"135 -7 OFFCURVE",
"279 -7 CURVE SMOOTH",
"390 -7 OFFCURVE",
"494 92 OFFCURVE",
"494 215 CURVE SMOOTH",
"494 393 OFFCURVE",
"395 434 OFFCURVE",
"316 434 CURVE SMOOTH",
"214 434 OFFCURVE",
"215 404 OFFCURVE",
"196 404 CURVE SMOOTH",
"186 404 OFFCURVE",
"179 415 OFFCURVE",
"179 426 CURVE SMOOTH",
"179 603 LINE SMOOTH",
"179 614 OFFCURVE",
"189 620 OFFCURVE",
"199 620 CURVE SMOOTH",
"357 620 OFFCURVE",
"388 620 OFFCURVE",
"410 600 CURVE SMOOTH",
"429 582 OFFCURVE",
"442 579 OFFCURVE",
"453 579 CURVE SMOOTH",
"463 579 OFFCURVE",
"467 581 OFFCURVE",
"467 588 CURVE",
"467 658 LINE SMOOTH",
"467 670 OFFCURVE",
"466 700 OFFCURVE",
"432 700 CURVE",
"173 700 LINE",
"73 700 OFFCURVE",
"69 684 OFFCURVE",
"69 605 CURVE SMOOTH"
);
}
);
width = 530;
},
{
associatedMasterId = "8648B977-9A39-40CA-BC6D-5EEF213E062F";
layerId = "D368B215-4891-4D58-92E6-53E8F730FB67";
name = bubble;
paths = (
{
closed = 1;
nodes = (
"281 484 OFFCURVE",
"253 481 OFFCURVE",
"229 474 CURVE",
"229 570 LINE",
"354 570 OFFCURVE",
"371 567 OFFCURVE",
"376 563 CURVE SMOOTH",
"399 542 OFFCURVE",
"425 529 OFFCURVE",
"453 529 CURVE SMOOTH",
"489 529 OFFCURVE",
"517 551 OFFCURVE",
"517 588 CURVE SMOOTH",
"517 658 LINE SMOOTH",
"517 712 OFFCURVE",
"485 750 OFFCURVE",
"432 750 CURVE SMOOTH",
"173 750 LINE SMOOTH",
"51 750 OFFCURVE",
"19 719 OFFCURVE",
"19 605 CURVE SMOOTH",
"19 430 LINE SMOOTH",
"19 370 OFFCURVE",
"33 327 OFFCURVE",
"62 302 CURVE",
"23 291 OFFCURVE",
"0 263 OFFCURVE",
"0 217 CURVE SMOOTH",
"0 61 OFFCURVE",
"119 -57 OFFCURVE",
"279 -57 CURVE SMOOTH",
"414 -57 OFFCURVE",
"530 68 OFFCURVE",
"530 215 CURVE SMOOTH",
"530 383 OFFCURVE",
"450 484 OFFCURVE",
"316 484 CURVE SMOOTH"
);
}
);
width = 530;
}
);
unicode = 0035;
},
{
glyphname = six;
lastChange = "2021-01-12 22:00:36 +0000";
layers = (
{
layerId = "8648B977-9A39-40CA-BC6D-5EEF213E062F";
paths = (
{
closed = 1;
nodes = (
"54 89 OFFCURVE",
"143 -7 OFFCURVE",
"275 -7 CURVE SMOOTH",
"393 -7 OFFCURVE",
"496 59 OFFCURVE",
"496 174 CURVE SMOOTH",
"496 308 OFFCURVE",
"404 390 OFFCURVE",
"273 390 CURVE SMOOTH",
"230 390 OFFCURVE",
"195 366 OFFCURVE",
"175 352 CURVE SMOOTH",
"163 344 OFFCURVE",
"163 442 OFFCURVE",
"163 468 CURVE SMOOTH",
"163 529 OFFCURVE",
"198 605 OFFCURVE",
"269 605 CURVE SMOOTH",
"295 605 OFFCURVE",
"371 597 OFFCURVE",
"371 528 CURVE",
"371 507 OFFCURVE",
"379 487 OFFCURVE",
"427 487 CURVE SMOOTH",
"475 487 OFFCURVE",
"481 507 OFFCURVE",
"481 526 CURVE",
"481 645 OFFCURVE",
"356 700 OFFCURVE",
"268 700 CURVE SMOOTH",
"141 700 OFFCURVE",
"54 600 OFFCURVE",
"54 478 CURVE SMOOTH",
"54 211 LINE SMOOTH"
);
},
{
closed = 1;
nodes = (
"164 253 OFFCURVE",
"178 310 OFFCURVE",
"275 310 CURVE SMOOTH",
"341 310 OFFCURVE",
"386 253 OFFCURVE",
"386 174 CURVE SMOOTH",
"386 111 OFFCURVE",
"343 78 OFFCURVE",
"274 78 CURVE SMOOTH",
"208 78 OFFCURVE",
"164 108 OFFCURVE",
"164 174 CURVE SMOOTH"
);
}
);
width = 530;
},
{
associatedMasterId = "8648B977-9A39-40CA-BC6D-5EEF213E062F";
layerId = "676D3D0B-2D35-4C56-A28A-E8B432A2EA78";
name = bubble;
paths = (
{
closed = 1;
nodes = (
"251 440 OFFCURVE",
"231 435 OFFCURVE",
"213 429 CURVE",
"213 441 OFFCURVE",
"213 454 OFFCURVE",
"213 468 CURVE SMOOTH",
"213 517 OFFCURVE",
"239 555 OFFCURVE",
"269 555 CURVE SMOOTH",
"302 555 OFFCURVE",
"321 546 OFFCURVE",
"321 528 CURVE SMOOTH",
"321 468 OFFCURVE",
"362.997 437 OFFCURVE",
"427 437 CURVE SMOOTH",
"489 437 OFFCURVE",
"530 467 OFFCURVE",
"530 526 CURVE SMOOTH",
"530 652 OFFCURVE",
"413 750 OFFCURVE",
"268 750 CURVE SMOOTH",
"115 750 OFFCURVE",
"0 632 OFFCURVE",
"0 478 CURVE SMOOTH",
"0 211 LINE SMOOTH",
"0 58 OFFCURVE",
"117 -57 OFFCURVE",
"275 -57 CURVE SMOOTH",
"422 -57 OFFCURVE",
"530 39 OFFCURVE",
"530 174 CURVE SMOOTH",
"530 332 OFFCURVE",
"425 440 OFFCURVE",
"273 440 CURVE SMOOTH"
);
}
);
width = 530;
}
);
unicode = 0036;
},
{
glyphname = seven;
lastChange = "2021-01-12 22:00:36 +0000";
layers = (
{
layerId = "8648B977-9A39-40CA-BC6D-5EEF213E062F";
paths = (
{
closed = 1;
nodes = (
"329 593 OFFCURVE",
"305 544 OFFCURVE",
"132 205 CURVE SMOOTH",
"82 109 OFFCURVE",
"62 57 OFFCURVE",
"62 33 CURVE SMOOTH",
"62 5 OFFCURVE",
"93 0 OFFCURVE",
"105 0 CURVE",
"182 0 LINE",
"200 0 OFFCURVE",
"208 7 OFFCURVE",
"208 16 CURVE SMOOTH",
"208 21 OFFCURVE",
"204 30 OFFCURVE",
"200 36 CURVE SMOOTH",
"197 41 OFFCURVE",
"195 48 OFFCURVE",
"195 56 CURVE SMOOTH",
"195 106 OFFCURVE",
"242 204 OFFCURVE",
"242 205 CURVE SMOOTH",
"472 652 LINE SMOOTH",
"476 660 OFFCURVE",
"479 668 OFFCURVE",
"479 674 CURVE SMOOTH",
"479 691 OFFCURVE",
"462 700 OFFCURVE",
"422 700 CURVE",
"47 700 LINE",
"11 700 OFFCURVE",
"10 668 OFFCURVE",
"10 656 CURVE SMOOTH",
"10 625 LINE",
"10 617 OFFCURVE",
"12 597 OFFCURVE",
"46 597 CURVE SMOOTH",
"64 597 OFFCURVE",
"153 610 OFFCURVE",
"311 610 CURVE SMOOTH",
"315 610 OFFCURVE",
"329 610 OFFCURVE",
"329 603 CURVE SMOOTH"
);
}
);
width = 482;
},
{
associatedMasterId = "8648B977-9A39-40CA-BC6D-5EEF213E062F";
layerId = "4494BD13-1756-42BB-8FAF-CE3C8C6B54CE";
name = bubble;
paths = (
{
closed = 1;
nodes = (
"482 643 OFFCURVE",
"482 661 OFFCURVE",
"482 674 CURVE SMOOTH",
"482 726 OFFCURVE",
"457 750 OFFCURVE",
"422 750 CURVE SMOOTH",
"47 750 LINE SMOOTH",
"18 750 OFFCURVE",
"0 712 OFFCURVE",
"0 656 CURVE SMOOTH",
"0 625 LINE SMOOTH",
"0 577 OFFCURVE",
"20 547 OFFCURVE",
"46 547 CURVE SMOOTH",
"51 547 OFFCURVE",
"62 548 OFFCURVE",
"78 549 CURVE SMOOTH",
"111 552 OFFCURVE",
"170 558 OFFCURVE",
"255 559 CURVE",
"227 502 OFFCURVE",
"176 401 OFFCURVE",
"88 228 CURVE SMOOTH",
"36 129 OFFCURVE",
"12 68 OFFCURVE",
"12 33 CURVE SMOOTH",
"12 -17 OFFCURVE",
"54 -50 OFFCURVE",
"105 -50 CURVE SMOOTH",
"182 -50 LINE SMOOTH",
"223.003 -50 OFFCURVE",
"258 -26 OFFCURVE",
"258 16 CURVE SMOOTH",
"258 30 OFFCURVE",
"252 45 OFFCURVE",
"245 58 CURVE",
"247 76 OFFCURVE",
"264 127 OFFCURVE",
"277 164 CURVE",
"482 629 LINE SMOOTH"
);
}
);
width = 482;
}
);
unicode = 0037;
},
{
glyphname = eight;
lastChange = "2021-01-12 22:00:36 +0000";
layers = (
{
layerId = "8648B977-9A39-40CA-BC6D-5EEF213E062F";
paths = (
{
closed = 1;
nodes = (
"407 -7 OFFCURVE",
"509 62 OFFCURVE",
"509 185 CURVE SMOOTH",
"509 340 OFFCURVE",
"394 348 OFFCURVE",
"394 371 CURVE SMOOTH",
"394 393 OFFCURVE",
"486 414 OFFCURVE",
"486 529 CURVE SMOOTH",
"486 644 OFFCURVE",
"383 710 OFFCURVE",
"265 710 CURVE SMOOTH",
"160 710 OFFCURVE",
"44 644 OFFCURVE",
"44 522 CURVE SMOOTH",
"44 414 OFFCURVE",
"155 393 OFFCURVE",
"155 369 CURVE SMOOTH",
"155 348 OFFCURVE",
"43 328 OFFCURVE",
"43 187 CURVE SMOOTH",
"43 68 OFFCURVE",
"132 -7 OFFCURVE",
"276 -7 CURVE SMOOTH"
);
},
{
closed = 1;
nodes = (
"150 243 OFFCURVE",
"201 318 OFFCURVE",
"275 318 CURVE SMOOTH",
"355 318 OFFCURVE",
"401 243 OFFCURVE",
"401 185 CURVE SMOOTH",
"401 124 OFFCURVE",
"366 68 OFFCURVE",
"275 68 CURVE SMOOTH",
"184 68 OFFCURVE",
"150 124 OFFCURVE",
"150 185 CURVE SMOOTH"
);
},
{
closed = 1;
nodes = (
"154 595 OFFCURVE",
"198 625 OFFCURVE",
"264 625 CURVE SMOOTH",
"333 625 OFFCURVE",
"376 592 OFFCURVE",
"376 529 CURVE SMOOTH",
"376 470 OFFCURVE",
"331 413 OFFCURVE",
"265 413 CURVE SMOOTH",
"198 413 OFFCURVE",
"154 470 OFFCURVE",
"154 529 CURVE SMOOTH"
);
}
);
width = 545;
},
{
associatedMasterId = "8648B977-9A39-40CA-BC6D-5EEF213E062F";
layerId = "80B753F0-C7AF-4B1D-BD78-12FA3A87473B";
name = bubble;
paths = (
{
closed = 1;
nodes = (
"500 403 OFFCURVE",
"536 451 OFFCURVE",
"536 529 CURVE SMOOTH",
"536 664 OFFCURVE",
"421 760 OFFCURVE",
"265 760 CURVE SMOOTH",
"117 760 OFFCURVE",
"0 657 OFFCURVE",
"0 522 CURVE SMOOTH",
"0 442 OFFCURVE",
"43 396 OFFCURVE",
"76 369 CURVE",
"43 339 OFFCURVE",
"0 285 OFFCURVE",
"0 187 CURVE SMOOTH",
"0 39 OFFCURVE",
"109 -57 OFFCURVE",
"276 -57 CURVE SMOOTH",
"435 -57 OFFCURVE",
"545 41 OFFCURVE",
"545 185 CURVE SMOOTH",
"545 293 OFFCURVE",
"503 347 OFFCURVE",
"471 376 CURVE"
);
}
);
width = 545;
}
);
unicode = 0038;
},
{
glyphname = period;
lastChange = "2021-01-12 21:52:54 +0000";
layers = (
{
layerId = "8648B977-9A39-40CA-BC6D-5EEF213E062F";
paths = (
{
closed = 1;
nodes = (
"116 -5 OFFCURVE",
"146 21 OFFCURVE",
"146 50 CURVE SMOOTH",
"146 87 OFFCURVE",
"114 97 OFFCURVE",
"75 97 CURVE SMOOTH",
"36 97 OFFCURVE",
"10 77 OFFCURVE",
"10 46 CURVE SMOOTH",
"10 12 OFFCURVE",
"37 -5 OFFCURVE",
"74 -5 CURVE SMOOTH"
);
}
);
width = 156;
},
{
associatedMasterId = "8648B977-9A39-40CA-BC6D-5EEF213E062F";
layerId = "ECD7725D-7474-43E3-AF67-4AB1D2E67E8F";
name = bubble;
paths = (
{
closed = 1;
nodes = (
"118 -55 OFFCURVE",
"156 -11 OFFCURVE",
"156 50 CURVE SMOOTH",
"156 113 OFFCURVE",
"124 147 OFFCURVE",
"75 147 CURVE SMOOTH",
"33 147 OFFCURVE",
"0 107 OFFCURVE",
"0 46 CURVE SMOOTH",
"0 -15 OFFCURVE",
"31 -55 OFFCURVE",
"74 -55 CURVE SMOOTH"
);
}
);
width = 156;
}
);
unicode = 002E;
},
{
glyphname = comma;
lastChange = "2021-01-12 21:52:17 +0000";
layers = (
{
layerId = "8648B977-9A39-40CA-BC6D-5EEF213E062F";
paths = (
{
closed = 1;
nodes = (
"10 12 OFFCURVE",
"37 -5 OFFCURVE",
"69 -5 CURVE SMOOTH",
"81 -5 OFFCURVE",
"83 0 OFFCURVE",
"89 0 CURVE SMOOTH",
"94 0 OFFCURVE",
"94 -5 OFFCURVE",
"94 -10 CURVE SMOOTH",
"94 -59 OFFCURVE",
"60 -68 OFFCURVE",
"60 -89 CURVE SMOOTH",
"60 -99 OFFCURVE",
"68 -106 OFFCURVE",
"78 -106 CURVE SMOOTH",
"108 -106 OFFCURVE",
"141 -6 OFFCURVE",
"141 35 CURVE SMOOTH",
"141 76 OFFCURVE",
"110 97 OFFCURVE",
"70 97 CURVE SMOOTH",
"36 97 OFFCURVE",
"10 77 OFFCURVE",
"10 46 CURVE SMOOTH"
);
}
);
width = 151;
},
{
associatedMasterId = "8648B977-9A39-40CA-BC6D-5EEF213E062F";
layerId = "19EEEDCE-0972-4315-BC71-AF9251E925E8";
name = bubble;
paths = (
{
closed = 1;
nodes = (
"31 147 OFFCURVE",
"0 105 OFFCURVE",
"0 46 CURVE SMOOTH",
"0 2 OFFCURVE",
"10 -32 OFFCURVE",
"24 -47 CURVE",
"15 -60 OFFCURVE",
"10 -72.997 OFFCURVE",
"10 -89 CURVE SMOOTH",
"10 -127 OFFCURVE",
"40 -156 OFFCURVE",
"78 -156 CURVE SMOOTH",
"119 -156 OFFCURVE",
"151 -43 OFFCURVE",
"151 35 CURVE SMOOTH",
"151 102 OFFCURVE",
"117 147 OFFCURVE",
"70 147 CURVE SMOOTH"
);
}
);
width = 151;
}
);
unicode = 002C;
},
{
glyphname = exclam;
lastChange = "2021-01-13 21:26:16 +0000";
layers = (
{
components = (
{
name = period;
transform = "{1, 0, 0, 1, 75, 10}";
}
);
guideLines = (
{
position = "{677, 110}";
},
{
position = "{677, 700}";
},
{
position = "{677, 233}";
}
);
layerId = "8648B977-9A39-40CA-BC6D-5EEF213E062F";
paths = (
{
closed = 1;
nodes = (
"97 487 LINE",
"108 294 OFFCURVE",
"107 260 OFFCURVE",
"99 220 CURVE SMOOTH",
"95 202 OFFCURVE",
"91 202 OFFCURVE",
"91 194 CURVE SMOOTH",
"91 188 OFFCURVE",
"97 183 OFFCURVE",
"105 183 CURVE SMOOTH",
"199 183 LINE SMOOTH",
"207 183 OFFCURVE",
"213 188 OFFCURVE",
"213 194 CURVE SMOOTH",
"213 202 OFFCURVE",
"209 202 OFFCURVE",
"205 220 CURVE SMOOTH",
"197 260 OFFCURVE",
"196 292 OFFCURVE",
"207 487 CURVE",
"217 756 LINE",
"219 790 OFFCURVE",
"191 800 OFFCURVE",
"152 800 CURVE SMOOTH",
"114 800 OFFCURVE",
"85 790 OFFCURVE",
"87 756 CURVE"
);
}
);
width = 308;
},
{
associatedMasterId = "8648B977-9A39-40CA-BC6D-5EEF213E062F";
layerId = "9944F9C1-9892-4E7F-A873-DF9DFF2FB9BF";
name = bubble;
paths = (
{
closed = 1;
nodes = (
"48 307 OFFCURVE",
"49 268 OFFCURVE",
"41 230 CURVE SMOOTH",
"40 225 OFFCURVE",
"39 222 OFFCURVE",
"37 218 CURVE SMOOTH",
"35 211 OFFCURVE",
"32 201 OFFCURVE",
"32 194 CURVE SMOOTH",
"32 159 OFFCURVE",
"62 133 OFFCURVE",
"96 133 CURVE SMOOTH",
"190 133 LINE SMOOTH",
"224 133 OFFCURVE",
"254 159 OFFCURVE",
"254 194 CURVE SMOOTH",
"254 201 OFFCURVE",
"251 211 OFFCURVE",
"249 218 CURVE SMOOTH",
"247 222 OFFCURVE",
"246 225 OFFCURVE",
"245 230 CURVE SMOOTH",
"237 268 OFFCURVE",
"238 305 OFFCURVE",
"248 485 CURVE SMOOTH",
"258 754 LINE SMOOTH",
"261 816 OFFCURVE",
"214 850 OFFCURVE",
"143 850 CURVE SMOOTH",
"72 850 OFFCURVE",
"25 816 OFFCURVE",
"28 754 CURVE SMOOTH",
"38 485 LINE SMOOTH"
);
}
);
width = 290;
}
);
unicode = 0021;
},
{
glyphname = question;
lastChange = "2021-01-12 21:52:09 +0000";
layers = (
{
components = (
{
name = period;
transform = "{1, 0, 0, 1, 113, 10}";
}
);
layerId = "8648B977-9A39-40CA-BC6D-5EEF213E062F";
paths = (
{
closed = 1;
nodes = (
"143 221 OFFCURVE",
"135 196 OFFCURVE",
"135 193 CURVE SMOOTH",
"135 187 OFFCURVE",
"141 182 OFFCURVE",
"149 182 CURVE SMOOTH",
"227 182 LINE SMOOTH",
"235 182 OFFCURVE",
"241 187 OFFCURVE",
"241 193 CURVE SMOOTH",
"241 196 OFFCURVE",
"233 221 OFFCURVE",
"233 239 CURVE SMOOTH",
"233 276 LINE SMOOTH",
"233 308 OFFCURVE",
"233 308 OFFCURVE",
"260 308 CURVE SMOOTH",
"348 308 OFFCURVE",
"418 359 OFFCURVE",
"418 517 CURVE SMOOTH",
"418 630 OFFCURVE",
"314 699 OFFCURVE",
"203 699 CURVE SMOOTH",
"79 699 OFFCURVE",
"10 624 OFFCURVE",
"10 515 CURVE",
"10 496 OFFCURVE",
"16 476 OFFCURVE",
"64 476 CURVE SMOOTH",
"112 476 OFFCURVE",
"120 496 OFFCURVE",
"120 517 CURVE",
"120 578 OFFCURVE",
"131 614 OFFCURVE",
"202 614 CURVE SMOOTH",
"273 614 OFFCURVE",
"308 578 OFFCURVE",
"308 517 CURVE SMOOTH",
"308 387 OFFCURVE",
"264 387 OFFCURVE",
"227 387 CURVE SMOOTH",
"143 387 OFFCURVE",
"143 387 OFFCURVE",
"143 282 CURVE SMOOTH",
"143 239 LINE"
);
}
);
width = 428;
},
{
associatedMasterId = "8648B977-9A39-40CA-BC6D-5EEF213E062F";
layerId = "A402D91D-60E3-4B99-94C7-19129D43A61A";
name = bubble;
paths = (
{
closed = 1;
nodes = (
"428 649 OFFCURVE",
"330 749 OFFCURVE",
"203 749 CURVE SMOOTH",
"80 749 OFFCURVE",
"0 657 OFFCURVE",
"0 515 CURVE SMOOTH",
"0 456 OFFCURVE",
"25 426 OFFCURVE",
"64 426 CURVE SMOOTH",
"128.003 426 OFFCURVE",
"170 457 OFFCURVE",
"170 517 CURVE SMOOTH",
"170 566 OFFCURVE",
"173 564 OFFCURVE",
"202 564 CURVE SMOOTH",
"244 564 OFFCURVE",
"258 551 OFFCURVE",
"258 517 CURVE SMOOTH",
"258 444 OFFCURVE",
"256 437 OFFCURVE",
"227 437 CURVE SMOOTH",
"109 437 OFFCURVE",
"93 412 OFFCURVE",
"93 282 CURVE SMOOTH",
"93 239 LINE SMOOTH",
"93 235 OFFCURVE",
"92 227 OFFCURVE",
"88 212 CURVE SMOOTH",
"87 208 OFFCURVE",
"85 196 OFFCURVE",
"85 193 CURVE SMOOTH",
"85 158 OFFCURVE",
"115 132 OFFCURVE",
"149 132 CURVE SMOOTH",
"227 132 LINE SMOOTH",
"261 132 OFFCURVE",
"291 158 OFFCURVE",
"291 193 CURVE SMOOTH",
"291 196 OFFCURVE",
"289 208 OFFCURVE",
"288 212 CURVE SMOOTH",
"284 227 OFFCURVE",
"283 235 OFFCURVE",
"283 239 CURVE SMOOTH",
"283 259 LINE",
"377 269 OFFCURVE",
"428 362 OFFCURVE",
"428 517 CURVE SMOOTH"
);
}
);
width = 428;
}
);
unicode = 003F;
},
{
glyphname = hyphen;
lastChange = "2021-01-12 22:02:23 +0000";
layers = (
{
layerId = "8648B977-9A39-40CA-BC6D-5EEF213E062F";
paths = (
{
closed = 1;
nodes = (
"171 283 OFFCURVE",
"170 283 OFFCURVE",
"37 283 CURVE SMOOTH",
"20 283 OFFCURVE",
"10 244 OFFCURVE",
"10 235 CURVE SMOOTH",
"10 226 OFFCURVE",
"15 214 OFFCURVE",
"27 214 CURVE SMOOTH",
"39 214 OFFCURVE",
"149 214 OFFCURVE",
"164 214 CURVE SMOOTH",
"172 214 OFFCURVE",
"134 214 OFFCURVE",
"267 214 CURVE SMOOTH",
"284 214 OFFCURVE",
"294 253 OFFCURVE",
"294 262 CURVE SMOOTH",
"294 271 OFFCURVE",
"289 283 OFFCURVE",
"277 283 CURVE SMOOTH",
"265 283 OFFCURVE",
"194 283 OFFCURVE",
"179 283 CURVE SMOOTH"
);
}
);
width = 304;
},
{
associatedMasterId = "8648B977-9A39-40CA-BC6D-5EEF213E062F";
layerId = "65AE68BC-C08E-4C06-947A-5F1DE278E016";
name = bubble;
paths = (
{
closed = 1;
nodes = (
"15 333 OFFCURVE",
"0 278 OFFCURVE",
"0 235 CURVE SMOOTH",
"0 196 OFFCURVE",
"11 164 OFFCURVE",
"27 164 CURVE SMOOTH",
"164 164 LINE",
"267 164 LINE SMOOTH",
"289 164 OFFCURVE",
"304 219 OFFCURVE",
"304 262 CURVE SMOOTH",
"304 301 OFFCURVE",
"293 333 OFFCURVE",
"277 333 CURVE SMOOTH",
"37 333 LINE SMOOTH"
);
}
);
width = 304;
}
);
unicode = 002D;
},
{
glyphname = acute;
lastChange = "2021-01-12 21:54:17 +0000";
layers = (
{
layerId = "8648B977-9A39-40CA-BC6D-5EEF213E062F";
paths = (
{
closed = 1;
nodes = (
"196 548 OFFCURVE",
"213 542 OFFCURVE",
"237 542 CURVE SMOOTH",
"301 542 OFFCURVE",
"426 617 OFFCURVE",
"432 650 CURVE SMOOTH",
"434 661 OFFCURVE",
"423 691 OFFCURVE",
"400 691 CURVE SMOOTH",
"361 691 OFFCURVE",
"196 589 OFFCURVE",
"196 563 CURVE SMOOTH"
);
}
);
width = 449;
},
{
associatedMasterId = "8648B977-9A39-40CA-BC6D-5EEF213E062F";
layerId = "8ECDFE57-3A06-4696-8207-E77EDD36424E";
name = bubble;
paths = (
{
closed = 1;
nodes = (
"168 521 OFFCURVE",
"182 492 OFFCURVE",
"237 492 CURVE SMOOTH",
"308 492 OFFCURVE",
"439 576 OFFCURVE",
"449 641 CURVE SMOOTH",
"454 689 OFFCURVE",
"430 741 OFFCURVE",
"400 741 CURVE SMOOTH",
"291 741 OFFCURVE",
"168 627 OFFCURVE",
"168 568 CURVE SMOOTH"
);
}
);
width = 449;
}
);
unicode = 00B4;
},
{
glyphname = caron;
lastChange = "2021-01-12 21:02:47 +0000";
layers = (
{
layerId = "8648B977-9A39-40CA-BC6D-5EEF213E062F";
paths = (
{
closed = 1;
nodes = (
"92 691 OFFCURVE",
"10 586 OFFCURVE",
"10 542 CURVE SMOOTH",
"10 530 OFFCURVE",
"16 523 OFFCURVE",
"30 523 CURVE SMOOTH",
"90 523 OFFCURVE",
"104 620 OFFCURVE",
"135 620 CURVE SMOOTH",
"153 620 OFFCURVE",
"168 525 OFFCURVE",
"206 525 CURVE SMOOTH",
"226 525 OFFCURVE",
"237 541 OFFCURVE",
"237 563 CURVE SMOOTH",
"237 612 OFFCURVE",
"189 691 OFFCURVE",
"136 691 CURVE SMOOTH"
);
}
);
width = 257;
}
);
unicode = 02C7;
},
